G75*
G70*
%OFA0B0*%
%FSLAX24Y24*%
%IPPOS*%
%LPD*%
%AMOC8*
5,1,8,0,0,1.08239X$1,22.5*
%
%ADD10R,0.0276X0.1732*%
%ADD11R,0.0394X0.0591*%
%ADD12R,0.0591X0.0394*%
D10*
X012896Y025022D03*
X013290Y025022D03*
X013683Y025022D03*
X014077Y025022D03*
X014471Y025022D03*
X014865Y025022D03*
X015258Y025022D03*
X015652Y025022D03*
X016046Y025022D03*
X016439Y025022D03*
X016833Y025022D03*
X018014Y025022D03*
X018408Y025022D03*
X018802Y025022D03*
X019195Y025022D03*
X019589Y025022D03*
X019983Y025022D03*
X020376Y025022D03*
X020770Y025022D03*
X021164Y025022D03*
X021557Y025022D03*
X021951Y025022D03*
X022345Y025022D03*
X022739Y025022D03*
X023132Y025022D03*
X023526Y025022D03*
X023920Y025022D03*
X024313Y025022D03*
X024707Y025022D03*
X025101Y025022D03*
X025494Y025022D03*
X025888Y025022D03*
X026282Y025022D03*
X026676Y025022D03*
X027069Y025022D03*
X027463Y025022D03*
X027857Y025022D03*
X028250Y025022D03*
X028644Y025022D03*
X029038Y025022D03*
X029431Y025022D03*
X029825Y025022D03*
X030219Y025022D03*
X030613Y025022D03*
X031006Y025022D03*
X031400Y025022D03*
X031794Y025022D03*
X032187Y025022D03*
X032581Y025022D03*
D11*
X001479Y002994D03*
X001479Y003822D03*
X001479Y005474D03*
X001479Y006303D03*
D12*
X004923Y005416D03*
X005751Y005416D03*
M02*
