%
M48
M72
T01C0.0118
T02C0.0315
T03C0.0400
T04C0.0531
T05C0.0866
T06C0.1181
%
T01
X6321Y14983
X8388Y21046
X12660Y23113
X12660Y23388
X12935Y23388
X12935Y23113
X13211Y23113
X13211Y23388
X13211Y23664
X12935Y23664
X12660Y23664
X12345Y24057
X13762Y23664
X14038Y23664
X14038Y23388
X14038Y23113
X13762Y23113
X13762Y23388
X13762Y22837
X14038Y22837
X16105Y23113
X16105Y23388
X16380Y23388
X16380Y23113
X16656Y23113
X16656Y23388
X16656Y23664
X16380Y23664
X16105Y23664
X18014Y23723
X18605Y23723
X19392Y23723
X20376Y23723
X21321Y23723
X22128Y23723
X22935Y23723
X23723Y23723
X24510Y23723
X25298Y23723
X26085Y23723
X26872Y23723
X27660Y23723
X28447Y23723
X29235Y23723
X30042Y23723
X30809Y23723
X31617Y23723
X32384Y23723
X16380Y22148
X16105Y22148
X16105Y21872
X16380Y21872
T02
X12896Y16758
X12502Y16258
X12502Y15758
X12896Y15258
X12502Y14758
X12502Y14258
X12896Y13758
X20967Y14258
X20967Y14758
X21361Y15258
X20967Y15758
X20967Y16258
X21361Y16758
X21361Y13758
X29235Y14258
X29235Y14758
X29628Y15258
X29235Y15758
X29235Y16258
X29628Y16758
X29628Y13758
X37699Y14258
X37699Y14758
X38093Y15258
X37699Y15758
X37699Y16258
X38093Y16758
X38093Y13758
X38093Y8097
X37699Y7597
X37699Y7097
X38093Y6597
X37699Y6097
X37699Y5597
X38093Y5097
X29628Y5097
X29235Y5597
X29235Y6097
X29628Y6597
X29235Y7097
X29235Y7597
X29628Y8097
X21361Y8097
X20967Y7597
X20967Y7097
X21361Y6597
X20967Y6097
X20967Y5597
X21361Y5097
X12896Y5097
X12502Y5597
X12502Y6097
X12896Y6597
X12502Y7097
X12502Y7597
X12896Y8097
X4038Y11333
X4038Y11833
X4038Y12333
X4038Y12833
X4038Y13333
X4038Y13833
X4038Y14333
X4038Y16833
X4038Y17333
X4038Y17833
X4038Y18333
X4038Y18833
X4038Y19333
X4038Y19833
X4038Y20333
X4038Y20833
X4038Y21333
X4038Y21833
X4038Y22333
X4038Y22833
X4038Y23333
X4038Y23833
T03
X2750Y2431
X3750Y2431
X3750Y3431
X2750Y3431
X2750Y4431
X3750Y4431
X3750Y5431
X2750Y5431
X2750Y6431
X3750Y6431
X7278Y6372
X8278Y6372
X8278Y5372
X7278Y5372
X7278Y4372
X8278Y4372
X8081Y11699
X7081Y11699
X7081Y12699
X8081Y12699
X8081Y13699
X7081Y13699
T04
X12699Y12707
X12699Y9148
X12699Y4046
X21164Y4046
X21164Y9148
X21164Y12707
X21164Y17809
X29431Y17809
X29431Y12707
X29431Y9148
X29431Y4046
X37896Y4046
X37896Y9148
X37896Y12707
X37896Y17809
X12699Y17809
T05
X4038Y25500
X4038Y9667
T06
X9156Y2069
X16243Y2069
X41243Y2069
X9156Y24510
X41243Y24707
M30
