%
M48
M72
T01C0.0118
T02C0.0315
T03C0.0400
T04C0.0531
T05C0.0866
T06C0.1181
%
T01
X6576Y14431
X6320Y14982
X8387Y21045
X12659Y23112
X12659Y23387
X12935Y23387
X12935Y23112
X13210Y23112
X13210Y23387
X13210Y23663
X12935Y23663
X12659Y23663
X13761Y23663
X13761Y23387
X13761Y23112
X13761Y22836
X14037Y22836
X14037Y23112
X14037Y23387
X14037Y23663
X16104Y23663
X16380Y23663
X16655Y23663
X16655Y23387
X16655Y23112
X16380Y23112
X16380Y23387
X16104Y23387
X16104Y23112
X16104Y22147
X16104Y21872
X16380Y21872
X16380Y22147
X15671Y21320
X18013Y23722
X18604Y23722
X19391Y23722
X20376Y23722
X21320Y23722
X22128Y23722
X22935Y23722
X23722Y23722
X24509Y23722
X25297Y23722
X26084Y23722
X26872Y23722
X27659Y23722
X28446Y23722
X29234Y23722
X30041Y23722
X30809Y23722
X31616Y23722
X32383Y23722
T02
X29628Y16757
X29234Y16257
X29234Y15757
X29628Y15257
X29234Y14757
X29234Y14257
X29628Y13757
X37698Y14257
X37698Y14757
X38092Y15257
X37698Y15757
X37698Y16257
X38092Y16757
X38092Y13757
X38092Y8096
X37698Y7596
X37698Y7096
X38092Y6596
X37698Y6096
X37698Y5596
X38092Y5096
X29628Y5096
X29234Y5596
X29234Y6096
X29628Y6596
X29234Y7096
X29234Y7596
X29628Y8096
X21360Y8096
X20966Y7596
X20966Y7096
X21360Y6596
X20966Y6096
X20966Y5596
X21360Y5096
X12895Y5096
X12502Y5596
X12502Y6096
X12895Y6596
X12502Y7096
X12502Y7596
X12895Y8096
X4037Y11332
X4037Y11832
X4037Y12332
X4037Y12832
X4037Y13332
X4037Y13832
X4037Y14332
X4037Y16832
X4037Y17332
X4037Y17832
X4037Y18332
X4037Y18832
X4037Y19332
X4037Y19832
X4037Y20332
X4037Y20832
X4037Y21332
X4037Y21832
X4037Y22332
X4037Y22832
X4037Y23332
X4037Y23832
X12895Y16757
X12502Y16257
X12502Y15757
X12895Y15257
X12502Y14757
X12502Y14257
X12895Y13757
X20966Y14257
X20966Y14757
X21360Y15257
X20966Y15757
X20966Y16257
X21360Y16757
X21360Y13757
T03
X2750Y2431
X3750Y2431
X3750Y3431
X2750Y3431
X2750Y4431
X3750Y4431
X3750Y5431
X2750Y5431
X2750Y6431
X3750Y6431
X7277Y6372
X8277Y6372
X8277Y5372
X7277Y5372
X7277Y4372
X8277Y4372
X8080Y11698
X7080Y11698
X7080Y12698
X8080Y12698
X8080Y13698
X7080Y13698
T04
X12698Y12706
X12698Y9147
X12698Y4045
X21163Y4045
X21163Y9147
X21163Y12706
X21163Y17809
X29431Y17809
X29431Y12706
X29431Y9147
X29431Y4045
X37895Y4045
X37895Y9147
X37895Y12706
X37895Y17809
X12698Y17809
T05
X4037Y25499
X4037Y9666
T06
X9155Y2069
X16242Y2069
X41242Y2069
X9155Y24509
X41242Y24706
M30
