G75*
G70*
%OFA0B0*%
%FSLAX24Y24*%
%IPPOS*%
%LPD*%
%AMOC8*
5,1,8,0,0,1.08239X$1,22.5*
%
%ADD10C,0.0000*%
%ADD11C,0.0040*%
D10*
X000101Y000101D02*
X000101Y026676D01*
X043605Y026676D01*
X043605Y000101D01*
X000101Y000101D01*
X003605Y009667D02*
X003607Y009708D01*
X003613Y009749D01*
X003623Y009789D01*
X003636Y009828D01*
X003653Y009865D01*
X003674Y009901D01*
X003698Y009935D01*
X003725Y009966D01*
X003754Y009994D01*
X003787Y010020D01*
X003821Y010042D01*
X003858Y010061D01*
X003896Y010076D01*
X003936Y010088D01*
X003976Y010096D01*
X004017Y010100D01*
X004059Y010100D01*
X004100Y010096D01*
X004140Y010088D01*
X004180Y010076D01*
X004218Y010061D01*
X004254Y010042D01*
X004289Y010020D01*
X004322Y009994D01*
X004351Y009966D01*
X004378Y009935D01*
X004402Y009901D01*
X004423Y009865D01*
X004440Y009828D01*
X004453Y009789D01*
X004463Y009749D01*
X004469Y009708D01*
X004471Y009667D01*
X004469Y009626D01*
X004463Y009585D01*
X004453Y009545D01*
X004440Y009506D01*
X004423Y009469D01*
X004402Y009433D01*
X004378Y009399D01*
X004351Y009368D01*
X004322Y009340D01*
X004289Y009314D01*
X004255Y009292D01*
X004218Y009273D01*
X004180Y009258D01*
X004140Y009246D01*
X004100Y009238D01*
X004059Y009234D01*
X004017Y009234D01*
X003976Y009238D01*
X003936Y009246D01*
X003896Y009258D01*
X003858Y009273D01*
X003822Y009292D01*
X003787Y009314D01*
X003754Y009340D01*
X003725Y009368D01*
X003698Y009399D01*
X003674Y009433D01*
X003653Y009469D01*
X003636Y009506D01*
X003623Y009545D01*
X003613Y009585D01*
X003607Y009626D01*
X003605Y009667D01*
X003605Y025500D02*
X003607Y025541D01*
X003613Y025582D01*
X003623Y025622D01*
X003636Y025661D01*
X003653Y025698D01*
X003674Y025734D01*
X003698Y025768D01*
X003725Y025799D01*
X003754Y025827D01*
X003787Y025853D01*
X003821Y025875D01*
X003858Y025894D01*
X003896Y025909D01*
X003936Y025921D01*
X003976Y025929D01*
X004017Y025933D01*
X004059Y025933D01*
X004100Y025929D01*
X004140Y025921D01*
X004180Y025909D01*
X004218Y025894D01*
X004254Y025875D01*
X004289Y025853D01*
X004322Y025827D01*
X004351Y025799D01*
X004378Y025768D01*
X004402Y025734D01*
X004423Y025698D01*
X004440Y025661D01*
X004453Y025622D01*
X004463Y025582D01*
X004469Y025541D01*
X004471Y025500D01*
X004469Y025459D01*
X004463Y025418D01*
X004453Y025378D01*
X004440Y025339D01*
X004423Y025302D01*
X004402Y025266D01*
X004378Y025232D01*
X004351Y025201D01*
X004322Y025173D01*
X004289Y025147D01*
X004255Y025125D01*
X004218Y025106D01*
X004180Y025091D01*
X004140Y025079D01*
X004100Y025071D01*
X004059Y025067D01*
X004017Y025067D01*
X003976Y025071D01*
X003936Y025079D01*
X003896Y025091D01*
X003858Y025106D01*
X003822Y025125D01*
X003787Y025147D01*
X003754Y025173D01*
X003725Y025201D01*
X003698Y025232D01*
X003674Y025266D01*
X003653Y025302D01*
X003636Y025339D01*
X003623Y025378D01*
X003613Y025418D01*
X003607Y025459D01*
X003605Y025500D01*
D11*
X004876Y006396D02*
X004800Y006319D01*
X004800Y006243D01*
X004876Y006166D01*
X004800Y006089D01*
X004800Y006012D01*
X004876Y005936D01*
X005030Y005936D01*
X005107Y006012D01*
X005260Y005936D02*
X005414Y006089D01*
X005337Y006089D02*
X005567Y006089D01*
X005567Y005936D02*
X005567Y006396D01*
X005337Y006396D01*
X005260Y006319D01*
X005260Y006166D01*
X005337Y006089D01*
X005107Y006319D02*
X005030Y006396D01*
X004876Y006396D01*
X004876Y006166D02*
X004953Y006166D01*
X000959Y005928D02*
X000959Y005774D01*
X000882Y005698D01*
X000882Y005544D02*
X000729Y005544D01*
X000652Y005468D01*
X000652Y005237D01*
X000499Y005237D02*
X000959Y005237D01*
X000959Y005468D01*
X000882Y005544D01*
X000652Y005391D02*
X000499Y005544D01*
X000499Y005698D02*
X000806Y006005D01*
X000882Y006005D01*
X000959Y005928D01*
X000499Y006005D02*
X000499Y005698D01*
X000499Y003524D02*
X000499Y003217D01*
X000499Y003064D02*
X000652Y002911D01*
X000652Y002987D02*
X000652Y002757D01*
X000499Y002757D02*
X000959Y002757D01*
X000959Y002987D01*
X000882Y003064D01*
X000729Y003064D01*
X000652Y002987D01*
X000806Y003217D02*
X000959Y003371D01*
X000499Y003371D01*
M02*
