G75*
G70*
%OFA0B0*%
%FSLAX24Y24*%
%IPPOS*%
%LPD*%
%AMOC8*
5,1,8,0,0,1.08239X$1,22.5*
%
%ADD10C,0.0060*%
%ADD11C,0.0638*%
%ADD12C,0.0413*%
%ADD13C,0.0498*%
%ADD14C,0.0217*%
%ADD15C,0.0160*%
%ADD16C,0.1417*%
D10*
X026331Y001646D02*
X026758Y002073D01*
X026758Y002180D01*
X026651Y002286D01*
X026438Y002286D01*
X026331Y002180D01*
X026331Y001646D02*
X026758Y001646D01*
D11*
X029431Y004045D03*
X029431Y009147D03*
X029431Y012706D03*
X029431Y017809D03*
X021163Y017809D03*
X021163Y012706D03*
X021163Y009147D03*
X021163Y004045D03*
X012698Y004045D03*
X012698Y009147D03*
X012698Y012706D03*
X012698Y017809D03*
X037895Y017809D03*
X037895Y012706D03*
X037895Y009147D03*
X037895Y004045D03*
D12*
X038092Y005096D03*
X037698Y005596D03*
X037698Y006096D03*
X038092Y006596D03*
X037698Y007096D03*
X037698Y007596D03*
X038092Y008096D03*
X029628Y008096D03*
X029234Y007596D03*
X029234Y007096D03*
X029628Y006596D03*
X029234Y006096D03*
X029234Y005596D03*
X029628Y005096D03*
X021360Y005096D03*
X020966Y005596D03*
X020966Y006096D03*
X021360Y006596D03*
X020966Y007096D03*
X020966Y007596D03*
X021360Y008096D03*
X012895Y008096D03*
X012502Y007596D03*
X012502Y007096D03*
X012895Y006596D03*
X012502Y006096D03*
X012502Y005596D03*
X012895Y005096D03*
X004037Y011332D03*
X004037Y011832D03*
X004037Y012332D03*
X004037Y012832D03*
X004037Y013332D03*
X004037Y013832D03*
X004037Y014332D03*
X004037Y016832D03*
X004037Y017332D03*
X004037Y017832D03*
X004037Y018332D03*
X004037Y018832D03*
X004037Y019332D03*
X004037Y019832D03*
X004037Y020332D03*
X004037Y020832D03*
X004037Y021332D03*
X004037Y021832D03*
X004037Y022332D03*
X004037Y022832D03*
X004037Y023332D03*
X004037Y023832D03*
X012895Y016757D03*
X012502Y016257D03*
X012502Y015757D03*
X012895Y015257D03*
X012502Y014757D03*
X012502Y014257D03*
X012895Y013757D03*
X020966Y014257D03*
X020966Y014757D03*
X021360Y015257D03*
X020966Y015757D03*
X020966Y016257D03*
X021360Y016757D03*
X021360Y013757D03*
X029234Y014257D03*
X029234Y014757D03*
X029628Y015257D03*
X029234Y015757D03*
X029234Y016257D03*
X029628Y016757D03*
X029628Y013757D03*
X037698Y014257D03*
X037698Y014757D03*
X038092Y015257D03*
X037698Y015757D03*
X037698Y016257D03*
X038092Y016757D03*
X038092Y013757D03*
D13*
X008080Y013698D03*
X007080Y013698D03*
X007080Y012698D03*
X008080Y012698D03*
X008080Y011698D03*
X007080Y011698D03*
X003750Y006431D03*
X002750Y006431D03*
X002750Y005431D03*
X003750Y005431D03*
X003750Y004431D03*
X002750Y004431D03*
X002750Y003431D03*
X003750Y003431D03*
X003750Y002431D03*
X002750Y002431D03*
X007277Y004372D03*
X008277Y004372D03*
X008277Y005372D03*
X007277Y005372D03*
X007277Y006372D03*
X008277Y006372D03*
D14*
X006576Y014431D03*
X006320Y014982D03*
X008387Y021045D03*
X012659Y023112D03*
X012659Y023387D03*
X012935Y023387D03*
X012935Y023112D03*
X013210Y023112D03*
X013210Y023387D03*
X013210Y023663D03*
X012935Y023663D03*
X012659Y023663D03*
X013761Y023663D03*
X013761Y023387D03*
X013761Y023112D03*
X013761Y022836D03*
X014037Y022836D03*
X014037Y023112D03*
X014037Y023387D03*
X014037Y023663D03*
X016104Y023663D03*
X016380Y023663D03*
X016655Y023663D03*
X016655Y023387D03*
X016655Y023112D03*
X016380Y023112D03*
X016380Y023387D03*
X016104Y023387D03*
X016104Y023112D03*
X016104Y022147D03*
X016104Y021872D03*
X016380Y021872D03*
X016380Y022147D03*
X015671Y021320D03*
X018013Y023722D03*
X018604Y023722D03*
X019391Y023722D03*
X020376Y023722D03*
X021320Y023722D03*
X022128Y023722D03*
X022935Y023722D03*
X023722Y023722D03*
X024509Y023722D03*
X025297Y023722D03*
X026084Y023722D03*
X026872Y023722D03*
X027659Y023722D03*
X028446Y023722D03*
X029234Y023722D03*
X030041Y023722D03*
X030809Y023722D03*
X031616Y023722D03*
X032383Y023722D03*
D15*
X000494Y026281D02*
X000494Y000494D01*
X007502Y000494D01*
X008416Y001637D01*
X008307Y001900D01*
X008307Y002237D01*
X008436Y002549D01*
X008675Y002787D01*
X008986Y002916D01*
X009324Y002916D01*
X009378Y002894D01*
X009903Y003643D01*
X009903Y021045D01*
X016931Y021045D01*
X016931Y024116D01*
X012108Y024116D01*
X012108Y026281D01*
X000494Y026281D01*
X000494Y026253D02*
X012108Y026253D01*
X012108Y026094D02*
X004202Y026094D01*
X004159Y026112D02*
X003915Y026112D01*
X003690Y026019D01*
X003517Y025846D01*
X003424Y025621D01*
X003424Y025377D01*
X003517Y025152D01*
X003690Y024979D01*
X003915Y024886D01*
X004159Y024886D01*
X004384Y024979D01*
X004557Y025152D01*
X004650Y025377D01*
X004650Y025621D01*
X004557Y025846D01*
X004384Y026019D01*
X004159Y026112D01*
X003872Y026094D02*
X000494Y026094D01*
X000494Y025936D02*
X003607Y025936D01*
X003489Y025777D02*
X000494Y025777D01*
X000494Y025619D02*
X003424Y025619D01*
X003424Y025460D02*
X000494Y025460D01*
X000494Y025302D02*
X003455Y025302D01*
X003526Y025143D02*
X000494Y025143D01*
X000494Y024985D02*
X003684Y024985D01*
X004390Y024985D02*
X008434Y024985D01*
X008436Y024990D02*
X008307Y024678D01*
X008307Y024341D01*
X008436Y024029D01*
X008675Y023791D01*
X008986Y023662D01*
X009324Y023662D01*
X009635Y023791D01*
X009874Y024029D01*
X010003Y024341D01*
X010003Y024678D01*
X009874Y024990D01*
X009635Y025228D01*
X009324Y025357D01*
X008986Y025357D01*
X008675Y025228D01*
X008436Y024990D01*
X008369Y024826D02*
X000494Y024826D01*
X000494Y024668D02*
X008307Y024668D01*
X008307Y024509D02*
X000494Y024509D01*
X000494Y024351D02*
X008307Y024351D01*
X008369Y024192D02*
X000494Y024192D01*
X000494Y024034D02*
X003749Y024034D01*
X003744Y024028D02*
X003691Y023901D01*
X003691Y023764D01*
X003744Y023636D01*
X003798Y023582D01*
X003744Y023528D01*
X003691Y023401D01*
X003691Y023264D01*
X003744Y023136D01*
X003798Y023082D01*
X003744Y023028D01*
X003691Y022901D01*
X003691Y022764D01*
X003744Y022636D01*
X003798Y022582D01*
X003744Y022528D01*
X003691Y022401D01*
X003691Y022264D01*
X003744Y022136D01*
X003798Y022082D01*
X003744Y022028D01*
X003691Y021901D01*
X003691Y021764D01*
X003744Y021636D01*
X003798Y021582D01*
X003744Y021528D01*
X003691Y021401D01*
X003691Y021264D01*
X003744Y021136D01*
X003798Y021082D01*
X003744Y021028D01*
X003691Y020901D01*
X003691Y020764D01*
X003744Y020636D01*
X003798Y020582D01*
X003744Y020528D01*
X003691Y020401D01*
X003691Y020264D01*
X003744Y020136D01*
X003798Y020082D01*
X003744Y020028D01*
X003691Y019901D01*
X003691Y019764D01*
X003744Y019636D01*
X003798Y019582D01*
X003744Y019528D01*
X003691Y019401D01*
X003691Y019264D01*
X003744Y019136D01*
X003798Y019082D01*
X003744Y019028D01*
X003691Y018901D01*
X003691Y018764D01*
X003744Y018636D01*
X003798Y018582D01*
X003744Y018528D01*
X003691Y018401D01*
X003691Y018264D01*
X003744Y018136D01*
X003769Y018111D01*
X003737Y018079D01*
X003694Y018015D01*
X003665Y017945D01*
X003650Y017870D01*
X003650Y017832D01*
X003650Y017794D01*
X003665Y017719D01*
X003694Y017649D01*
X003737Y017586D01*
X003740Y017582D01*
X003737Y017579D01*
X003694Y017515D01*
X003665Y017445D01*
X003650Y017370D01*
X003650Y017332D01*
X003650Y017294D01*
X003665Y017219D01*
X003694Y017149D01*
X003737Y017086D01*
X003740Y017082D01*
X003737Y017079D01*
X003694Y017015D01*
X003665Y016945D01*
X003650Y016870D01*
X003650Y016832D01*
X003650Y016794D01*
X003665Y016719D01*
X003694Y016649D01*
X003737Y016586D01*
X003791Y016532D01*
X003854Y016490D01*
X003924Y016460D01*
X003999Y016446D01*
X004037Y016446D01*
X004075Y016446D01*
X004150Y016460D01*
X004220Y016490D01*
X004284Y016532D01*
X004337Y016586D01*
X004380Y016649D01*
X004409Y016719D01*
X004424Y016794D01*
X004424Y016832D01*
X004037Y016832D01*
X004037Y016446D01*
X004037Y016832D01*
X004037Y016832D01*
X004037Y016832D01*
X003650Y016832D01*
X004037Y016832D01*
X004037Y016832D01*
X004424Y016832D01*
X004424Y016870D01*
X004409Y016945D01*
X004380Y017015D01*
X004337Y017079D01*
X004334Y017082D01*
X004337Y017086D01*
X004380Y017149D01*
X004409Y017219D01*
X004424Y017294D01*
X004424Y017332D01*
X004037Y017332D01*
X004037Y016946D01*
X004037Y016832D01*
X004037Y017332D01*
X004037Y017332D01*
X004037Y017332D01*
X003650Y017332D01*
X004037Y017332D01*
X004037Y017332D01*
X004424Y017332D01*
X004424Y017370D01*
X004409Y017445D01*
X004380Y017515D01*
X004337Y017579D01*
X004334Y017582D01*
X004337Y017586D01*
X004380Y017649D01*
X004409Y017719D01*
X004424Y017794D01*
X004424Y017832D01*
X004037Y017832D01*
X004037Y017446D01*
X004037Y017332D01*
X004037Y017832D01*
X004037Y017832D01*
X004037Y017832D01*
X003650Y017832D01*
X004037Y017832D01*
X004037Y017832D01*
X004424Y017832D01*
X004424Y017870D01*
X004409Y017945D01*
X004380Y018015D01*
X004337Y018079D01*
X004305Y018111D01*
X004330Y018136D01*
X004383Y018264D01*
X004383Y018401D01*
X004330Y018528D01*
X004276Y018582D01*
X004330Y018636D01*
X004383Y018764D01*
X004383Y018901D01*
X004330Y019028D01*
X004276Y019082D01*
X004330Y019136D01*
X004383Y019264D01*
X004383Y019401D01*
X004330Y019528D01*
X004276Y019582D01*
X004330Y019636D01*
X004383Y019764D01*
X004383Y019901D01*
X004330Y020028D01*
X004276Y020082D01*
X004330Y020136D01*
X004383Y020264D01*
X004383Y020401D01*
X004330Y020528D01*
X004276Y020582D01*
X004330Y020636D01*
X004383Y020764D01*
X004383Y020901D01*
X004330Y021028D01*
X004276Y021082D01*
X004330Y021136D01*
X004383Y021264D01*
X004383Y021401D01*
X004330Y021528D01*
X004276Y021582D01*
X004330Y021636D01*
X004383Y021764D01*
X004383Y021901D01*
X004330Y022028D01*
X004276Y022082D01*
X004330Y022136D01*
X004383Y022264D01*
X004383Y022401D01*
X004330Y022528D01*
X004276Y022582D01*
X004330Y022636D01*
X004383Y022764D01*
X004383Y022901D01*
X004330Y023028D01*
X004276Y023082D01*
X004330Y023136D01*
X004383Y023264D01*
X004383Y023401D01*
X004330Y023528D01*
X004276Y023582D01*
X004330Y023636D01*
X004383Y023764D01*
X004383Y023901D01*
X004330Y024028D01*
X004233Y024125D01*
X004106Y024178D01*
X003968Y024178D01*
X003841Y024125D01*
X003744Y024028D01*
X003691Y023875D02*
X000494Y023875D01*
X000494Y023717D02*
X003711Y023717D01*
X003774Y023558D02*
X000494Y023558D01*
X000494Y023400D02*
X003691Y023400D01*
X003701Y023241D02*
X000494Y023241D01*
X000494Y023083D02*
X003798Y023083D01*
X003701Y022924D02*
X000494Y022924D01*
X000494Y022766D02*
X003691Y022766D01*
X003773Y022607D02*
X000494Y022607D01*
X000494Y022449D02*
X003711Y022449D01*
X003691Y022290D02*
X000494Y022290D01*
X000494Y022132D02*
X003749Y022132D01*
X003721Y021973D02*
X000494Y021973D01*
X000494Y021815D02*
X003691Y021815D01*
X003736Y021656D02*
X000494Y021656D01*
X000494Y021498D02*
X003731Y021498D01*
X003691Y021339D02*
X000494Y021339D01*
X000494Y021181D02*
X003726Y021181D01*
X003741Y021022D02*
X000494Y021022D01*
X000494Y020864D02*
X003691Y020864D01*
X003715Y020705D02*
X000494Y020705D01*
X000494Y020547D02*
X003762Y020547D01*
X003691Y020388D02*
X000494Y020388D01*
X000494Y020230D02*
X003705Y020230D01*
X003787Y020071D02*
X000494Y020071D01*
X000494Y019913D02*
X003696Y019913D01*
X003695Y019754D02*
X000494Y019754D01*
X000494Y019596D02*
X003785Y019596D01*
X003706Y019437D02*
X000494Y019437D01*
X000494Y019279D02*
X003691Y019279D01*
X003760Y019120D02*
X000494Y019120D01*
X000494Y018962D02*
X003716Y018962D01*
X003691Y018803D02*
X000494Y018803D01*
X000494Y018645D02*
X003741Y018645D01*
X003726Y018486D02*
X000494Y018486D01*
X000494Y018328D02*
X003691Y018328D01*
X003730Y018169D02*
X000494Y018169D01*
X000494Y018011D02*
X003692Y018011D01*
X003650Y017852D02*
X000494Y017852D01*
X000494Y017694D02*
X003676Y017694D01*
X003707Y017535D02*
X000494Y017535D01*
X000494Y017377D02*
X003652Y017377D01*
X003666Y017218D02*
X000494Y017218D01*
X000494Y017060D02*
X003724Y017060D01*
X003656Y016901D02*
X000494Y016901D01*
X000494Y016743D02*
X003661Y016743D01*
X003738Y016584D02*
X000494Y016584D01*
X000494Y016426D02*
X009903Y016426D01*
X009903Y016584D02*
X004336Y016584D01*
X004413Y016743D02*
X009903Y016743D01*
X009903Y016901D02*
X004418Y016901D01*
X004350Y017060D02*
X009903Y017060D01*
X009903Y017218D02*
X004408Y017218D01*
X004422Y017377D02*
X009903Y017377D01*
X009903Y017535D02*
X004367Y017535D01*
X004398Y017694D02*
X009903Y017694D01*
X009903Y017852D02*
X004424Y017852D01*
X004382Y018011D02*
X009903Y018011D01*
X009903Y018169D02*
X004344Y018169D01*
X004383Y018328D02*
X009903Y018328D01*
X009903Y018486D02*
X004348Y018486D01*
X004333Y018645D02*
X009903Y018645D01*
X009903Y018803D02*
X004383Y018803D01*
X004358Y018962D02*
X009903Y018962D01*
X009903Y019120D02*
X004314Y019120D01*
X004383Y019279D02*
X009903Y019279D01*
X009903Y019437D02*
X004368Y019437D01*
X004289Y019596D02*
X009903Y019596D01*
X009903Y019754D02*
X004379Y019754D01*
X004378Y019913D02*
X009903Y019913D01*
X009903Y020071D02*
X004287Y020071D01*
X004369Y020230D02*
X009903Y020230D01*
X009903Y020388D02*
X004383Y020388D01*
X004312Y020547D02*
X009903Y020547D01*
X009903Y020705D02*
X004359Y020705D01*
X004383Y020864D02*
X008219Y020864D01*
X008247Y020835D02*
X008338Y020798D01*
X008437Y020798D01*
X008527Y020835D01*
X008597Y020905D01*
X008635Y020996D01*
X008635Y021094D01*
X008597Y021185D01*
X008527Y021255D01*
X008437Y021292D01*
X008338Y021292D01*
X008247Y021255D01*
X008178Y021185D01*
X008140Y021094D01*
X008140Y020996D01*
X008178Y020905D01*
X008247Y020835D01*
X008140Y021022D02*
X004333Y021022D01*
X004348Y021181D02*
X008176Y021181D01*
X008599Y021181D02*
X015461Y021181D01*
X015461Y021180D02*
X015531Y021111D01*
X015622Y021073D01*
X015720Y021073D01*
X015811Y021111D01*
X015881Y021180D01*
X015918Y021271D01*
X015918Y021370D01*
X015881Y021461D01*
X015811Y021530D01*
X015720Y021568D01*
X015622Y021568D01*
X015531Y021530D01*
X015461Y021461D01*
X015424Y021370D01*
X015424Y021271D01*
X015461Y021180D01*
X015424Y021339D02*
X004383Y021339D01*
X004343Y021498D02*
X015498Y021498D01*
X015844Y021498D02*
X016931Y021498D01*
X016931Y021656D02*
X016505Y021656D01*
X016520Y021662D02*
X016589Y021732D01*
X016627Y021822D01*
X016627Y021921D01*
X016590Y022009D01*
X016627Y022098D01*
X016627Y022196D01*
X016589Y022287D01*
X016520Y022357D01*
X016429Y022395D01*
X016330Y022395D01*
X016242Y022358D01*
X016153Y022395D01*
X016055Y022395D01*
X015964Y022357D01*
X015894Y022287D01*
X015857Y022196D01*
X015857Y022098D01*
X015893Y022009D01*
X015857Y021921D01*
X015857Y021822D01*
X015894Y021732D01*
X015964Y021662D01*
X016055Y021624D01*
X016153Y021624D01*
X016242Y021661D01*
X016330Y021624D01*
X016429Y021624D01*
X016520Y021662D01*
X016624Y021815D02*
X016931Y021815D01*
X016931Y021973D02*
X016605Y021973D01*
X016627Y022132D02*
X016931Y022132D01*
X016931Y022290D02*
X016587Y022290D01*
X016931Y022449D02*
X004363Y022449D01*
X004383Y022290D02*
X015897Y022290D01*
X015857Y022132D02*
X004325Y022132D01*
X004353Y021973D02*
X015878Y021973D01*
X015860Y021815D02*
X004383Y021815D01*
X004338Y021656D02*
X015978Y021656D01*
X016230Y021656D02*
X016254Y021656D01*
X015918Y021339D02*
X016931Y021339D01*
X016931Y021181D02*
X015881Y021181D01*
X017521Y021181D02*
X043210Y021181D01*
X043210Y021339D02*
X017521Y021339D01*
X017521Y021498D02*
X043210Y021498D01*
X043210Y021656D02*
X017521Y021656D01*
X017521Y021815D02*
X043210Y021815D01*
X043210Y021973D02*
X017521Y021973D01*
X017521Y022132D02*
X043210Y022132D01*
X043210Y022290D02*
X017521Y022290D01*
X017521Y022449D02*
X043210Y022449D01*
X043210Y022607D02*
X017521Y022607D01*
X017521Y022766D02*
X043210Y022766D01*
X043210Y022924D02*
X017521Y022924D01*
X017521Y023083D02*
X043210Y023083D01*
X043210Y023241D02*
X017521Y023241D01*
X017521Y023400D02*
X043210Y023400D01*
X043210Y023558D02*
X017521Y023558D01*
X017521Y023717D02*
X043210Y023717D01*
X043210Y023875D02*
X041450Y023875D01*
X041410Y023859D02*
X041722Y023988D01*
X041960Y024226D01*
X042089Y024538D01*
X042089Y024875D01*
X041960Y025186D01*
X041722Y025425D01*
X041410Y025554D01*
X041073Y025554D01*
X040762Y025425D01*
X040523Y025186D01*
X040394Y024875D01*
X040394Y024538D01*
X040523Y024226D01*
X040762Y023988D01*
X041073Y023859D01*
X041410Y023859D01*
X041033Y023875D02*
X017521Y023875D01*
X017521Y024034D02*
X040716Y024034D01*
X040557Y024192D02*
X033584Y024192D01*
X033584Y024116D02*
X033584Y026281D01*
X043210Y026281D01*
X043210Y002856D01*
X041556Y002856D01*
X041410Y002916D01*
X041073Y002916D01*
X040928Y002856D01*
X016556Y002856D01*
X016410Y002916D01*
X016073Y002916D01*
X015928Y002856D01*
X010494Y002856D01*
X010494Y020592D01*
X017521Y020592D01*
X017521Y024116D01*
X033584Y024116D01*
X033584Y024351D02*
X040472Y024351D01*
X040406Y024509D02*
X033584Y024509D01*
X033584Y024668D02*
X040394Y024668D01*
X040394Y024826D02*
X033584Y024826D01*
X033584Y024985D02*
X040439Y024985D01*
X040505Y025143D02*
X033584Y025143D01*
X033584Y025302D02*
X040638Y025302D01*
X040846Y025460D02*
X033584Y025460D01*
X033584Y025619D02*
X043210Y025619D01*
X043210Y025777D02*
X033584Y025777D01*
X033584Y025936D02*
X043210Y025936D01*
X043210Y026094D02*
X033584Y026094D01*
X033584Y026253D02*
X043210Y026253D01*
X043210Y025460D02*
X041637Y025460D01*
X041845Y025302D02*
X043210Y025302D01*
X043210Y025143D02*
X041978Y025143D01*
X042044Y024985D02*
X043210Y024985D01*
X043210Y024826D02*
X042089Y024826D01*
X042089Y024668D02*
X043210Y024668D01*
X043210Y024509D02*
X042078Y024509D01*
X042012Y024351D02*
X043210Y024351D01*
X043210Y024192D02*
X041926Y024192D01*
X041768Y024034D02*
X043210Y024034D01*
X043210Y021022D02*
X017521Y021022D01*
X017521Y020864D02*
X043210Y020864D01*
X043210Y020705D02*
X017521Y020705D01*
X016931Y022607D02*
X014130Y022607D01*
X014086Y022589D02*
X014177Y022627D01*
X014247Y022696D01*
X014284Y022787D01*
X014284Y022885D01*
X014248Y022974D01*
X014284Y023063D01*
X014284Y023161D01*
X014248Y023250D01*
X014284Y023338D01*
X014284Y023437D01*
X014248Y023525D01*
X014284Y023614D01*
X014284Y023712D01*
X014247Y023803D01*
X014177Y023873D01*
X014086Y023910D01*
X013988Y023910D01*
X013899Y023874D01*
X013811Y023910D01*
X013712Y023910D01*
X013621Y023873D01*
X013552Y023803D01*
X013514Y023712D01*
X013514Y023614D01*
X013551Y023525D01*
X013514Y023437D01*
X013514Y023338D01*
X013551Y023250D01*
X013514Y023161D01*
X013514Y023063D01*
X013551Y022974D01*
X013514Y022885D01*
X013514Y022787D01*
X013552Y022696D01*
X013621Y022627D01*
X013712Y022589D01*
X013811Y022589D01*
X013899Y022626D01*
X013988Y022589D01*
X014086Y022589D01*
X013944Y022607D02*
X013854Y022607D01*
X013668Y022607D02*
X004301Y022607D01*
X004383Y022766D02*
X013523Y022766D01*
X013530Y022924D02*
X013372Y022924D01*
X013350Y022902D02*
X013420Y022972D01*
X013458Y023063D01*
X013458Y023161D01*
X013421Y023250D01*
X013458Y023338D01*
X013458Y023437D01*
X013421Y023525D01*
X013458Y023614D01*
X013458Y023712D01*
X013420Y023803D01*
X013350Y023873D01*
X013259Y023910D01*
X013161Y023910D01*
X013072Y023874D01*
X012984Y023910D01*
X012885Y023910D01*
X012797Y023874D01*
X012708Y023910D01*
X012610Y023910D01*
X012519Y023873D01*
X012449Y023803D01*
X012412Y023712D01*
X012412Y023614D01*
X012448Y023525D01*
X012412Y023437D01*
X012412Y023338D01*
X012448Y023250D01*
X012412Y023161D01*
X012412Y023063D01*
X012449Y022972D01*
X012519Y022902D01*
X012610Y022864D01*
X012708Y022864D01*
X012797Y022901D01*
X012885Y022864D01*
X012984Y022864D01*
X013072Y022901D01*
X013161Y022864D01*
X013259Y022864D01*
X013350Y022902D01*
X013458Y023083D02*
X013514Y023083D01*
X013547Y023241D02*
X013424Y023241D01*
X013458Y023400D02*
X013514Y023400D01*
X013537Y023558D02*
X013434Y023558D01*
X013456Y023717D02*
X013516Y023717D01*
X013627Y023875D02*
X013345Y023875D01*
X013076Y023875D02*
X013069Y023875D01*
X012800Y023875D02*
X012793Y023875D01*
X012525Y023875D02*
X009720Y023875D01*
X009876Y024034D02*
X016931Y024034D01*
X016931Y023875D02*
X014171Y023875D01*
X014283Y023717D02*
X016931Y023717D01*
X016931Y023558D02*
X014261Y023558D01*
X014284Y023400D02*
X016931Y023400D01*
X016931Y023241D02*
X014251Y023241D01*
X014284Y023083D02*
X016931Y023083D01*
X016931Y022924D02*
X014268Y022924D01*
X014275Y022766D02*
X016931Y022766D01*
X013903Y023875D02*
X013896Y023875D01*
X012414Y023717D02*
X009456Y023717D01*
X008854Y023717D02*
X004363Y023717D01*
X004383Y023875D02*
X008591Y023875D01*
X008435Y024034D02*
X004325Y024034D01*
X004300Y023558D02*
X012435Y023558D01*
X012412Y023400D02*
X004383Y023400D01*
X004373Y023241D02*
X012445Y023241D01*
X012412Y023083D02*
X004276Y023083D01*
X004373Y022924D02*
X012497Y022924D01*
X012108Y024192D02*
X009941Y024192D01*
X010003Y024351D02*
X012108Y024351D01*
X012108Y024509D02*
X010003Y024509D01*
X010003Y024668D02*
X012108Y024668D01*
X012108Y024826D02*
X009942Y024826D01*
X009876Y024985D02*
X012108Y024985D01*
X012108Y025143D02*
X009720Y025143D01*
X009458Y025302D02*
X012108Y025302D01*
X012108Y025460D02*
X004650Y025460D01*
X004650Y025619D02*
X012108Y025619D01*
X012108Y025777D02*
X004585Y025777D01*
X004467Y025936D02*
X012108Y025936D01*
X008852Y025302D02*
X004619Y025302D01*
X004548Y025143D02*
X008590Y025143D01*
X008635Y021022D02*
X009903Y021022D01*
X009903Y020864D02*
X008556Y020864D01*
X010494Y020547D02*
X043210Y020547D01*
X043210Y020388D02*
X010494Y020388D01*
X010494Y020230D02*
X043210Y020230D01*
X043210Y020071D02*
X010494Y020071D01*
X010494Y019913D02*
X043210Y019913D01*
X043210Y019754D02*
X010494Y019754D01*
X010494Y019596D02*
X043210Y019596D01*
X043210Y019437D02*
X010494Y019437D01*
X010494Y019279D02*
X043210Y019279D01*
X043210Y019120D02*
X010494Y019120D01*
X010494Y018962D02*
X043210Y018962D01*
X043210Y018803D02*
X010494Y018803D01*
X010494Y018645D02*
X043210Y018645D01*
X043210Y018486D02*
X010494Y018486D01*
X010494Y018328D02*
X043210Y018328D01*
X043210Y018169D02*
X038183Y018169D01*
X038155Y018197D02*
X037986Y018267D01*
X037804Y018267D01*
X037636Y018197D01*
X037507Y018068D01*
X037437Y017900D01*
X037437Y017718D01*
X037507Y017549D01*
X037636Y017420D01*
X037804Y017351D01*
X037986Y017351D01*
X038155Y017420D01*
X038284Y017549D01*
X038353Y017718D01*
X038353Y017900D01*
X038284Y018068D01*
X038155Y018197D01*
X038307Y018011D02*
X043210Y018011D01*
X043210Y017852D02*
X038353Y017852D01*
X038343Y017694D02*
X043210Y017694D01*
X043210Y017535D02*
X038269Y017535D01*
X038049Y017377D02*
X043210Y017377D01*
X043210Y017218D02*
X010494Y017218D01*
X010494Y017060D02*
X012651Y017060D01*
X012649Y017058D02*
X012595Y017004D01*
X012553Y016941D01*
X012523Y016870D01*
X012509Y016796D01*
X012509Y016757D01*
X012509Y016719D01*
X012523Y016645D01*
X012541Y016603D01*
X012433Y016603D01*
X012306Y016551D01*
X012208Y016453D01*
X012156Y016326D01*
X012156Y016189D01*
X012208Y016062D01*
X012263Y016007D01*
X012208Y015953D01*
X012156Y015826D01*
X012156Y015689D01*
X012208Y015562D01*
X012306Y015464D01*
X012433Y015412D01*
X012541Y015412D01*
X012523Y015370D01*
X012509Y015296D01*
X012509Y015257D01*
X012509Y015219D01*
X012523Y015145D01*
X012541Y015103D01*
X012433Y015103D01*
X012306Y015051D01*
X012208Y014953D01*
X012156Y014826D01*
X012156Y014689D01*
X012208Y014562D01*
X012263Y014507D01*
X012208Y014453D01*
X012156Y014326D01*
X012156Y014189D01*
X012208Y014062D01*
X012306Y013964D01*
X012433Y013912D01*
X012541Y013912D01*
X012523Y013870D01*
X012509Y013796D01*
X012509Y013757D01*
X012509Y013719D01*
X012523Y013645D01*
X012553Y013574D01*
X012595Y013511D01*
X012649Y013457D01*
X012712Y013415D01*
X012782Y013386D01*
X012857Y013371D01*
X012895Y013371D01*
X012895Y013757D01*
X012895Y013757D01*
X012509Y013757D01*
X012895Y013757D01*
X012895Y013757D01*
X012895Y013371D01*
X012933Y013371D01*
X013008Y013386D01*
X013078Y013415D01*
X013142Y013457D01*
X013196Y013511D01*
X013238Y013574D01*
X013267Y013645D01*
X013282Y013719D01*
X013282Y013757D01*
X012895Y013757D01*
X012895Y013757D01*
X012895Y014144D01*
X012857Y014144D01*
X012826Y014138D01*
X012847Y014189D01*
X012847Y014326D01*
X012795Y014453D01*
X012741Y014507D01*
X012795Y014562D01*
X012847Y014689D01*
X012847Y014826D01*
X012826Y014877D01*
X012857Y014871D01*
X012895Y014871D01*
X012895Y015257D01*
X012895Y015257D01*
X012509Y015257D01*
X012895Y015257D01*
X012895Y015257D01*
X012895Y014871D01*
X012933Y014871D01*
X013008Y014886D01*
X013078Y014915D01*
X013142Y014957D01*
X013196Y015011D01*
X013238Y015074D01*
X013267Y015145D01*
X013282Y015219D01*
X013282Y015257D01*
X012895Y015257D01*
X012895Y015257D01*
X012895Y015644D01*
X012857Y015644D01*
X012826Y015638D01*
X012847Y015689D01*
X012847Y015826D01*
X012795Y015953D01*
X012741Y016007D01*
X012795Y016062D01*
X012847Y016189D01*
X012847Y016326D01*
X012826Y016377D01*
X012857Y016371D01*
X012895Y016371D01*
X012895Y016757D01*
X012895Y016757D01*
X012509Y016757D01*
X012895Y016757D01*
X012895Y016757D01*
X012895Y016371D01*
X012933Y016371D01*
X013008Y016386D01*
X013078Y016415D01*
X013142Y016457D01*
X013196Y016511D01*
X013238Y016574D01*
X013267Y016645D01*
X013282Y016719D01*
X013282Y016757D01*
X012895Y016757D01*
X012895Y016757D01*
X012895Y017144D01*
X012857Y017144D01*
X012782Y017129D01*
X012712Y017100D01*
X012649Y017058D01*
X012536Y016901D02*
X010494Y016901D01*
X010494Y016743D02*
X012509Y016743D01*
X012386Y016584D02*
X010494Y016584D01*
X010494Y016426D02*
X012197Y016426D01*
X012156Y016267D02*
X010494Y016267D01*
X010494Y016109D02*
X012189Y016109D01*
X012207Y015950D02*
X010494Y015950D01*
X010494Y015792D02*
X012156Y015792D01*
X012179Y015633D02*
X010494Y015633D01*
X010494Y015475D02*
X012296Y015475D01*
X012513Y015316D02*
X010494Y015316D01*
X010494Y015158D02*
X012521Y015158D01*
X012254Y014999D02*
X010494Y014999D01*
X010494Y014841D02*
X012162Y014841D01*
X012159Y014682D02*
X010494Y014682D01*
X010494Y014524D02*
X012247Y014524D01*
X012172Y014365D02*
X010494Y014365D01*
X010494Y014207D02*
X012156Y014207D01*
X012222Y014048D02*
X010494Y014048D01*
X010494Y013890D02*
X012531Y013890D01*
X012509Y013731D02*
X010494Y013731D01*
X010494Y013573D02*
X012554Y013573D01*
X012714Y013414D02*
X010494Y013414D01*
X010494Y013256D02*
X043210Y013256D01*
X043210Y013414D02*
X038273Y013414D01*
X038275Y013415D02*
X038339Y013457D01*
X038392Y013511D01*
X038435Y013574D01*
X038464Y013645D01*
X038479Y013719D01*
X038479Y013757D01*
X038092Y013757D01*
X038092Y013757D01*
X038092Y013371D01*
X038054Y013371D01*
X037979Y013386D01*
X037909Y013415D01*
X037846Y013457D01*
X037792Y013511D01*
X037749Y013574D01*
X037720Y013645D01*
X037705Y013719D01*
X037705Y013757D01*
X038092Y013757D01*
X038092Y013371D01*
X038130Y013371D01*
X038205Y013386D01*
X038275Y013415D01*
X038092Y013414D02*
X038092Y013414D01*
X038092Y013573D02*
X038092Y013573D01*
X038092Y013731D02*
X038092Y013731D01*
X038092Y013757D02*
X038092Y013757D01*
X038092Y013757D01*
X037705Y013757D01*
X037705Y013796D01*
X037720Y013870D01*
X037737Y013912D01*
X037630Y013912D01*
X037503Y013964D01*
X037405Y014062D01*
X037353Y014189D01*
X037353Y014326D01*
X037405Y014453D01*
X037459Y014507D01*
X037405Y014562D01*
X037353Y014689D01*
X037353Y014826D01*
X037405Y014953D01*
X037503Y015051D01*
X037630Y015103D01*
X037737Y015103D01*
X037720Y015145D01*
X037705Y015219D01*
X037705Y015257D01*
X038092Y015257D01*
X038092Y015257D01*
X038092Y014871D01*
X038054Y014871D01*
X038023Y014877D01*
X038044Y014826D01*
X038044Y014689D01*
X037992Y014562D01*
X037937Y014507D01*
X037992Y014453D01*
X038044Y014326D01*
X038044Y014189D01*
X038023Y014138D01*
X038054Y014144D01*
X038092Y014144D01*
X038092Y013757D01*
X038479Y013757D01*
X038479Y013796D01*
X038464Y013870D01*
X038435Y013941D01*
X038392Y014004D01*
X038339Y014058D01*
X038275Y014100D01*
X038205Y014129D01*
X038130Y014144D01*
X038092Y014144D01*
X038092Y013757D01*
X038092Y013757D01*
X038092Y013890D02*
X038092Y013890D01*
X038092Y014048D02*
X038092Y014048D01*
X038044Y014207D02*
X043210Y014207D01*
X043210Y014365D02*
X038028Y014365D01*
X037953Y014524D02*
X043210Y014524D01*
X043210Y014682D02*
X038041Y014682D01*
X038038Y014841D02*
X043210Y014841D01*
X043210Y014999D02*
X038381Y014999D01*
X038392Y015011D02*
X038435Y015074D01*
X038464Y015145D01*
X038479Y015219D01*
X038479Y015257D01*
X038092Y015257D01*
X038092Y014871D01*
X038130Y014871D01*
X038205Y014886D01*
X038275Y014915D01*
X038339Y014957D01*
X038392Y015011D01*
X038467Y015158D02*
X043210Y015158D01*
X043210Y015316D02*
X038475Y015316D01*
X038479Y015296D02*
X038464Y015370D01*
X038435Y015441D01*
X038392Y015504D01*
X038339Y015558D01*
X038275Y015600D01*
X038205Y015629D01*
X038130Y015644D01*
X038092Y015644D01*
X038054Y015644D01*
X038023Y015638D01*
X038044Y015689D01*
X038044Y015826D01*
X037992Y015953D01*
X037937Y016007D01*
X037992Y016062D01*
X038044Y016189D01*
X038044Y016326D01*
X038023Y016377D01*
X038054Y016371D01*
X038092Y016371D01*
X038092Y016757D01*
X038092Y016757D01*
X038092Y016371D01*
X038130Y016371D01*
X038205Y016386D01*
X038275Y016415D01*
X038339Y016457D01*
X038392Y016511D01*
X038435Y016574D01*
X038464Y016645D01*
X038479Y016719D01*
X038479Y016757D01*
X038092Y016757D01*
X037705Y016757D01*
X037705Y016719D01*
X037720Y016645D01*
X037737Y016603D01*
X037630Y016603D01*
X037503Y016551D01*
X037405Y016453D01*
X037353Y016326D01*
X037353Y016189D01*
X037405Y016062D01*
X037459Y016007D01*
X037405Y015953D01*
X037353Y015826D01*
X037353Y015689D01*
X037405Y015562D01*
X037503Y015464D01*
X037630Y015412D01*
X037737Y015412D01*
X037720Y015370D01*
X037705Y015296D01*
X037705Y015257D01*
X038092Y015257D01*
X038092Y015257D01*
X038092Y015257D01*
X038479Y015257D01*
X038479Y015296D01*
X038412Y015475D02*
X043210Y015475D01*
X043210Y015633D02*
X038186Y015633D01*
X038092Y015633D02*
X038092Y015633D01*
X038092Y015644D02*
X038092Y015257D01*
X038092Y015257D01*
X038092Y015644D01*
X038044Y015792D02*
X043210Y015792D01*
X043210Y015950D02*
X037993Y015950D01*
X038011Y016109D02*
X043210Y016109D01*
X043210Y016267D02*
X038044Y016267D01*
X038092Y016426D02*
X038092Y016426D01*
X038092Y016584D02*
X038092Y016584D01*
X038092Y016743D02*
X038092Y016743D01*
X038092Y016757D02*
X038092Y016757D01*
X038092Y016757D01*
X037705Y016757D01*
X037705Y016796D01*
X037720Y016870D01*
X037749Y016941D01*
X037792Y017004D01*
X037846Y017058D01*
X037909Y017100D01*
X037979Y017129D01*
X038054Y017144D01*
X038092Y017144D01*
X038092Y016757D01*
X038479Y016757D01*
X038479Y016796D01*
X038464Y016870D01*
X038435Y016941D01*
X038392Y017004D01*
X038339Y017058D01*
X038275Y017100D01*
X038205Y017129D01*
X038130Y017144D01*
X038092Y017144D01*
X038092Y016757D01*
X038092Y016757D01*
X038092Y016901D02*
X038092Y016901D01*
X038092Y017060D02*
X038092Y017060D01*
X037848Y017060D02*
X029872Y017060D01*
X029874Y017058D02*
X029811Y017100D01*
X029740Y017129D01*
X029666Y017144D01*
X029628Y017144D01*
X029628Y016757D01*
X029628Y016757D01*
X030014Y016757D01*
X030014Y016719D01*
X029999Y016645D01*
X029970Y016574D01*
X029928Y016511D01*
X029874Y016457D01*
X029811Y016415D01*
X029740Y016386D01*
X029666Y016371D01*
X029628Y016371D01*
X029628Y016757D01*
X029628Y016757D01*
X030014Y016757D01*
X030014Y016796D01*
X029999Y016870D01*
X029970Y016941D01*
X029928Y017004D01*
X029874Y017058D01*
X029987Y016901D02*
X037733Y016901D01*
X037705Y016743D02*
X030014Y016743D01*
X029974Y016584D02*
X037583Y016584D01*
X037394Y016426D02*
X029827Y016426D01*
X029628Y016426D02*
X029628Y016426D01*
X029628Y016371D02*
X029628Y016757D01*
X029241Y016757D01*
X029241Y016719D01*
X029256Y016645D01*
X029273Y016603D01*
X029165Y016603D01*
X029038Y016551D01*
X028941Y016453D01*
X028888Y016326D01*
X028888Y016189D01*
X028941Y016062D01*
X028995Y016007D01*
X028941Y015953D01*
X028888Y015826D01*
X028888Y015689D01*
X028941Y015562D01*
X029038Y015464D01*
X029165Y015412D01*
X029273Y015412D01*
X029256Y015370D01*
X029241Y015296D01*
X029241Y015257D01*
X029241Y015219D01*
X029256Y015145D01*
X029273Y015103D01*
X029165Y015103D01*
X029038Y015051D01*
X028941Y014953D01*
X028888Y014826D01*
X028888Y014689D01*
X028941Y014562D01*
X028995Y014507D01*
X028941Y014453D01*
X028888Y014326D01*
X028888Y014189D01*
X028941Y014062D01*
X029038Y013964D01*
X029165Y013912D01*
X029273Y013912D01*
X029256Y013870D01*
X029241Y013796D01*
X029241Y013757D01*
X029241Y013719D01*
X029256Y013645D01*
X029285Y013574D01*
X029327Y013511D01*
X029381Y013457D01*
X029444Y013415D01*
X029515Y013386D01*
X029589Y013371D01*
X029628Y013371D01*
X029666Y013371D01*
X029740Y013386D01*
X029811Y013415D01*
X029874Y013457D01*
X029928Y013511D01*
X029970Y013574D01*
X029999Y013645D01*
X030014Y013719D01*
X030014Y013757D01*
X029628Y013757D01*
X029628Y013757D01*
X029628Y013371D01*
X029628Y013757D01*
X029628Y013757D01*
X030014Y013757D01*
X030014Y013796D01*
X029999Y013870D01*
X029970Y013941D01*
X029928Y014004D01*
X029874Y014058D01*
X029811Y014100D01*
X029740Y014129D01*
X029666Y014144D01*
X029628Y014144D01*
X029628Y013757D01*
X029241Y013757D01*
X029628Y013757D01*
X029628Y013757D01*
X029628Y013757D01*
X029628Y014144D01*
X029589Y014144D01*
X029559Y014138D01*
X029580Y014189D01*
X029580Y014326D01*
X029527Y014453D01*
X029473Y014507D01*
X029527Y014562D01*
X029580Y014689D01*
X029580Y014826D01*
X029559Y014877D01*
X029589Y014871D01*
X029628Y014871D01*
X029666Y014871D01*
X029740Y014886D01*
X029811Y014915D01*
X029874Y014957D01*
X029928Y015011D01*
X029970Y015074D01*
X029999Y015145D01*
X030014Y015219D01*
X030014Y015257D01*
X029628Y015257D01*
X029628Y015257D01*
X029628Y014871D01*
X029628Y015257D01*
X029628Y015257D01*
X030014Y015257D01*
X030014Y015296D01*
X029999Y015370D01*
X029970Y015441D01*
X029928Y015504D01*
X029874Y015558D01*
X029811Y015600D01*
X029740Y015629D01*
X029666Y015644D01*
X029628Y015644D01*
X029628Y015257D01*
X029241Y015257D01*
X029628Y015257D01*
X029628Y015257D01*
X029628Y015257D01*
X029628Y015644D01*
X029589Y015644D01*
X029559Y015638D01*
X029580Y015689D01*
X029580Y015826D01*
X029527Y015953D01*
X029473Y016007D01*
X029527Y016062D01*
X029580Y016189D01*
X029580Y016326D01*
X029559Y016377D01*
X029589Y016371D01*
X029628Y016371D01*
X029580Y016267D02*
X037353Y016267D01*
X037386Y016109D02*
X029546Y016109D01*
X029528Y015950D02*
X037404Y015950D01*
X037353Y015792D02*
X029580Y015792D01*
X029628Y015633D02*
X029628Y015633D01*
X029722Y015633D02*
X037376Y015633D01*
X037492Y015475D02*
X029948Y015475D01*
X030010Y015316D02*
X037710Y015316D01*
X037718Y015158D02*
X030002Y015158D01*
X029916Y014999D02*
X037451Y014999D01*
X037359Y014841D02*
X029574Y014841D01*
X029577Y014682D02*
X037355Y014682D01*
X037443Y014524D02*
X029489Y014524D01*
X029564Y014365D02*
X037369Y014365D01*
X037353Y014207D02*
X029580Y014207D01*
X029628Y014048D02*
X029628Y014048D01*
X029628Y013890D02*
X029628Y013890D01*
X029628Y013731D02*
X029628Y013731D01*
X029628Y013573D02*
X029628Y013573D01*
X029628Y013414D02*
X029628Y013414D01*
X029809Y013414D02*
X037911Y013414D01*
X037751Y013573D02*
X029969Y013573D01*
X030014Y013731D02*
X037705Y013731D01*
X037728Y013890D02*
X029991Y013890D01*
X029884Y014048D02*
X037419Y014048D01*
X038348Y014048D02*
X043210Y014048D01*
X043210Y013890D02*
X038456Y013890D01*
X038479Y013731D02*
X043210Y013731D01*
X043210Y013573D02*
X038434Y013573D01*
X038155Y013095D02*
X037986Y013164D01*
X037804Y013164D01*
X037636Y013095D01*
X037507Y012966D01*
X037437Y012797D01*
X037437Y012615D01*
X037507Y012447D01*
X037636Y012318D01*
X037804Y012248D01*
X037986Y012248D01*
X038155Y012318D01*
X038284Y012447D01*
X038353Y012615D01*
X038353Y012797D01*
X038284Y012966D01*
X038155Y013095D01*
X038149Y013097D02*
X043210Y013097D01*
X043210Y012939D02*
X038295Y012939D01*
X038353Y012780D02*
X043210Y012780D01*
X043210Y012622D02*
X038353Y012622D01*
X038290Y012463D02*
X043210Y012463D01*
X043210Y012305D02*
X038122Y012305D01*
X037669Y012305D02*
X029657Y012305D01*
X029690Y012318D02*
X029522Y012248D01*
X029340Y012248D01*
X029171Y012318D01*
X029042Y012447D01*
X028973Y012615D01*
X028973Y012797D01*
X029042Y012966D01*
X029171Y013095D01*
X029340Y013164D01*
X029522Y013164D01*
X029690Y013095D01*
X029819Y012966D01*
X029889Y012797D01*
X029889Y012615D01*
X029819Y012447D01*
X029690Y012318D01*
X029826Y012463D02*
X037500Y012463D01*
X037437Y012622D02*
X029889Y012622D01*
X029889Y012780D02*
X037437Y012780D01*
X037496Y012939D02*
X029830Y012939D01*
X029684Y013097D02*
X037642Y013097D01*
X038092Y014999D02*
X038092Y014999D01*
X038092Y015158D02*
X038092Y015158D01*
X038092Y015316D02*
X038092Y015316D01*
X038092Y015475D02*
X038092Y015475D01*
X038291Y016426D02*
X043210Y016426D01*
X043210Y016584D02*
X038439Y016584D01*
X038479Y016743D02*
X043210Y016743D01*
X043210Y016901D02*
X038451Y016901D01*
X038336Y017060D02*
X043210Y017060D01*
X037742Y017377D02*
X029584Y017377D01*
X029522Y017351D02*
X029690Y017420D01*
X029819Y017549D01*
X029889Y017718D01*
X029889Y017900D01*
X029819Y018068D01*
X029690Y018197D01*
X029522Y018267D01*
X029340Y018267D01*
X029171Y018197D01*
X029042Y018068D01*
X028973Y017900D01*
X028973Y017718D01*
X029042Y017549D01*
X029171Y017420D01*
X029340Y017351D01*
X029522Y017351D01*
X029589Y017144D02*
X029515Y017129D01*
X029444Y017100D01*
X029381Y017058D01*
X029327Y017004D01*
X029285Y016941D01*
X029256Y016870D01*
X029241Y016796D01*
X029241Y016757D01*
X029628Y016757D01*
X029628Y016757D01*
X029628Y016757D01*
X029628Y017144D01*
X029589Y017144D01*
X029628Y017060D02*
X029628Y017060D01*
X029628Y016901D02*
X029628Y016901D01*
X029628Y016743D02*
X029628Y016743D01*
X029628Y016584D02*
X029628Y016584D01*
X029241Y016743D02*
X021747Y016743D01*
X021747Y016757D02*
X021360Y016757D01*
X021360Y016371D01*
X021398Y016371D01*
X021473Y016386D01*
X021543Y016415D01*
X021606Y016457D01*
X021660Y016511D01*
X021703Y016574D01*
X021732Y016645D01*
X021747Y016719D01*
X021747Y016757D01*
X021747Y016796D01*
X021732Y016870D01*
X021703Y016941D01*
X021660Y017004D01*
X021606Y017058D01*
X021543Y017100D01*
X021473Y017129D01*
X021398Y017144D01*
X021360Y017144D01*
X021360Y016757D01*
X021360Y016757D01*
X021360Y016757D01*
X021360Y016371D01*
X021322Y016371D01*
X021291Y016377D01*
X021312Y016326D01*
X021312Y016189D01*
X021259Y016062D01*
X021205Y016007D01*
X021259Y015953D01*
X021312Y015826D01*
X021312Y015689D01*
X021291Y015638D01*
X021322Y015644D01*
X021360Y015644D01*
X021360Y015257D01*
X021360Y014871D01*
X021398Y014871D01*
X021473Y014886D01*
X021543Y014915D01*
X021606Y014957D01*
X021660Y015011D01*
X021703Y015074D01*
X021732Y015145D01*
X021747Y015219D01*
X021747Y015257D01*
X021360Y015257D01*
X021360Y015257D01*
X021360Y015257D01*
X021360Y014871D01*
X021322Y014871D01*
X021291Y014877D01*
X021312Y014826D01*
X021312Y014689D01*
X021259Y014562D01*
X021205Y014507D01*
X021259Y014453D01*
X021312Y014326D01*
X021312Y014189D01*
X021291Y014138D01*
X021322Y014144D01*
X021360Y014144D01*
X021398Y014144D01*
X021473Y014129D01*
X021543Y014100D01*
X021606Y014058D01*
X021660Y014004D01*
X021703Y013941D01*
X021732Y013870D01*
X021747Y013796D01*
X021747Y013757D01*
X021360Y013757D01*
X021360Y013371D01*
X021398Y013371D01*
X021473Y013386D01*
X021543Y013415D01*
X021606Y013457D01*
X021660Y013511D01*
X021703Y013574D01*
X021732Y013645D01*
X021747Y013719D01*
X021747Y013757D01*
X021360Y013757D01*
X021360Y013757D01*
X021360Y013757D01*
X021360Y013371D01*
X021322Y013371D01*
X021247Y013386D01*
X021177Y013415D01*
X021113Y013457D01*
X021059Y013511D01*
X021017Y013574D01*
X020988Y013645D01*
X020973Y013719D01*
X020973Y013757D01*
X021360Y013757D01*
X021360Y013757D01*
X020973Y013757D01*
X020973Y013796D01*
X020988Y013870D01*
X021005Y013912D01*
X020897Y013912D01*
X020770Y013964D01*
X020673Y014062D01*
X020620Y014189D01*
X020620Y014326D01*
X020673Y014453D01*
X020727Y014507D01*
X020673Y014562D01*
X020620Y014689D01*
X020620Y014826D01*
X020673Y014953D01*
X020770Y015051D01*
X020897Y015103D01*
X021005Y015103D01*
X020988Y015145D01*
X020973Y015219D01*
X020973Y015257D01*
X021360Y015257D01*
X021360Y015257D01*
X021747Y015257D01*
X021747Y015296D01*
X021732Y015370D01*
X021703Y015441D01*
X021660Y015504D01*
X021606Y015558D01*
X021543Y015600D01*
X021473Y015629D01*
X021398Y015644D01*
X021360Y015644D01*
X021360Y015257D01*
X020973Y015257D01*
X020973Y015296D01*
X020988Y015370D01*
X021005Y015412D01*
X020897Y015412D01*
X020770Y015464D01*
X020673Y015562D01*
X020620Y015689D01*
X020620Y015826D01*
X020673Y015953D01*
X020727Y016007D01*
X020673Y016062D01*
X020620Y016189D01*
X020620Y016326D01*
X020673Y016453D01*
X020770Y016551D01*
X020897Y016603D01*
X021005Y016603D01*
X020988Y016645D01*
X020973Y016719D01*
X020973Y016757D01*
X021360Y016757D01*
X021360Y016757D01*
X021747Y016757D01*
X021719Y016901D02*
X029268Y016901D01*
X029384Y017060D02*
X021604Y017060D01*
X021360Y017060D02*
X021360Y017060D01*
X021360Y017144D02*
X021360Y016757D01*
X020973Y016757D01*
X020973Y016796D01*
X020988Y016870D01*
X021017Y016941D01*
X021059Y017004D01*
X021113Y017058D01*
X021177Y017100D01*
X021247Y017129D01*
X021322Y017144D01*
X021360Y017144D01*
X021254Y017351D02*
X021422Y017420D01*
X021551Y017549D01*
X021621Y017718D01*
X021621Y017900D01*
X021551Y018068D01*
X021422Y018197D01*
X021254Y018267D01*
X021072Y018267D01*
X020904Y018197D01*
X020775Y018068D01*
X020705Y017900D01*
X020705Y017718D01*
X020775Y017549D01*
X020904Y017420D01*
X021072Y017351D01*
X021254Y017351D01*
X021316Y017377D02*
X029277Y017377D01*
X029057Y017535D02*
X021537Y017535D01*
X021611Y017694D02*
X028983Y017694D01*
X028973Y017852D02*
X021621Y017852D01*
X021575Y018011D02*
X029019Y018011D01*
X029143Y018169D02*
X021450Y018169D01*
X020876Y018169D02*
X012986Y018169D01*
X012958Y018197D02*
X012790Y018267D01*
X012607Y018267D01*
X012439Y018197D01*
X012310Y018068D01*
X012240Y017900D01*
X012240Y017718D01*
X012310Y017549D01*
X012439Y017420D01*
X012607Y017351D01*
X012790Y017351D01*
X012958Y017420D01*
X013087Y017549D01*
X013156Y017718D01*
X013156Y017900D01*
X013087Y018068D01*
X012958Y018197D01*
X013110Y018011D02*
X020751Y018011D01*
X020705Y017852D02*
X013156Y017852D01*
X013146Y017694D02*
X020715Y017694D01*
X020789Y017535D02*
X013072Y017535D01*
X012852Y017377D02*
X021010Y017377D01*
X021116Y017060D02*
X013139Y017060D01*
X013142Y017058D02*
X013078Y017100D01*
X013008Y017129D01*
X012933Y017144D01*
X012895Y017144D01*
X012895Y016757D01*
X012895Y016757D01*
X013282Y016757D01*
X013282Y016796D01*
X013267Y016870D01*
X013238Y016941D01*
X013196Y017004D01*
X013142Y017058D01*
X013254Y016901D02*
X021001Y016901D01*
X020973Y016743D02*
X013282Y016743D01*
X013242Y016584D02*
X020851Y016584D01*
X020662Y016426D02*
X013094Y016426D01*
X012895Y016426D02*
X012895Y016426D01*
X012895Y016584D02*
X012895Y016584D01*
X012895Y016743D02*
X012895Y016743D01*
X012895Y016901D02*
X012895Y016901D01*
X012895Y017060D02*
X012895Y017060D01*
X012545Y017377D02*
X010494Y017377D01*
X010494Y017535D02*
X012324Y017535D01*
X012250Y017694D02*
X010494Y017694D01*
X010494Y017852D02*
X012240Y017852D01*
X012286Y018011D02*
X010494Y018011D01*
X010494Y018169D02*
X012411Y018169D01*
X012847Y016267D02*
X020620Y016267D01*
X020654Y016109D02*
X012814Y016109D01*
X012796Y015950D02*
X020672Y015950D01*
X020620Y015792D02*
X012847Y015792D01*
X012895Y015644D02*
X012895Y015257D01*
X012895Y015257D01*
X013282Y015257D01*
X013282Y015296D01*
X013267Y015370D01*
X013238Y015441D01*
X013196Y015504D01*
X013142Y015558D01*
X013078Y015600D01*
X013008Y015629D01*
X012933Y015644D01*
X012895Y015644D01*
X012895Y015633D02*
X012895Y015633D01*
X012989Y015633D02*
X020643Y015633D01*
X020760Y015475D02*
X013215Y015475D01*
X013278Y015316D02*
X020977Y015316D01*
X020985Y015158D02*
X013270Y015158D01*
X013184Y014999D02*
X020719Y014999D01*
X020626Y014841D02*
X012841Y014841D01*
X012845Y014682D02*
X020623Y014682D01*
X020711Y014524D02*
X012757Y014524D01*
X012831Y014365D02*
X020636Y014365D01*
X020620Y014207D02*
X012847Y014207D01*
X012895Y014144D02*
X012933Y014144D01*
X013008Y014129D01*
X013078Y014100D01*
X013142Y014058D01*
X013196Y014004D01*
X013238Y013941D01*
X013267Y013870D01*
X013282Y013796D01*
X013282Y013757D01*
X012895Y013757D01*
X012895Y013757D01*
X012895Y014144D01*
X012895Y014048D02*
X012895Y014048D01*
X012895Y013890D02*
X012895Y013890D01*
X012895Y013731D02*
X012895Y013731D01*
X012895Y013573D02*
X012895Y013573D01*
X012895Y013414D02*
X012895Y013414D01*
X013077Y013414D02*
X021179Y013414D01*
X021360Y013414D02*
X021360Y013414D01*
X021360Y013573D02*
X021360Y013573D01*
X021360Y013731D02*
X021360Y013731D01*
X021360Y013757D02*
X021360Y014144D01*
X021360Y013757D01*
X021360Y013757D01*
X021360Y013890D02*
X021360Y013890D01*
X021360Y014048D02*
X021360Y014048D01*
X021312Y014207D02*
X028888Y014207D01*
X028904Y014365D02*
X021296Y014365D01*
X021221Y014524D02*
X028979Y014524D01*
X028891Y014682D02*
X021309Y014682D01*
X021306Y014841D02*
X028894Y014841D01*
X028986Y014999D02*
X021648Y014999D01*
X021734Y015158D02*
X029253Y015158D01*
X029245Y015316D02*
X021742Y015316D01*
X021680Y015475D02*
X029028Y015475D01*
X028911Y015633D02*
X021454Y015633D01*
X021360Y015633D02*
X021360Y015633D01*
X021360Y015475D02*
X021360Y015475D01*
X021360Y015316D02*
X021360Y015316D01*
X021360Y015257D02*
X021360Y015257D01*
X021360Y015158D02*
X021360Y015158D01*
X021360Y014999D02*
X021360Y014999D01*
X021312Y015792D02*
X028888Y015792D01*
X028939Y015950D02*
X021261Y015950D01*
X021279Y016109D02*
X028921Y016109D01*
X028888Y016267D02*
X021312Y016267D01*
X021360Y016426D02*
X021360Y016426D01*
X021360Y016584D02*
X021360Y016584D01*
X021360Y016743D02*
X021360Y016743D01*
X021360Y016757D02*
X021360Y016757D01*
X021360Y016901D02*
X021360Y016901D01*
X021707Y016584D02*
X029119Y016584D01*
X028929Y016426D02*
X021559Y016426D01*
X021616Y014048D02*
X028954Y014048D01*
X029264Y013890D02*
X021724Y013890D01*
X021747Y013731D02*
X029241Y013731D01*
X029286Y013573D02*
X021701Y013573D01*
X021541Y013414D02*
X029446Y013414D01*
X029177Y013097D02*
X021416Y013097D01*
X021422Y013095D02*
X021254Y013164D01*
X021072Y013164D01*
X020904Y013095D01*
X020775Y012966D01*
X020705Y012797D01*
X020705Y012615D01*
X020775Y012447D01*
X020904Y012318D01*
X021072Y012248D01*
X021254Y012248D01*
X021422Y012318D01*
X021551Y012447D01*
X021621Y012615D01*
X021621Y012797D01*
X021551Y012966D01*
X021422Y013095D01*
X021562Y012939D02*
X029031Y012939D01*
X028973Y012780D02*
X021621Y012780D01*
X021621Y012622D02*
X028973Y012622D01*
X029036Y012463D02*
X021558Y012463D01*
X021390Y012305D02*
X029204Y012305D01*
X029340Y009605D02*
X029171Y009535D01*
X029042Y009407D01*
X028973Y009238D01*
X028973Y009056D01*
X029042Y008888D01*
X029171Y008759D01*
X029340Y008689D01*
X029522Y008689D01*
X029690Y008759D01*
X029819Y008888D01*
X029889Y009056D01*
X029889Y009238D01*
X029819Y009407D01*
X029690Y009535D01*
X029522Y009605D01*
X029340Y009605D01*
X029087Y009452D02*
X021506Y009452D01*
X021551Y009407D02*
X021422Y009535D01*
X021254Y009605D01*
X021072Y009605D01*
X020904Y009535D01*
X020775Y009407D01*
X020705Y009238D01*
X020705Y009056D01*
X020775Y008888D01*
X020904Y008759D01*
X021072Y008689D01*
X021254Y008689D01*
X021422Y008759D01*
X021551Y008888D01*
X021621Y009056D01*
X021621Y009238D01*
X021551Y009407D01*
X021598Y009293D02*
X028995Y009293D01*
X028973Y009135D02*
X021621Y009135D01*
X021588Y008976D02*
X029006Y008976D01*
X029113Y008818D02*
X021481Y008818D01*
X021398Y008483D02*
X021360Y008483D01*
X021360Y008096D01*
X021360Y008096D01*
X021747Y008096D01*
X021747Y008058D01*
X021732Y007983D01*
X021703Y007913D01*
X021660Y007850D01*
X021606Y007796D01*
X021543Y007753D01*
X021473Y007724D01*
X021398Y007709D01*
X021360Y007709D01*
X021360Y008096D01*
X021747Y008096D01*
X021747Y008134D01*
X021732Y008209D01*
X021703Y008279D01*
X021660Y008343D01*
X021606Y008396D01*
X021543Y008439D01*
X021473Y008468D01*
X021398Y008483D01*
X021360Y008483D02*
X021322Y008483D01*
X021247Y008468D01*
X021177Y008439D01*
X021113Y008396D01*
X021059Y008343D01*
X021017Y008279D01*
X020988Y008209D01*
X020973Y008134D01*
X020973Y008096D01*
X020973Y008058D01*
X020988Y007983D01*
X021005Y007942D01*
X020897Y007942D01*
X020770Y007889D01*
X020673Y007792D01*
X020620Y007665D01*
X020620Y007527D01*
X020673Y007400D01*
X020727Y007346D01*
X020673Y007292D01*
X020620Y007165D01*
X020620Y007027D01*
X020673Y006900D01*
X020770Y006803D01*
X020897Y006750D01*
X021005Y006750D01*
X020988Y006709D01*
X020973Y006634D01*
X020973Y006596D01*
X020973Y006558D01*
X020988Y006483D01*
X021005Y006442D01*
X020897Y006442D01*
X020770Y006389D01*
X020673Y006292D01*
X020620Y006165D01*
X020620Y006027D01*
X020673Y005900D01*
X020727Y005846D01*
X020673Y005792D01*
X020620Y005665D01*
X020620Y005527D01*
X020673Y005400D01*
X020770Y005303D01*
X020897Y005250D01*
X021005Y005250D01*
X020988Y005209D01*
X020973Y005134D01*
X020973Y005096D01*
X020973Y005058D01*
X020988Y004983D01*
X021017Y004913D01*
X021059Y004850D01*
X021113Y004796D01*
X021177Y004753D01*
X021247Y004724D01*
X021322Y004709D01*
X021360Y004709D01*
X021398Y004709D01*
X021473Y004724D01*
X021543Y004753D01*
X021606Y004796D01*
X021660Y004850D01*
X021703Y004913D01*
X021732Y004983D01*
X021747Y005058D01*
X021747Y005096D01*
X021360Y005096D01*
X021360Y005096D01*
X021747Y005096D01*
X021747Y005134D01*
X021732Y005209D01*
X021703Y005279D01*
X021660Y005343D01*
X021606Y005396D01*
X021543Y005439D01*
X021473Y005468D01*
X021398Y005483D01*
X021360Y005483D01*
X021360Y005096D01*
X021360Y004709D01*
X021360Y005096D01*
X021360Y005096D01*
X021360Y005096D01*
X020973Y005096D01*
X021360Y005096D01*
X021360Y005096D01*
X021360Y005483D01*
X021322Y005483D01*
X021291Y005477D01*
X021312Y005527D01*
X021312Y005665D01*
X021259Y005792D01*
X021205Y005846D01*
X021259Y005900D01*
X021312Y006027D01*
X021312Y006165D01*
X021291Y006216D01*
X021322Y006209D01*
X021360Y006209D01*
X021398Y006209D01*
X021473Y006224D01*
X021543Y006253D01*
X021606Y006296D01*
X021660Y006350D01*
X021703Y006413D01*
X021732Y006483D01*
X021747Y006558D01*
X021747Y006596D01*
X021360Y006596D01*
X021360Y006596D01*
X021747Y006596D01*
X021747Y006634D01*
X021732Y006709D01*
X021703Y006779D01*
X021660Y006843D01*
X021606Y006896D01*
X021543Y006939D01*
X021473Y006968D01*
X021398Y006983D01*
X021360Y006983D01*
X021360Y006596D01*
X021360Y006209D01*
X021360Y006596D01*
X021360Y006596D01*
X021360Y006596D01*
X020973Y006596D01*
X021360Y006596D01*
X021360Y006596D01*
X021360Y006983D01*
X021322Y006983D01*
X021291Y006977D01*
X021312Y007027D01*
X021312Y007165D01*
X021259Y007292D01*
X021205Y007346D01*
X021259Y007400D01*
X021312Y007527D01*
X021312Y007665D01*
X021291Y007716D01*
X021322Y007709D01*
X021360Y007709D01*
X021360Y008096D01*
X021360Y008096D01*
X021360Y008096D01*
X020973Y008096D01*
X021360Y008096D01*
X021360Y008096D01*
X021360Y008483D01*
X021360Y008342D02*
X021360Y008342D01*
X021360Y008184D02*
X021360Y008184D01*
X021360Y008025D02*
X021360Y008025D01*
X021360Y007867D02*
X021360Y007867D01*
X021294Y007708D02*
X028906Y007708D01*
X028888Y007665D02*
X028888Y007527D01*
X028941Y007400D01*
X028995Y007346D01*
X028941Y007292D01*
X028888Y007165D01*
X028888Y007027D01*
X028941Y006900D01*
X029038Y006803D01*
X029165Y006750D01*
X029273Y006750D01*
X029256Y006709D01*
X029241Y006634D01*
X029241Y006596D01*
X029241Y006558D01*
X029256Y006483D01*
X029273Y006442D01*
X029165Y006442D01*
X029038Y006389D01*
X028941Y006292D01*
X028888Y006165D01*
X028888Y006027D01*
X028941Y005900D01*
X028995Y005846D01*
X028941Y005792D01*
X028888Y005665D01*
X028888Y005527D01*
X028941Y005400D01*
X029038Y005303D01*
X029165Y005250D01*
X029273Y005250D01*
X029256Y005209D01*
X029241Y005134D01*
X029241Y005096D01*
X029241Y005058D01*
X029256Y004983D01*
X029285Y004913D01*
X029327Y004850D01*
X029381Y004796D01*
X029444Y004753D01*
X029515Y004724D01*
X029589Y004709D01*
X029628Y004709D01*
X029666Y004709D01*
X029740Y004724D01*
X029811Y004753D01*
X029874Y004796D01*
X029928Y004850D01*
X029970Y004913D01*
X029999Y004983D01*
X030014Y005058D01*
X030014Y005096D01*
X029628Y005096D01*
X029628Y005096D01*
X030014Y005096D01*
X030014Y005134D01*
X029999Y005209D01*
X029970Y005279D01*
X029928Y005343D01*
X029874Y005396D01*
X029811Y005439D01*
X029740Y005468D01*
X029666Y005483D01*
X029628Y005483D01*
X029628Y005096D01*
X029628Y004709D01*
X029628Y005096D01*
X029628Y005096D01*
X029628Y005096D01*
X029628Y005483D01*
X029589Y005483D01*
X029559Y005477D01*
X029580Y005527D01*
X029580Y005665D01*
X029527Y005792D01*
X029473Y005846D01*
X029527Y005900D01*
X029580Y006027D01*
X029580Y006165D01*
X029559Y006216D01*
X029589Y006209D01*
X029628Y006209D01*
X029666Y006209D01*
X029740Y006224D01*
X029811Y006253D01*
X029874Y006296D01*
X029928Y006350D01*
X029970Y006413D01*
X029999Y006483D01*
X030014Y006558D01*
X030014Y006596D01*
X029628Y006596D01*
X029628Y006596D01*
X030014Y006596D01*
X030014Y006634D01*
X029999Y006709D01*
X029970Y006779D01*
X029928Y006843D01*
X029874Y006896D01*
X029811Y006939D01*
X029740Y006968D01*
X029666Y006983D01*
X029628Y006983D01*
X029628Y006596D01*
X029628Y006209D01*
X029628Y006596D01*
X029628Y006596D01*
X029628Y006596D01*
X029628Y006983D01*
X029589Y006983D01*
X029559Y006977D01*
X029580Y007027D01*
X029580Y007165D01*
X029527Y007292D01*
X029473Y007346D01*
X029527Y007400D01*
X029580Y007527D01*
X029580Y007665D01*
X029559Y007716D01*
X029589Y007709D01*
X029628Y007709D01*
X029666Y007709D01*
X029740Y007724D01*
X029811Y007753D01*
X029874Y007796D01*
X029928Y007850D01*
X029970Y007913D01*
X029999Y007983D01*
X030014Y008058D01*
X030014Y008096D01*
X029628Y008096D01*
X029628Y008096D01*
X030014Y008096D01*
X030014Y008134D01*
X029999Y008209D01*
X029970Y008279D01*
X029928Y008343D01*
X029874Y008396D01*
X029811Y008439D01*
X029740Y008468D01*
X029666Y008483D01*
X029628Y008483D01*
X029628Y008096D01*
X029628Y007709D01*
X029628Y008096D01*
X029628Y008096D01*
X029628Y008096D01*
X029628Y008483D01*
X029589Y008483D01*
X029515Y008468D01*
X029444Y008439D01*
X029381Y008396D01*
X029327Y008343D01*
X029285Y008279D01*
X029256Y008209D01*
X029241Y008134D01*
X029241Y008096D01*
X029241Y008058D01*
X029256Y007983D01*
X029273Y007942D01*
X029165Y007942D01*
X029038Y007889D01*
X028941Y007792D01*
X028888Y007665D01*
X028888Y007550D02*
X021312Y007550D01*
X021250Y007391D02*
X028950Y007391D01*
X028916Y007233D02*
X021284Y007233D01*
X021312Y007074D02*
X028888Y007074D01*
X028934Y006916D02*
X021578Y006916D01*
X021712Y006757D02*
X029149Y006757D01*
X029241Y006599D02*
X021747Y006599D01*
X021714Y006440D02*
X029161Y006440D01*
X029241Y006596D02*
X029628Y006596D01*
X029628Y006596D01*
X029241Y006596D01*
X029628Y006599D02*
X029628Y006599D01*
X029628Y006757D02*
X029628Y006757D01*
X029628Y006916D02*
X029628Y006916D01*
X029580Y007074D02*
X037353Y007074D01*
X037353Y007027D02*
X037405Y006900D01*
X037503Y006803D01*
X037630Y006750D01*
X037737Y006750D01*
X037720Y006709D01*
X037705Y006634D01*
X037705Y006596D01*
X037705Y006558D01*
X037720Y006483D01*
X037737Y006442D01*
X037630Y006442D01*
X037503Y006389D01*
X037405Y006292D01*
X037353Y006165D01*
X037353Y006027D01*
X037405Y005900D01*
X037459Y005846D01*
X037405Y005792D01*
X037353Y005665D01*
X037353Y005527D01*
X037405Y005400D01*
X037503Y005303D01*
X037630Y005250D01*
X037737Y005250D01*
X037720Y005209D01*
X037705Y005134D01*
X037705Y005096D01*
X037705Y005058D01*
X037720Y004983D01*
X037749Y004913D01*
X037792Y004850D01*
X037846Y004796D01*
X037909Y004753D01*
X037979Y004724D01*
X038054Y004709D01*
X038092Y004709D01*
X038092Y005096D01*
X037705Y005096D01*
X038092Y005096D01*
X038092Y005096D01*
X038092Y005096D01*
X038092Y004709D01*
X038130Y004709D01*
X038205Y004724D01*
X038275Y004753D01*
X038339Y004796D01*
X038392Y004850D01*
X038435Y004913D01*
X038464Y004983D01*
X038479Y005058D01*
X038479Y005096D01*
X038092Y005096D01*
X038092Y005483D01*
X038054Y005483D01*
X038023Y005477D01*
X038044Y005527D01*
X038044Y005665D01*
X037992Y005792D01*
X037937Y005846D01*
X037992Y005900D01*
X038044Y006027D01*
X038044Y006165D01*
X038023Y006216D01*
X038054Y006209D01*
X038092Y006209D01*
X038092Y006596D01*
X037705Y006596D01*
X038092Y006596D01*
X038092Y006596D01*
X038092Y006596D01*
X038092Y006983D01*
X038054Y006983D01*
X038023Y006977D01*
X038044Y007027D01*
X038044Y007165D01*
X037992Y007292D01*
X037937Y007346D01*
X037992Y007400D01*
X038044Y007527D01*
X038044Y007665D01*
X038023Y007716D01*
X038054Y007709D01*
X038092Y007709D01*
X038092Y008096D01*
X037705Y008096D01*
X037705Y008058D01*
X037720Y007983D01*
X037737Y007942D01*
X037630Y007942D01*
X037503Y007889D01*
X037405Y007792D01*
X037353Y007665D01*
X037353Y007527D01*
X037405Y007400D01*
X037459Y007346D01*
X037405Y007292D01*
X037353Y007165D01*
X037353Y007027D01*
X037399Y006916D02*
X029845Y006916D01*
X029979Y006757D02*
X037613Y006757D01*
X037705Y006599D02*
X030014Y006599D01*
X029981Y006440D02*
X037625Y006440D01*
X037401Y006282D02*
X029853Y006282D01*
X029628Y006282D02*
X029628Y006282D01*
X029628Y006440D02*
X029628Y006440D01*
X028936Y006282D02*
X021585Y006282D01*
X021360Y006282D02*
X021360Y006282D01*
X021360Y006440D02*
X021360Y006440D01*
X021360Y006599D02*
X021360Y006599D01*
X021360Y006757D02*
X021360Y006757D01*
X021360Y006916D02*
X021360Y006916D01*
X020973Y006599D02*
X013282Y006599D01*
X013282Y006596D02*
X013282Y006634D01*
X013267Y006709D01*
X013238Y006779D01*
X013196Y006843D01*
X013142Y006896D01*
X013078Y006939D01*
X013008Y006968D01*
X012933Y006983D01*
X012895Y006983D01*
X012857Y006983D01*
X012826Y006977D01*
X012847Y007027D01*
X012847Y007165D01*
X012795Y007292D01*
X012741Y007346D01*
X012795Y007400D01*
X012847Y007527D01*
X012847Y007665D01*
X012826Y007716D01*
X012857Y007709D01*
X012895Y007709D01*
X012895Y008096D01*
X012509Y008096D01*
X012509Y008058D01*
X012523Y007983D01*
X012541Y007942D01*
X012433Y007942D01*
X012306Y007889D01*
X012208Y007792D01*
X012156Y007665D01*
X012156Y007527D01*
X012208Y007400D01*
X012263Y007346D01*
X012208Y007292D01*
X012156Y007165D01*
X012156Y007027D01*
X012208Y006900D01*
X012306Y006803D01*
X012433Y006750D01*
X012541Y006750D01*
X012523Y006709D01*
X012509Y006634D01*
X012509Y006596D01*
X012509Y006558D01*
X012523Y006483D01*
X012541Y006442D01*
X012433Y006442D01*
X012306Y006389D01*
X012208Y006292D01*
X012156Y006165D01*
X012156Y006027D01*
X012208Y005900D01*
X012263Y005846D01*
X012208Y005792D01*
X012156Y005665D01*
X012156Y005527D01*
X012208Y005400D01*
X012306Y005303D01*
X012433Y005250D01*
X012541Y005250D01*
X012523Y005209D01*
X012509Y005134D01*
X012509Y005096D01*
X012509Y005058D01*
X012523Y004983D01*
X012553Y004913D01*
X012595Y004850D01*
X012649Y004796D01*
X012712Y004753D01*
X012782Y004724D01*
X012857Y004709D01*
X012895Y004709D01*
X012895Y005096D01*
X012509Y005096D01*
X012895Y005096D01*
X012895Y005096D01*
X012895Y005096D01*
X012895Y005483D01*
X012857Y005483D01*
X012826Y005477D01*
X012847Y005527D01*
X012847Y005665D01*
X012795Y005792D01*
X012741Y005846D01*
X012795Y005900D01*
X012847Y006027D01*
X012847Y006165D01*
X012826Y006216D01*
X012857Y006209D01*
X012895Y006209D01*
X012895Y006596D01*
X012509Y006596D01*
X012895Y006596D01*
X012895Y006596D01*
X012895Y006596D01*
X012895Y006983D01*
X012895Y006596D01*
X012895Y006596D01*
X012895Y006209D01*
X012933Y006209D01*
X013008Y006224D01*
X013078Y006253D01*
X013142Y006296D01*
X013196Y006350D01*
X013238Y006413D01*
X013267Y006483D01*
X013282Y006558D01*
X013282Y006596D01*
X012895Y006596D01*
X012895Y006596D01*
X013282Y006596D01*
X013249Y006440D02*
X020893Y006440D01*
X020669Y006282D02*
X013121Y006282D01*
X012895Y006282D02*
X012895Y006282D01*
X012895Y006440D02*
X012895Y006440D01*
X012895Y006599D02*
X012895Y006599D01*
X012895Y006757D02*
X012895Y006757D01*
X012895Y006916D02*
X012895Y006916D01*
X012847Y007074D02*
X020620Y007074D01*
X020648Y007233D02*
X012819Y007233D01*
X012785Y007391D02*
X020682Y007391D01*
X020620Y007550D02*
X012847Y007550D01*
X012829Y007708D02*
X020638Y007708D01*
X020748Y007867D02*
X013207Y007867D01*
X013196Y007850D02*
X013238Y007913D01*
X013267Y007983D01*
X013282Y008058D01*
X013282Y008096D01*
X012895Y008096D01*
X012895Y008096D01*
X012509Y008096D01*
X012509Y008134D01*
X012523Y008209D01*
X012553Y008279D01*
X012595Y008343D01*
X012649Y008396D01*
X012712Y008439D01*
X012782Y008468D01*
X012857Y008483D01*
X012895Y008483D01*
X012895Y008096D01*
X012895Y008096D01*
X012895Y008096D01*
X012895Y007709D01*
X012933Y007709D01*
X013008Y007724D01*
X013078Y007753D01*
X013142Y007796D01*
X013196Y007850D01*
X013275Y008025D02*
X020980Y008025D01*
X020983Y008184D02*
X013272Y008184D01*
X013267Y008209D02*
X013238Y008279D01*
X013196Y008343D01*
X013142Y008396D01*
X013078Y008439D01*
X013008Y008468D01*
X012933Y008483D01*
X012895Y008483D01*
X012895Y008096D01*
X012895Y008096D01*
X013282Y008096D01*
X013282Y008134D01*
X013267Y008209D01*
X013196Y008342D02*
X021059Y008342D01*
X020845Y008818D02*
X013016Y008818D01*
X012958Y008759D02*
X013087Y008888D01*
X013156Y009056D01*
X013156Y009238D01*
X013087Y009407D01*
X012958Y009535D01*
X012790Y009605D01*
X012607Y009605D01*
X012439Y009535D01*
X012310Y009407D01*
X012240Y009238D01*
X012240Y009056D01*
X012310Y008888D01*
X012439Y008759D01*
X012607Y008689D01*
X012790Y008689D01*
X012958Y008759D01*
X013123Y008976D02*
X020738Y008976D01*
X020705Y009135D02*
X013156Y009135D01*
X013134Y009293D02*
X020728Y009293D01*
X020820Y009452D02*
X013042Y009452D01*
X012355Y009452D02*
X010494Y009452D01*
X010494Y009610D02*
X043210Y009610D01*
X043210Y009452D02*
X038239Y009452D01*
X038284Y009407D02*
X038155Y009535D01*
X037986Y009605D01*
X037804Y009605D01*
X037636Y009535D01*
X037507Y009407D01*
X037437Y009238D01*
X037437Y009056D01*
X037507Y008888D01*
X037636Y008759D01*
X037804Y008689D01*
X037986Y008689D01*
X038155Y008759D01*
X038284Y008888D01*
X038353Y009056D01*
X038353Y009238D01*
X038284Y009407D01*
X038331Y009293D02*
X043210Y009293D01*
X043210Y009135D02*
X038353Y009135D01*
X038320Y008976D02*
X043210Y008976D01*
X043210Y008818D02*
X038213Y008818D01*
X038130Y008483D02*
X038092Y008483D01*
X038054Y008483D01*
X037979Y008468D01*
X037909Y008439D01*
X037846Y008396D01*
X037792Y008343D01*
X037749Y008279D01*
X037720Y008209D01*
X037705Y008134D01*
X037705Y008096D01*
X038092Y008096D01*
X038092Y008096D01*
X038092Y008096D01*
X038092Y008483D01*
X038092Y008096D01*
X038092Y008096D01*
X038092Y007709D01*
X038130Y007709D01*
X038205Y007724D01*
X038275Y007753D01*
X038339Y007796D01*
X038392Y007850D01*
X038435Y007913D01*
X038464Y007983D01*
X038479Y008058D01*
X038479Y008096D01*
X038092Y008096D01*
X038092Y008096D01*
X038479Y008096D01*
X038479Y008134D01*
X038464Y008209D01*
X038435Y008279D01*
X038392Y008343D01*
X038339Y008396D01*
X038275Y008439D01*
X038205Y008468D01*
X038130Y008483D01*
X038092Y008342D02*
X038092Y008342D01*
X038092Y008184D02*
X038092Y008184D01*
X038092Y008025D02*
X038092Y008025D01*
X038092Y007867D02*
X038092Y007867D01*
X038026Y007708D02*
X043210Y007708D01*
X043210Y007550D02*
X038044Y007550D01*
X037982Y007391D02*
X043210Y007391D01*
X043210Y007233D02*
X038016Y007233D01*
X038044Y007074D02*
X043210Y007074D01*
X043210Y006916D02*
X038310Y006916D01*
X038339Y006896D02*
X038275Y006939D01*
X038205Y006968D01*
X038130Y006983D01*
X038092Y006983D01*
X038092Y006596D01*
X038092Y006596D01*
X038092Y006209D01*
X038130Y006209D01*
X038205Y006224D01*
X038275Y006253D01*
X038339Y006296D01*
X038392Y006350D01*
X038435Y006413D01*
X038464Y006483D01*
X038479Y006558D01*
X038479Y006596D01*
X038092Y006596D01*
X038092Y006596D01*
X038479Y006596D01*
X038479Y006634D01*
X038464Y006709D01*
X038435Y006779D01*
X038392Y006843D01*
X038339Y006896D01*
X038444Y006757D02*
X043210Y006757D01*
X043210Y006599D02*
X038479Y006599D01*
X038446Y006440D02*
X043210Y006440D01*
X043210Y006282D02*
X038317Y006282D01*
X038092Y006282D02*
X038092Y006282D01*
X038092Y006440D02*
X038092Y006440D01*
X038092Y006599D02*
X038092Y006599D01*
X038092Y006757D02*
X038092Y006757D01*
X038092Y006916D02*
X038092Y006916D01*
X037381Y007233D02*
X029552Y007233D01*
X029518Y007391D02*
X037415Y007391D01*
X037353Y007550D02*
X029580Y007550D01*
X029562Y007708D02*
X037371Y007708D01*
X037480Y007867D02*
X029939Y007867D01*
X030008Y008025D02*
X037712Y008025D01*
X037715Y008184D02*
X030004Y008184D01*
X029928Y008342D02*
X037791Y008342D01*
X037577Y008818D02*
X029749Y008818D01*
X029855Y008976D02*
X037471Y008976D01*
X037437Y009135D02*
X029889Y009135D01*
X029866Y009293D02*
X037460Y009293D01*
X037552Y009452D02*
X029774Y009452D01*
X029628Y008342D02*
X029628Y008342D01*
X029628Y008184D02*
X029628Y008184D01*
X029628Y008096D02*
X029628Y008096D01*
X029241Y008096D01*
X029628Y008096D01*
X029628Y008025D02*
X029628Y008025D01*
X029628Y007867D02*
X029628Y007867D01*
X029247Y008025D02*
X021740Y008025D01*
X021737Y008184D02*
X029251Y008184D01*
X029327Y008342D02*
X021661Y008342D01*
X021672Y007867D02*
X029015Y007867D01*
X028888Y006123D02*
X021312Y006123D01*
X021286Y005965D02*
X028914Y005965D01*
X028955Y005806D02*
X021245Y005806D01*
X021312Y005648D02*
X028888Y005648D01*
X028904Y005489D02*
X021296Y005489D01*
X021360Y005331D02*
X021360Y005331D01*
X021360Y005172D02*
X021360Y005172D01*
X021360Y005014D02*
X021360Y005014D01*
X021360Y004855D02*
X021360Y004855D01*
X021664Y004855D02*
X029324Y004855D01*
X029250Y005014D02*
X021738Y005014D01*
X021739Y005172D02*
X029248Y005172D01*
X029241Y005096D02*
X029628Y005096D01*
X029241Y005096D01*
X029010Y005331D02*
X021668Y005331D01*
X020981Y005172D02*
X013274Y005172D01*
X013267Y005209D02*
X013238Y005279D01*
X013196Y005343D01*
X013142Y005396D01*
X013078Y005439D01*
X013008Y005468D01*
X012933Y005483D01*
X012895Y005483D01*
X012895Y005096D01*
X012895Y005096D01*
X012895Y004709D01*
X012933Y004709D01*
X013008Y004724D01*
X013078Y004753D01*
X013142Y004796D01*
X013196Y004850D01*
X013238Y004913D01*
X013267Y004983D01*
X013282Y005058D01*
X013282Y005096D01*
X012895Y005096D01*
X012895Y005096D01*
X013282Y005096D01*
X013282Y005134D01*
X013267Y005209D01*
X013204Y005331D02*
X020743Y005331D01*
X020636Y005489D02*
X012831Y005489D01*
X012847Y005648D02*
X020620Y005648D01*
X020687Y005806D02*
X012781Y005806D01*
X012821Y005965D02*
X020646Y005965D01*
X020620Y006123D02*
X012847Y006123D01*
X012428Y006440D02*
X010494Y006440D01*
X010494Y006282D02*
X012204Y006282D01*
X012156Y006123D02*
X010494Y006123D01*
X010494Y005965D02*
X012182Y005965D01*
X012223Y005806D02*
X010494Y005806D01*
X010494Y005648D02*
X012156Y005648D01*
X012172Y005489D02*
X010494Y005489D01*
X010494Y005331D02*
X012278Y005331D01*
X012516Y005172D02*
X010494Y005172D01*
X010494Y005014D02*
X012517Y005014D01*
X012591Y004855D02*
X010494Y004855D01*
X010494Y004697D02*
X043210Y004697D01*
X043210Y004855D02*
X038396Y004855D01*
X038470Y005014D02*
X043210Y005014D01*
X043210Y005172D02*
X038471Y005172D01*
X038464Y005209D02*
X038435Y005279D01*
X038392Y005343D01*
X038339Y005396D01*
X038275Y005439D01*
X038205Y005468D01*
X038130Y005483D01*
X038092Y005483D01*
X038092Y005096D01*
X038092Y005096D01*
X038092Y005096D01*
X038479Y005096D01*
X038479Y005134D01*
X038464Y005209D01*
X038401Y005331D02*
X043210Y005331D01*
X043210Y005489D02*
X038028Y005489D01*
X038044Y005648D02*
X043210Y005648D01*
X043210Y005806D02*
X037977Y005806D01*
X038018Y005965D02*
X043210Y005965D01*
X043210Y006123D02*
X038044Y006123D01*
X037379Y005965D02*
X029554Y005965D01*
X029580Y006123D02*
X037353Y006123D01*
X037419Y005806D02*
X029513Y005806D01*
X029580Y005648D02*
X037353Y005648D01*
X037369Y005489D02*
X029564Y005489D01*
X029628Y005331D02*
X029628Y005331D01*
X029628Y005172D02*
X029628Y005172D01*
X029628Y005096D02*
X029628Y005096D01*
X029628Y005014D02*
X029628Y005014D01*
X029628Y004855D02*
X029628Y004855D01*
X029932Y004855D02*
X037788Y004855D01*
X037714Y005014D02*
X030005Y005014D01*
X030007Y005172D02*
X037713Y005172D01*
X037475Y005331D02*
X029936Y005331D01*
X029522Y004503D02*
X029340Y004503D01*
X029171Y004433D01*
X029042Y004304D01*
X028973Y004136D01*
X028973Y003954D01*
X029042Y003785D01*
X029171Y003657D01*
X029340Y003587D01*
X029522Y003587D01*
X037804Y003587D01*
X037986Y003587D01*
X038155Y003657D01*
X038284Y003785D01*
X038353Y003954D01*
X038353Y004136D01*
X038284Y004304D01*
X038155Y004433D01*
X037986Y004503D01*
X037804Y004503D01*
X037636Y004433D01*
X037507Y004304D01*
X037437Y004136D01*
X037437Y003954D01*
X037507Y003785D01*
X037636Y003657D01*
X037804Y003587D01*
X037987Y003587D02*
X043210Y003587D01*
X043210Y003429D02*
X010494Y003429D01*
X010494Y003587D02*
X012607Y003587D01*
X012790Y003587D01*
X021072Y003587D01*
X021254Y003587D01*
X021422Y003657D01*
X021551Y003785D01*
X021621Y003954D01*
X021621Y004136D01*
X021551Y004304D01*
X021422Y004433D01*
X021254Y004503D01*
X021072Y004503D01*
X020904Y004433D01*
X020775Y004304D01*
X020705Y004136D01*
X020705Y003954D01*
X020775Y003785D01*
X020904Y003657D01*
X021072Y003587D01*
X021254Y003587D02*
X029339Y003587D01*
X029522Y003587D02*
X029690Y003657D01*
X029819Y003785D01*
X029889Y003954D01*
X029889Y004136D01*
X029819Y004304D01*
X029690Y004433D01*
X029522Y004503D01*
X029744Y004380D02*
X037582Y004380D01*
X037473Y004221D02*
X029853Y004221D01*
X029889Y004063D02*
X037437Y004063D01*
X037458Y003904D02*
X029868Y003904D01*
X029779Y003746D02*
X037547Y003746D01*
X038244Y003746D02*
X043210Y003746D01*
X043210Y003904D02*
X038333Y003904D01*
X038353Y004063D02*
X043210Y004063D01*
X043210Y004221D02*
X038318Y004221D01*
X038208Y004380D02*
X043210Y004380D01*
X043210Y004538D02*
X010494Y004538D01*
X010494Y004380D02*
X012385Y004380D01*
X012439Y004433D02*
X012310Y004304D01*
X012240Y004136D01*
X012240Y003954D01*
X012310Y003785D01*
X012439Y003657D01*
X012607Y003587D01*
X012790Y003587D02*
X012958Y003657D01*
X013087Y003785D01*
X013156Y003954D01*
X013156Y004136D01*
X013087Y004304D01*
X012958Y004433D01*
X012790Y004503D01*
X012607Y004503D01*
X012439Y004433D01*
X012276Y004221D02*
X010494Y004221D01*
X010494Y004063D02*
X012240Y004063D01*
X012261Y003904D02*
X010494Y003904D01*
X010494Y003746D02*
X012350Y003746D01*
X013047Y003746D02*
X020815Y003746D01*
X020726Y003904D02*
X013136Y003904D01*
X013156Y004063D02*
X020705Y004063D01*
X020740Y004221D02*
X013121Y004221D01*
X013011Y004380D02*
X020850Y004380D01*
X021056Y004855D02*
X013199Y004855D01*
X013273Y005014D02*
X020982Y005014D01*
X021476Y004380D02*
X029118Y004380D01*
X029008Y004221D02*
X021586Y004221D01*
X021621Y004063D02*
X028973Y004063D01*
X028993Y003904D02*
X021600Y003904D01*
X021511Y003746D02*
X029082Y003746D01*
X020881Y006757D02*
X013247Y006757D01*
X013113Y006916D02*
X020667Y006916D01*
X012895Y007867D02*
X012895Y007867D01*
X012895Y008025D02*
X012895Y008025D01*
X012895Y008184D02*
X012895Y008184D01*
X012895Y008342D02*
X012895Y008342D01*
X012595Y008342D02*
X010494Y008342D01*
X010494Y008184D02*
X012518Y008184D01*
X012515Y008025D02*
X010494Y008025D01*
X010494Y007867D02*
X012283Y007867D01*
X012174Y007708D02*
X010494Y007708D01*
X010494Y007550D02*
X012156Y007550D01*
X012218Y007391D02*
X010494Y007391D01*
X010494Y007233D02*
X012184Y007233D01*
X012156Y007074D02*
X010494Y007074D01*
X010494Y006916D02*
X012202Y006916D01*
X012417Y006757D02*
X010494Y006757D01*
X010494Y006599D02*
X012509Y006599D01*
X012895Y005331D02*
X012895Y005331D01*
X012895Y005172D02*
X012895Y005172D01*
X012895Y005014D02*
X012895Y005014D01*
X012895Y004855D02*
X012895Y004855D01*
X010494Y003270D02*
X043210Y003270D01*
X043210Y003112D02*
X010494Y003112D01*
X010494Y002953D02*
X043210Y002953D01*
X038092Y004855D02*
X038092Y004855D01*
X038092Y005014D02*
X038092Y005014D01*
X038092Y005172D02*
X038092Y005172D01*
X038092Y005331D02*
X038092Y005331D01*
X038404Y007867D02*
X043210Y007867D01*
X043210Y008025D02*
X038472Y008025D01*
X038469Y008184D02*
X043210Y008184D01*
X043210Y008342D02*
X038393Y008342D01*
X043210Y008501D02*
X010494Y008501D01*
X010494Y008659D02*
X043210Y008659D01*
X043210Y009769D02*
X010494Y009769D01*
X010494Y009927D02*
X043210Y009927D01*
X043210Y010086D02*
X010494Y010086D01*
X010494Y010244D02*
X043210Y010244D01*
X043210Y010403D02*
X010494Y010403D01*
X010494Y010561D02*
X043210Y010561D01*
X043210Y010720D02*
X010494Y010720D01*
X010494Y010878D02*
X043210Y010878D01*
X043210Y011037D02*
X010494Y011037D01*
X010494Y011195D02*
X043210Y011195D01*
X043210Y011354D02*
X010494Y011354D01*
X010494Y011512D02*
X043210Y011512D01*
X043210Y011671D02*
X010494Y011671D01*
X010494Y011829D02*
X043210Y011829D01*
X043210Y011988D02*
X010494Y011988D01*
X010494Y012146D02*
X043210Y012146D01*
X037521Y017535D02*
X029805Y017535D01*
X029879Y017694D02*
X037447Y017694D01*
X037437Y017852D02*
X029889Y017852D01*
X029843Y018011D02*
X037483Y018011D01*
X037608Y018169D02*
X029718Y018169D01*
X029628Y015475D02*
X029628Y015475D01*
X029628Y015316D02*
X029628Y015316D01*
X029628Y015158D02*
X029628Y015158D01*
X029628Y014999D02*
X029628Y014999D01*
X020996Y013890D02*
X013259Y013890D01*
X013282Y013731D02*
X020973Y013731D01*
X021018Y013573D02*
X013237Y013573D01*
X012958Y013095D02*
X012790Y013164D01*
X012607Y013164D01*
X012439Y013095D01*
X012310Y012966D01*
X012240Y012797D01*
X012240Y012615D01*
X012310Y012447D01*
X012439Y012318D01*
X012607Y012248D01*
X012790Y012248D01*
X012958Y012318D01*
X013087Y012447D01*
X013156Y012615D01*
X013156Y012797D01*
X013087Y012966D01*
X012958Y013095D01*
X012952Y013097D02*
X020910Y013097D01*
X020763Y012939D02*
X013098Y012939D01*
X013156Y012780D02*
X020705Y012780D01*
X020705Y012622D02*
X013156Y012622D01*
X013093Y012463D02*
X020768Y012463D01*
X020936Y012305D02*
X012925Y012305D01*
X012472Y012305D02*
X010494Y012305D01*
X010494Y012463D02*
X012304Y012463D01*
X012240Y012622D02*
X010494Y012622D01*
X010494Y012780D02*
X012240Y012780D01*
X012299Y012939D02*
X010494Y012939D01*
X010494Y013097D02*
X012445Y013097D01*
X013152Y014048D02*
X020687Y014048D01*
X012895Y014999D02*
X012895Y014999D01*
X012895Y015158D02*
X012895Y015158D01*
X012895Y015316D02*
X012895Y015316D01*
X012895Y015475D02*
X012895Y015475D01*
X009903Y015475D02*
X000494Y015475D01*
X000494Y015633D02*
X009903Y015633D01*
X009903Y015792D02*
X000494Y015792D01*
X000494Y015950D02*
X009903Y015950D01*
X009903Y016109D02*
X000494Y016109D01*
X000494Y016267D02*
X009903Y016267D01*
X009903Y015316D02*
X000494Y015316D01*
X000494Y015158D02*
X006146Y015158D01*
X006180Y015192D02*
X006111Y015122D01*
X006073Y015031D01*
X006073Y014933D01*
X006111Y014842D01*
X006180Y014772D01*
X006271Y014735D01*
X006370Y014735D01*
X006461Y014772D01*
X006530Y014842D01*
X006568Y014933D01*
X006568Y015031D01*
X006530Y015122D01*
X006461Y015192D01*
X006370Y015229D01*
X006271Y015229D01*
X006180Y015192D01*
X006073Y014999D02*
X000494Y014999D01*
X000494Y014841D02*
X006112Y014841D01*
X006367Y014571D02*
X006329Y014480D01*
X006329Y014382D01*
X006367Y014291D01*
X006436Y014221D01*
X006527Y014183D01*
X006626Y014183D01*
X006716Y014221D01*
X006786Y014291D01*
X006824Y014382D01*
X006824Y014480D01*
X006786Y014571D01*
X006716Y014640D01*
X006626Y014678D01*
X006527Y014678D01*
X006436Y014640D01*
X006367Y014571D01*
X006347Y014524D02*
X004332Y014524D01*
X004330Y014528D02*
X004233Y014625D01*
X004106Y014678D01*
X003968Y014678D01*
X003841Y014625D01*
X003744Y014528D01*
X003691Y014401D01*
X003691Y014264D01*
X003744Y014136D01*
X003798Y014082D01*
X003744Y014028D01*
X003691Y013901D01*
X003691Y013764D01*
X003744Y013636D01*
X003798Y013582D01*
X003744Y013528D01*
X003691Y013401D01*
X003691Y013264D01*
X003744Y013136D01*
X003798Y013082D01*
X003744Y013028D01*
X003691Y012901D01*
X003691Y012764D01*
X003744Y012636D01*
X003798Y012582D01*
X003744Y012528D01*
X003691Y012401D01*
X003691Y012264D01*
X003744Y012136D01*
X003798Y012082D01*
X003744Y012028D01*
X003691Y011901D01*
X003691Y011764D01*
X003744Y011636D01*
X003798Y011582D01*
X003744Y011528D01*
X003691Y011401D01*
X003691Y011264D01*
X003744Y011136D01*
X003841Y011039D01*
X003968Y010987D01*
X004106Y010987D01*
X004233Y011039D01*
X004330Y011136D01*
X004383Y011264D01*
X004383Y011401D01*
X004330Y011528D01*
X004276Y011582D01*
X004330Y011636D01*
X004383Y011764D01*
X004383Y011901D01*
X004330Y012028D01*
X004276Y012082D01*
X004330Y012136D01*
X004383Y012264D01*
X004383Y012401D01*
X004330Y012528D01*
X004276Y012582D01*
X004330Y012636D01*
X004383Y012764D01*
X004383Y012901D01*
X004330Y013028D01*
X004276Y013082D01*
X004330Y013136D01*
X004383Y013264D01*
X004383Y013401D01*
X004330Y013528D01*
X004276Y013582D01*
X004330Y013636D01*
X004383Y013764D01*
X004383Y013901D01*
X004330Y014028D01*
X004276Y014082D01*
X004330Y014136D01*
X004383Y014264D01*
X004383Y014401D01*
X004330Y014528D01*
X004383Y014365D02*
X006336Y014365D01*
X006471Y014207D02*
X004359Y014207D01*
X004310Y014048D02*
X006831Y014048D01*
X006855Y014066D02*
X006801Y014026D01*
X006753Y013978D01*
X006713Y013923D01*
X006683Y013863D01*
X006662Y013799D01*
X006651Y013732D01*
X006651Y013718D01*
X007060Y013718D01*
X007060Y013678D01*
X007100Y013678D01*
X007100Y013269D01*
X007114Y013269D01*
X007181Y013280D01*
X007245Y013301D01*
X007305Y013331D01*
X007360Y013371D01*
X007408Y013419D01*
X007447Y013473D01*
X007478Y013534D01*
X007499Y013598D01*
X007510Y013665D01*
X007510Y013678D01*
X007100Y013678D01*
X007100Y013718D01*
X007510Y013718D01*
X007510Y013732D01*
X007499Y013799D01*
X007478Y013863D01*
X007447Y013923D01*
X007408Y013978D01*
X007360Y014026D01*
X007305Y014066D01*
X007245Y014096D01*
X007181Y014117D01*
X007114Y014128D01*
X007100Y014128D01*
X007100Y013718D01*
X007060Y013718D01*
X007060Y014128D01*
X007047Y014128D01*
X006980Y014117D01*
X006916Y014096D01*
X006855Y014066D01*
X007060Y014048D02*
X007100Y014048D01*
X007100Y013890D02*
X007060Y013890D01*
X007060Y013731D02*
X007100Y013731D01*
X007060Y013678D02*
X006651Y013678D01*
X006651Y013665D01*
X006662Y013598D01*
X006683Y013534D01*
X006713Y013473D01*
X006753Y013419D01*
X006801Y013371D01*
X006855Y013331D01*
X006916Y013301D01*
X006980Y013280D01*
X007047Y013269D01*
X007060Y013269D01*
X007060Y013678D01*
X007060Y013573D02*
X007100Y013573D01*
X007100Y013414D02*
X007060Y013414D01*
X006758Y013414D02*
X004377Y013414D01*
X004379Y013256D02*
X009903Y013256D01*
X009903Y013414D02*
X008403Y013414D01*
X008408Y013419D02*
X008447Y013473D01*
X008478Y013534D01*
X008499Y013598D01*
X008510Y013665D01*
X008510Y013678D01*
X008100Y013678D01*
X008100Y013269D01*
X008114Y013269D01*
X008181Y013280D01*
X008245Y013301D01*
X008305Y013331D01*
X008360Y013371D01*
X008408Y013419D01*
X008491Y013573D02*
X009903Y013573D01*
X009903Y013731D02*
X008510Y013731D01*
X008510Y013732D02*
X008499Y013799D01*
X008478Y013863D01*
X008447Y013923D01*
X008408Y013978D01*
X008360Y014026D01*
X008305Y014066D01*
X008245Y014096D01*
X008181Y014117D01*
X008114Y014128D01*
X008100Y014128D01*
X008100Y013718D01*
X008510Y013718D01*
X008510Y013732D01*
X008465Y013890D02*
X009903Y013890D01*
X009903Y014048D02*
X008329Y014048D01*
X008100Y014048D02*
X008060Y014048D01*
X008060Y014128D02*
X008047Y014128D01*
X007980Y014117D01*
X007916Y014096D01*
X007855Y014066D01*
X007801Y014026D01*
X007753Y013978D01*
X007713Y013923D01*
X007683Y013863D01*
X007662Y013799D01*
X007651Y013732D01*
X007651Y013718D01*
X008060Y013718D01*
X008060Y013678D01*
X008100Y013678D01*
X008100Y013718D01*
X008060Y013718D01*
X008060Y014128D01*
X008060Y013890D02*
X008100Y013890D01*
X008100Y013731D02*
X008060Y013731D01*
X008060Y013678D02*
X007651Y013678D01*
X007651Y013665D01*
X007662Y013598D01*
X007683Y013534D01*
X007713Y013473D01*
X007753Y013419D01*
X007801Y013371D01*
X007855Y013331D01*
X007916Y013301D01*
X007980Y013280D01*
X008047Y013269D01*
X008060Y013269D01*
X008060Y013678D01*
X008060Y013573D02*
X008100Y013573D01*
X008100Y013414D02*
X008060Y013414D01*
X007758Y013414D02*
X007403Y013414D01*
X007491Y013573D02*
X007670Y013573D01*
X007651Y013731D02*
X007510Y013731D01*
X007465Y013890D02*
X007696Y013890D01*
X007831Y014048D02*
X007329Y014048D01*
X006817Y014365D02*
X009903Y014365D01*
X009903Y014207D02*
X006681Y014207D01*
X006806Y014524D02*
X009903Y014524D01*
X009903Y014682D02*
X000494Y014682D01*
X000494Y014524D02*
X003742Y014524D01*
X003691Y014365D02*
X000494Y014365D01*
X000494Y014207D02*
X003715Y014207D01*
X003764Y014048D02*
X000494Y014048D01*
X000494Y013890D02*
X003691Y013890D01*
X003705Y013731D02*
X000494Y013731D01*
X000494Y013573D02*
X003788Y013573D01*
X003697Y013414D02*
X000494Y013414D01*
X000494Y013256D02*
X003695Y013256D01*
X003783Y013097D02*
X000494Y013097D01*
X000494Y012939D02*
X003707Y012939D01*
X003691Y012780D02*
X000494Y012780D01*
X000494Y012622D02*
X003759Y012622D01*
X003717Y012463D02*
X000494Y012463D01*
X000494Y012305D02*
X003691Y012305D01*
X003740Y012146D02*
X000494Y012146D01*
X000494Y011988D02*
X003727Y011988D01*
X003691Y011829D02*
X000494Y011829D01*
X000494Y011671D02*
X003730Y011671D01*
X003737Y011512D02*
X000494Y011512D01*
X000494Y011354D02*
X003691Y011354D01*
X003720Y011195D02*
X000494Y011195D01*
X000494Y011037D02*
X003848Y011037D01*
X004226Y011037D02*
X009903Y011037D01*
X009903Y011195D02*
X004354Y011195D01*
X004383Y011354D02*
X006898Y011354D01*
X006860Y011369D02*
X007003Y011310D01*
X007158Y011310D01*
X007300Y011369D01*
X007409Y011478D01*
X007469Y011621D01*
X007469Y011776D01*
X007409Y011918D01*
X007300Y012028D01*
X007158Y012087D01*
X007003Y012087D01*
X006860Y012028D01*
X006751Y011918D01*
X006692Y011776D01*
X006692Y011621D01*
X006751Y011478D01*
X006860Y011369D01*
X006737Y011512D02*
X004337Y011512D01*
X004344Y011671D02*
X006692Y011671D01*
X006714Y011829D02*
X004383Y011829D01*
X004347Y011988D02*
X006820Y011988D01*
X007003Y012310D02*
X007158Y012310D01*
X007300Y012369D01*
X007409Y012478D01*
X007469Y012621D01*
X007469Y012776D01*
X007409Y012918D01*
X007300Y013028D01*
X007158Y013087D01*
X007003Y013087D01*
X006860Y013028D01*
X006751Y012918D01*
X006692Y012776D01*
X006692Y012621D01*
X006751Y012478D01*
X006860Y012369D01*
X007003Y012310D01*
X006767Y012463D02*
X004357Y012463D01*
X004383Y012305D02*
X009903Y012305D01*
X009903Y012463D02*
X008394Y012463D01*
X008409Y012478D02*
X008469Y012621D01*
X008469Y012776D01*
X008409Y012918D01*
X008300Y013028D01*
X008158Y013087D01*
X008003Y013087D01*
X007860Y013028D01*
X007751Y012918D01*
X007692Y012776D01*
X007692Y012621D01*
X007751Y012478D01*
X007860Y012369D01*
X008003Y012310D01*
X008158Y012310D01*
X008300Y012369D01*
X008409Y012478D01*
X008469Y012622D02*
X009903Y012622D01*
X009903Y012780D02*
X008467Y012780D01*
X008389Y012939D02*
X009903Y012939D01*
X009903Y013097D02*
X004291Y013097D01*
X004367Y012939D02*
X006771Y012939D01*
X006694Y012780D02*
X004383Y012780D01*
X004315Y012622D02*
X006692Y012622D01*
X007394Y012463D02*
X007767Y012463D01*
X007692Y012622D02*
X007469Y012622D01*
X007467Y012780D02*
X007694Y012780D01*
X007771Y012939D02*
X007389Y012939D01*
X006670Y013573D02*
X004286Y013573D01*
X004369Y013731D02*
X006651Y013731D01*
X006696Y013890D02*
X004383Y013890D01*
X006529Y014841D02*
X009903Y014841D01*
X009903Y014999D02*
X006568Y014999D01*
X006495Y015158D02*
X009903Y015158D01*
X009903Y012146D02*
X004334Y012146D01*
X004159Y010279D02*
X003915Y010279D01*
X003690Y010186D01*
X003517Y010014D01*
X003424Y009788D01*
X003424Y009544D01*
X003517Y009319D01*
X003690Y009147D01*
X003915Y009053D01*
X004159Y009053D01*
X004384Y009147D01*
X004557Y009319D01*
X004650Y009544D01*
X004650Y009788D01*
X004557Y010014D01*
X004384Y010186D01*
X004159Y010279D01*
X004244Y010244D02*
X009903Y010244D01*
X009903Y010086D02*
X004485Y010086D01*
X004593Y009927D02*
X009903Y009927D01*
X009903Y009769D02*
X004650Y009769D01*
X004650Y009610D02*
X009903Y009610D01*
X009903Y009452D02*
X004612Y009452D01*
X004531Y009293D02*
X009903Y009293D01*
X009903Y009135D02*
X004355Y009135D01*
X003719Y009135D02*
X000494Y009135D01*
X000494Y009293D02*
X003543Y009293D01*
X003462Y009452D02*
X000494Y009452D01*
X000494Y009610D02*
X003424Y009610D01*
X003424Y009769D02*
X000494Y009769D01*
X000494Y009927D02*
X003481Y009927D01*
X003589Y010086D02*
X000494Y010086D01*
X000494Y010244D02*
X003830Y010244D01*
X000494Y010403D02*
X009903Y010403D01*
X009903Y010561D02*
X000494Y010561D01*
X000494Y010720D02*
X009903Y010720D01*
X009903Y010878D02*
X000494Y010878D01*
X000494Y008976D02*
X009903Y008976D01*
X009903Y008818D02*
X000494Y008818D01*
X000494Y008659D02*
X009903Y008659D01*
X009903Y008501D02*
X000494Y008501D01*
X000494Y008342D02*
X009903Y008342D01*
X009903Y008184D02*
X000494Y008184D01*
X000494Y008025D02*
X009903Y008025D01*
X009903Y007867D02*
X000494Y007867D01*
X000494Y007708D02*
X009903Y007708D01*
X009903Y007550D02*
X000494Y007550D01*
X000494Y007391D02*
X009903Y007391D01*
X009903Y007233D02*
X000494Y007233D01*
X000494Y007074D02*
X009903Y007074D01*
X009903Y006916D02*
X000494Y006916D01*
X000494Y006757D02*
X002527Y006757D01*
X002530Y006760D02*
X002420Y006651D01*
X002361Y006508D01*
X002361Y006353D01*
X002420Y006211D01*
X002530Y006102D01*
X002672Y006042D01*
X002827Y006042D01*
X002970Y006102D01*
X003079Y006211D01*
X003138Y006353D01*
X003138Y006508D01*
X003079Y006651D01*
X002970Y006760D01*
X002827Y006819D01*
X002672Y006819D01*
X002530Y006760D01*
X002399Y006599D02*
X000494Y006599D01*
X000494Y006440D02*
X002361Y006440D01*
X002391Y006282D02*
X000494Y006282D01*
X000494Y006123D02*
X002508Y006123D01*
X002641Y005806D02*
X000494Y005806D01*
X000494Y005648D02*
X002419Y005648D01*
X002420Y005651D02*
X002361Y005508D01*
X002361Y005353D01*
X002420Y005211D01*
X002530Y005102D01*
X002672Y005042D01*
X002827Y005042D01*
X002970Y005102D01*
X003079Y005211D01*
X003138Y005353D01*
X003138Y005508D01*
X003079Y005651D01*
X002970Y005760D01*
X002827Y005819D01*
X002672Y005819D01*
X002530Y005760D01*
X002420Y005651D01*
X002361Y005489D02*
X000494Y005489D01*
X000494Y005331D02*
X002371Y005331D01*
X002459Y005172D02*
X000494Y005172D01*
X000494Y005014D02*
X007127Y005014D01*
X007057Y005042D02*
X007200Y004983D01*
X007354Y004983D01*
X007497Y005042D01*
X007606Y005152D01*
X007665Y005294D01*
X007665Y005449D01*
X007606Y005592D01*
X007497Y005701D01*
X007354Y005760D01*
X007200Y005760D01*
X007057Y005701D01*
X006948Y005592D01*
X006889Y005449D01*
X006889Y005294D01*
X006948Y005152D01*
X007057Y005042D01*
X006940Y005172D02*
X004040Y005172D01*
X004079Y005211D02*
X004138Y005353D01*
X004138Y005508D01*
X004079Y005651D01*
X003970Y005760D01*
X003827Y005819D01*
X003672Y005819D01*
X003530Y005760D01*
X003420Y005651D01*
X003361Y005508D01*
X003361Y005353D01*
X003420Y005211D01*
X003530Y005102D01*
X003672Y005042D01*
X003827Y005042D01*
X003970Y005102D01*
X004079Y005211D01*
X004128Y005331D02*
X006889Y005331D01*
X006906Y005489D02*
X004138Y005489D01*
X004080Y005648D02*
X007004Y005648D01*
X007200Y005983D02*
X007354Y005983D01*
X007497Y006042D01*
X007606Y006152D01*
X007665Y006294D01*
X007665Y006449D01*
X007606Y006592D01*
X007497Y006701D01*
X007354Y006760D01*
X007200Y006760D01*
X007057Y006701D01*
X006948Y006592D01*
X006889Y006449D01*
X006889Y006294D01*
X006948Y006152D01*
X007057Y006042D01*
X007200Y005983D01*
X006977Y006123D02*
X003991Y006123D01*
X003970Y006102D02*
X004079Y006211D01*
X004138Y006353D01*
X004138Y006508D01*
X004079Y006651D01*
X003970Y006760D01*
X003827Y006819D01*
X003672Y006819D01*
X003530Y006760D01*
X003420Y006651D01*
X003361Y006508D01*
X003361Y006353D01*
X003420Y006211D01*
X003530Y006102D01*
X003672Y006042D01*
X003827Y006042D01*
X003970Y006102D01*
X004108Y006282D02*
X006894Y006282D01*
X006889Y006440D02*
X004138Y006440D01*
X004100Y006599D02*
X006955Y006599D01*
X007193Y006757D02*
X003972Y006757D01*
X003527Y006757D02*
X002972Y006757D01*
X003100Y006599D02*
X003399Y006599D01*
X003361Y006440D02*
X003138Y006440D01*
X003108Y006282D02*
X003391Y006282D01*
X003508Y006123D02*
X002991Y006123D01*
X002858Y005806D02*
X003641Y005806D01*
X003858Y005806D02*
X009903Y005806D01*
X009903Y005648D02*
X008550Y005648D01*
X008497Y005701D02*
X008354Y005760D01*
X008200Y005760D01*
X008057Y005701D01*
X007948Y005592D01*
X007889Y005449D01*
X007889Y005294D01*
X007948Y005152D01*
X008057Y005042D01*
X008200Y004983D01*
X008354Y004983D01*
X008497Y005042D01*
X008606Y005152D01*
X008665Y005294D01*
X008665Y005449D01*
X008606Y005592D01*
X008497Y005701D01*
X008649Y005489D02*
X009903Y005489D01*
X009903Y005331D02*
X008665Y005331D01*
X008615Y005172D02*
X009903Y005172D01*
X009903Y005014D02*
X008427Y005014D01*
X008354Y004760D02*
X008200Y004760D01*
X008057Y004701D01*
X007948Y004592D01*
X007889Y004449D01*
X007889Y004294D01*
X007948Y004152D01*
X008057Y004042D01*
X008200Y003983D01*
X008354Y003983D01*
X008497Y004042D01*
X008606Y004152D01*
X008665Y004294D01*
X008665Y004449D01*
X008606Y004592D01*
X008497Y004701D01*
X008354Y004760D01*
X008501Y004697D02*
X009903Y004697D01*
X009903Y004855D02*
X000494Y004855D01*
X000494Y004697D02*
X002466Y004697D01*
X002420Y004651D02*
X002361Y004508D01*
X002361Y004353D01*
X002420Y004211D01*
X002530Y004102D01*
X002672Y004042D01*
X002827Y004042D01*
X002970Y004102D01*
X003079Y004211D01*
X003138Y004353D01*
X003138Y004508D01*
X003079Y004651D01*
X002970Y004760D01*
X002827Y004819D01*
X002672Y004819D01*
X002530Y004760D01*
X002420Y004651D01*
X002374Y004538D02*
X000494Y004538D01*
X000494Y004380D02*
X002361Y004380D01*
X002416Y004221D02*
X000494Y004221D01*
X000494Y004063D02*
X002624Y004063D01*
X002672Y003819D02*
X002530Y003760D01*
X002420Y003651D01*
X002361Y003508D01*
X002361Y003353D01*
X002420Y003211D01*
X002530Y003102D01*
X002672Y003042D01*
X002827Y003042D01*
X002970Y003102D01*
X003079Y003211D01*
X003138Y003353D01*
X003138Y003508D01*
X003079Y003651D01*
X002970Y003760D01*
X002827Y003819D01*
X002672Y003819D01*
X002515Y003746D02*
X000494Y003746D01*
X000494Y003904D02*
X009903Y003904D01*
X009903Y003746D02*
X003984Y003746D01*
X003970Y003760D02*
X004079Y003651D01*
X004138Y003508D01*
X004138Y003353D01*
X004079Y003211D01*
X003970Y003102D01*
X003827Y003042D01*
X003672Y003042D01*
X003530Y003102D01*
X003420Y003211D01*
X003361Y003353D01*
X003361Y003508D01*
X003420Y003651D01*
X003530Y003760D01*
X003672Y003819D01*
X003827Y003819D01*
X003970Y003760D01*
X004105Y003587D02*
X009864Y003587D01*
X009753Y003429D02*
X004138Y003429D01*
X004103Y003270D02*
X009642Y003270D01*
X009531Y003112D02*
X003979Y003112D01*
X003827Y002819D02*
X003672Y002819D01*
X003530Y002760D01*
X003420Y002651D01*
X003361Y002508D01*
X003361Y002353D01*
X003420Y002211D01*
X003530Y002102D01*
X003672Y002042D01*
X003827Y002042D01*
X003970Y002102D01*
X004079Y002211D01*
X004138Y002353D01*
X004138Y002508D01*
X004079Y002651D01*
X003970Y002760D01*
X003827Y002819D01*
X003886Y002795D02*
X008693Y002795D01*
X008524Y002636D02*
X004085Y002636D01*
X004138Y002478D02*
X008407Y002478D01*
X008341Y002319D02*
X004124Y002319D01*
X004028Y002161D02*
X008307Y002161D01*
X008307Y002002D02*
X000494Y002002D01*
X000494Y001844D02*
X008331Y001844D01*
X008396Y001685D02*
X000494Y001685D01*
X000494Y001527D02*
X008328Y001527D01*
X008201Y001368D02*
X000494Y001368D01*
X000494Y001210D02*
X008074Y001210D01*
X007947Y001051D02*
X000494Y001051D01*
X000494Y000893D02*
X007821Y000893D01*
X007694Y000734D02*
X000494Y000734D01*
X000494Y000576D02*
X007567Y000576D01*
X009420Y002953D02*
X000494Y002953D01*
X000494Y002795D02*
X002613Y002795D01*
X002672Y002819D02*
X002530Y002760D01*
X002420Y002651D01*
X002361Y002508D01*
X002361Y002353D01*
X002420Y002211D01*
X002530Y002102D01*
X002672Y002042D01*
X002827Y002042D01*
X002970Y002102D01*
X003079Y002211D01*
X003138Y002353D01*
X003138Y002508D01*
X003079Y002651D01*
X002970Y002760D01*
X002827Y002819D01*
X002672Y002819D01*
X002886Y002795D02*
X003613Y002795D01*
X003414Y002636D02*
X003085Y002636D01*
X003138Y002478D02*
X003361Y002478D01*
X003376Y002319D02*
X003124Y002319D01*
X003028Y002161D02*
X003471Y002161D01*
X002471Y002161D02*
X000494Y002161D01*
X000494Y002319D02*
X002376Y002319D01*
X002361Y002478D02*
X000494Y002478D01*
X000494Y002636D02*
X002414Y002636D01*
X002520Y003112D02*
X000494Y003112D01*
X000494Y003270D02*
X002396Y003270D01*
X002361Y003429D02*
X000494Y003429D01*
X000494Y003587D02*
X002394Y003587D01*
X002984Y003746D02*
X003515Y003746D01*
X003394Y003587D02*
X003105Y003587D01*
X003138Y003429D02*
X003361Y003429D01*
X003396Y003270D02*
X003103Y003270D01*
X002979Y003112D02*
X003520Y003112D01*
X003672Y004042D02*
X003827Y004042D01*
X003970Y004102D01*
X004079Y004211D01*
X004138Y004353D01*
X004138Y004508D01*
X004079Y004651D01*
X003970Y004760D01*
X003827Y004819D01*
X003672Y004819D01*
X003530Y004760D01*
X003420Y004651D01*
X003361Y004508D01*
X003361Y004353D01*
X003420Y004211D01*
X003530Y004102D01*
X003672Y004042D01*
X003624Y004063D02*
X002875Y004063D01*
X003083Y004221D02*
X003416Y004221D01*
X003361Y004380D02*
X003138Y004380D01*
X003125Y004538D02*
X003374Y004538D01*
X003466Y004697D02*
X003033Y004697D01*
X003040Y005172D02*
X003459Y005172D01*
X003371Y005331D02*
X003128Y005331D01*
X003138Y005489D02*
X003361Y005489D01*
X003419Y005648D02*
X003080Y005648D01*
X004033Y004697D02*
X007053Y004697D01*
X007057Y004701D02*
X006948Y004592D01*
X006889Y004449D01*
X006889Y004294D01*
X006948Y004152D01*
X007057Y004042D01*
X007200Y003983D01*
X007354Y003983D01*
X007497Y004042D01*
X007606Y004152D01*
X007665Y004294D01*
X007665Y004449D01*
X007606Y004592D01*
X007497Y004701D01*
X007354Y004760D01*
X007200Y004760D01*
X007057Y004701D01*
X006926Y004538D02*
X004125Y004538D01*
X004138Y004380D02*
X006889Y004380D01*
X006919Y004221D02*
X004083Y004221D01*
X003875Y004063D02*
X007037Y004063D01*
X007517Y004063D02*
X008037Y004063D01*
X007919Y004221D02*
X007635Y004221D01*
X007665Y004380D02*
X007889Y004380D01*
X007926Y004538D02*
X007629Y004538D01*
X007501Y004697D02*
X008053Y004697D01*
X008127Y005014D02*
X007427Y005014D01*
X007615Y005172D02*
X007940Y005172D01*
X007889Y005331D02*
X007665Y005331D01*
X007649Y005489D02*
X007906Y005489D01*
X008004Y005648D02*
X007550Y005648D01*
X007578Y006123D02*
X007977Y006123D01*
X007948Y006152D02*
X008057Y006042D01*
X008200Y005983D01*
X008354Y005983D01*
X008497Y006042D01*
X008606Y006152D01*
X008665Y006294D01*
X008665Y006449D01*
X008606Y006592D01*
X008497Y006701D01*
X008354Y006760D01*
X008200Y006760D01*
X008057Y006701D01*
X007948Y006592D01*
X007889Y006449D01*
X007889Y006294D01*
X007948Y006152D01*
X007894Y006282D02*
X007660Y006282D01*
X007665Y006440D02*
X007889Y006440D01*
X007955Y006599D02*
X007599Y006599D01*
X007361Y006757D02*
X008193Y006757D01*
X008361Y006757D02*
X009903Y006757D01*
X009903Y006599D02*
X008599Y006599D01*
X008665Y006440D02*
X009903Y006440D01*
X009903Y006282D02*
X008660Y006282D01*
X008578Y006123D02*
X009903Y006123D01*
X009903Y005965D02*
X000494Y005965D01*
X008517Y004063D02*
X009903Y004063D01*
X009903Y004221D02*
X008635Y004221D01*
X008665Y004380D02*
X009903Y004380D01*
X009903Y004538D02*
X008629Y004538D01*
X010494Y008818D02*
X012381Y008818D01*
X012274Y008976D02*
X010494Y008976D01*
X010494Y009135D02*
X012240Y009135D01*
X012263Y009293D02*
X010494Y009293D01*
X009903Y011354D02*
X008262Y011354D01*
X008300Y011369D02*
X008409Y011478D01*
X008469Y011621D01*
X008469Y011776D01*
X008409Y011918D01*
X008300Y012028D01*
X008158Y012087D01*
X008003Y012087D01*
X007860Y012028D01*
X007751Y011918D01*
X007692Y011776D01*
X007692Y011621D01*
X007751Y011478D01*
X007860Y011369D01*
X008003Y011310D01*
X008158Y011310D01*
X008300Y011369D01*
X008423Y011512D02*
X009903Y011512D01*
X009903Y011671D02*
X008469Y011671D01*
X008446Y011829D02*
X009903Y011829D01*
X009903Y011988D02*
X008340Y011988D01*
X007820Y011988D02*
X007340Y011988D01*
X007446Y011829D02*
X007714Y011829D01*
X007692Y011671D02*
X007469Y011671D01*
X007423Y011512D02*
X007737Y011512D01*
X007898Y011354D02*
X007262Y011354D01*
X004037Y016584D02*
X004037Y016584D01*
X004037Y016743D02*
X004037Y016743D01*
X004037Y016832D02*
X004037Y016832D01*
X004037Y016901D02*
X004037Y016901D01*
X004037Y017060D02*
X004037Y017060D01*
X004037Y017218D02*
X004037Y017218D01*
X004037Y017332D02*
X004037Y017332D01*
X004037Y017377D02*
X004037Y017377D01*
X004037Y017535D02*
X004037Y017535D01*
X004037Y017694D02*
X004037Y017694D01*
D16*
X009155Y024509D03*
X041242Y024706D03*
X041242Y002069D03*
X016242Y002069D03*
X009155Y002069D03*
M02*
