G75*
G70*
%OFA0B0*%
%FSLAX24Y24*%
%IPPOS*%
%LPD*%
%AMOC8*
5,1,8,0,0,1.08239X$1,22.5*
%
%ADD10C,0.0000*%
%ADD11C,0.0100*%
%ADD12C,0.0060*%
%ADD13C,0.0160*%
%ADD14C,0.0040*%
%ADD15C,0.0030*%
%ADD16C,0.0020*%
%ADD17C,0.0039*%
%ADD18C,0.0050*%
D10*
X000100Y000100D02*
X000100Y026675D01*
X043604Y026675D01*
X043604Y000100D01*
X000100Y000100D01*
X003604Y009666D02*
X003606Y009707D01*
X003612Y009748D01*
X003622Y009788D01*
X003635Y009827D01*
X003652Y009864D01*
X003673Y009900D01*
X003697Y009934D01*
X003724Y009965D01*
X003753Y009993D01*
X003786Y010019D01*
X003820Y010041D01*
X003857Y010060D01*
X003895Y010075D01*
X003935Y010087D01*
X003975Y010095D01*
X004016Y010099D01*
X004058Y010099D01*
X004099Y010095D01*
X004139Y010087D01*
X004179Y010075D01*
X004217Y010060D01*
X004253Y010041D01*
X004288Y010019D01*
X004321Y009993D01*
X004350Y009965D01*
X004377Y009934D01*
X004401Y009900D01*
X004422Y009864D01*
X004439Y009827D01*
X004452Y009788D01*
X004462Y009748D01*
X004468Y009707D01*
X004470Y009666D01*
X004468Y009625D01*
X004462Y009584D01*
X004452Y009544D01*
X004439Y009505D01*
X004422Y009468D01*
X004401Y009432D01*
X004377Y009398D01*
X004350Y009367D01*
X004321Y009339D01*
X004288Y009313D01*
X004254Y009291D01*
X004217Y009272D01*
X004179Y009257D01*
X004139Y009245D01*
X004099Y009237D01*
X004058Y009233D01*
X004016Y009233D01*
X003975Y009237D01*
X003935Y009245D01*
X003895Y009257D01*
X003857Y009272D01*
X003821Y009291D01*
X003786Y009313D01*
X003753Y009339D01*
X003724Y009367D01*
X003697Y009398D01*
X003673Y009432D01*
X003652Y009468D01*
X003635Y009505D01*
X003622Y009544D01*
X003612Y009584D01*
X003606Y009625D01*
X003604Y009666D01*
X003604Y025499D02*
X003606Y025540D01*
X003612Y025581D01*
X003622Y025621D01*
X003635Y025660D01*
X003652Y025697D01*
X003673Y025733D01*
X003697Y025767D01*
X003724Y025798D01*
X003753Y025826D01*
X003786Y025852D01*
X003820Y025874D01*
X003857Y025893D01*
X003895Y025908D01*
X003935Y025920D01*
X003975Y025928D01*
X004016Y025932D01*
X004058Y025932D01*
X004099Y025928D01*
X004139Y025920D01*
X004179Y025908D01*
X004217Y025893D01*
X004253Y025874D01*
X004288Y025852D01*
X004321Y025826D01*
X004350Y025798D01*
X004377Y025767D01*
X004401Y025733D01*
X004422Y025697D01*
X004439Y025660D01*
X004452Y025621D01*
X004462Y025581D01*
X004468Y025540D01*
X004470Y025499D01*
X004468Y025458D01*
X004462Y025417D01*
X004452Y025377D01*
X004439Y025338D01*
X004422Y025301D01*
X004401Y025265D01*
X004377Y025231D01*
X004350Y025200D01*
X004321Y025172D01*
X004288Y025146D01*
X004254Y025124D01*
X004217Y025105D01*
X004179Y025090D01*
X004139Y025078D01*
X004099Y025070D01*
X004058Y025066D01*
X004016Y025066D01*
X003975Y025070D01*
X003935Y025078D01*
X003895Y025090D01*
X003857Y025105D01*
X003821Y025124D01*
X003786Y025146D01*
X003753Y025172D01*
X003724Y025200D01*
X003697Y025231D01*
X003673Y025265D01*
X003652Y025301D01*
X003635Y025338D01*
X003622Y025377D01*
X003612Y025417D01*
X003606Y025458D01*
X003604Y025499D01*
D11*
X006616Y009482D02*
X009316Y009482D01*
X009316Y007782D01*
X006616Y007782D01*
X006616Y009482D01*
D12*
X006830Y011198D02*
X008330Y011198D01*
X008580Y011448D01*
X008580Y011948D01*
X008330Y012198D01*
X006830Y012198D01*
X006580Y011948D01*
X006580Y011448D01*
X006830Y011198D01*
X006830Y012198D02*
X006580Y012448D01*
X006580Y012948D01*
X006830Y013198D01*
X008330Y013198D01*
X008580Y012948D01*
X008580Y012448D01*
X008330Y012198D01*
X008330Y013198D02*
X008580Y013448D01*
X008580Y013948D01*
X008330Y014198D01*
X006830Y014198D01*
X006580Y013948D01*
X006580Y013448D01*
X006830Y013198D01*
X010366Y015411D02*
X011006Y015411D01*
X011006Y015838D01*
X011006Y016056D02*
X010579Y016056D01*
X010366Y016269D01*
X010579Y016483D01*
X011006Y016483D01*
X011006Y016700D02*
X010366Y016700D01*
X011006Y017127D01*
X010366Y017127D01*
X010366Y017345D02*
X011006Y017345D01*
X011006Y017772D01*
X010899Y017989D02*
X010472Y018416D01*
X010899Y018416D01*
X011006Y018310D01*
X011006Y018096D01*
X010899Y017989D01*
X010472Y017989D01*
X010366Y018096D01*
X010366Y018310D01*
X010472Y018416D01*
X010366Y017772D02*
X010366Y017345D01*
X010686Y017345D02*
X010686Y017558D01*
X010686Y016483D02*
X010686Y016056D01*
X018918Y016342D02*
X019131Y016129D01*
X019558Y016129D01*
X019558Y015911D02*
X019558Y015484D01*
X018918Y015484D01*
X019238Y016129D02*
X019238Y016556D01*
X019131Y016556D02*
X019558Y016556D01*
X019558Y016773D02*
X018918Y016773D01*
X019558Y017200D01*
X018918Y017200D01*
X018918Y017418D02*
X019558Y017418D01*
X019558Y017845D01*
X019558Y018063D02*
X019131Y018490D01*
X019024Y018490D01*
X018918Y018383D01*
X018918Y018169D01*
X019024Y018063D01*
X018918Y017845D02*
X018918Y017418D01*
X019238Y017418D02*
X019238Y017631D01*
X019558Y018063D02*
X019558Y018490D01*
X019131Y016556D02*
X018918Y016342D01*
X027185Y016342D02*
X027399Y016129D01*
X027826Y016129D01*
X027826Y015911D02*
X027826Y015484D01*
X027185Y015484D01*
X027506Y016129D02*
X027506Y016556D01*
X027399Y016556D02*
X027826Y016556D01*
X027826Y016773D02*
X027185Y016773D01*
X027826Y017200D01*
X027185Y017200D01*
X027185Y017418D02*
X027826Y017418D01*
X027826Y017845D01*
X027719Y018063D02*
X027826Y018169D01*
X027826Y018383D01*
X027719Y018490D01*
X027506Y018490D01*
X027399Y018383D01*
X027399Y018276D01*
X027506Y018063D01*
X027185Y018063D01*
X027185Y018490D01*
X027185Y017845D02*
X027185Y017418D01*
X027506Y017418D02*
X027506Y017631D01*
X027399Y016556D02*
X027185Y016342D01*
X035650Y016342D02*
X035863Y016556D01*
X036290Y016556D01*
X036290Y016773D02*
X035650Y016773D01*
X036290Y017200D01*
X035650Y017200D01*
X035650Y017418D02*
X036290Y017418D01*
X036290Y017845D01*
X036290Y018063D02*
X036184Y018063D01*
X035757Y018490D01*
X035650Y018490D01*
X035650Y018063D01*
X035650Y017845D02*
X035650Y017418D01*
X035970Y017418D02*
X035970Y017631D01*
X035970Y016556D02*
X035970Y016129D01*
X035863Y016129D02*
X035650Y016342D01*
X035863Y016129D02*
X036290Y016129D01*
X036290Y015911D02*
X036290Y015484D01*
X035650Y015484D01*
X035453Y009828D02*
X035560Y009615D01*
X035773Y009401D01*
X035773Y009721D01*
X035880Y009828D01*
X035987Y009828D01*
X036094Y009721D01*
X036094Y009508D01*
X035987Y009401D01*
X035773Y009401D01*
X035453Y009184D02*
X035453Y008757D01*
X036094Y008757D01*
X036094Y009184D01*
X035773Y008970D02*
X035773Y008757D01*
X035453Y008539D02*
X036094Y008539D01*
X035453Y008112D01*
X036094Y008112D01*
X036094Y007894D02*
X035667Y007894D01*
X035453Y007681D01*
X035667Y007467D01*
X036094Y007467D01*
X036094Y007250D02*
X036094Y006823D01*
X035453Y006823D01*
X035773Y007467D02*
X035773Y007894D01*
X027629Y007894D02*
X027202Y007894D01*
X026989Y007681D01*
X027202Y007467D01*
X027629Y007467D01*
X027629Y007250D02*
X027629Y006823D01*
X026989Y006823D01*
X027309Y007467D02*
X027309Y007894D01*
X027629Y008112D02*
X026989Y008112D01*
X027629Y008539D01*
X026989Y008539D01*
X026989Y008757D02*
X027629Y008757D01*
X027629Y009184D01*
X027309Y008970D02*
X027309Y008757D01*
X026989Y008757D02*
X026989Y009184D01*
X027309Y009401D02*
X027309Y009828D01*
X027629Y009721D02*
X026989Y009721D01*
X027309Y009401D01*
X019558Y009508D02*
X019451Y009401D01*
X019558Y009508D02*
X019558Y009721D01*
X019451Y009828D01*
X019345Y009828D01*
X019238Y009721D01*
X019238Y009615D01*
X019238Y009721D02*
X019131Y009828D01*
X019024Y009828D01*
X018918Y009721D01*
X018918Y009508D01*
X019024Y009401D01*
X018918Y009184D02*
X018918Y008757D01*
X019558Y008757D01*
X019558Y009184D01*
X019238Y008970D02*
X019238Y008757D01*
X019558Y008539D02*
X018918Y008539D01*
X018918Y008112D02*
X019558Y008539D01*
X019558Y008112D02*
X018918Y008112D01*
X019131Y007894D02*
X019558Y007894D01*
X019238Y007894D02*
X019238Y007467D01*
X019131Y007467D02*
X019558Y007467D01*
X019558Y007250D02*
X019558Y006823D01*
X018918Y006823D01*
X019131Y007467D02*
X018918Y007681D01*
X019131Y007894D01*
X011094Y008091D02*
X010667Y008091D01*
X010453Y007878D01*
X010667Y007664D01*
X011094Y007664D01*
X011094Y007447D02*
X011094Y007020D01*
X010453Y007020D01*
X010773Y007664D02*
X010773Y008091D01*
X010453Y008309D02*
X011094Y008736D01*
X010453Y008736D01*
X010453Y008953D02*
X011094Y008953D01*
X011094Y009380D01*
X011094Y009598D02*
X011094Y010025D01*
X011094Y009811D02*
X010453Y009811D01*
X010667Y009598D01*
X010453Y009380D02*
X010453Y008953D01*
X010773Y008953D02*
X010773Y009167D01*
X010453Y008309D02*
X011094Y008309D01*
X008777Y006622D02*
X008527Y006872D01*
X007027Y006872D01*
X006777Y006622D01*
X006777Y006122D01*
X007027Y005872D01*
X008527Y005872D01*
X008777Y005622D01*
X008777Y005122D01*
X008527Y004872D01*
X008777Y004622D01*
X008777Y004122D01*
X008527Y003872D01*
X007027Y003872D01*
X006777Y004122D01*
X006777Y004622D01*
X007027Y004872D01*
X008527Y004872D01*
X008527Y005872D02*
X008777Y006122D01*
X008777Y006622D01*
X007027Y005872D02*
X006777Y005622D01*
X006777Y005122D01*
X007027Y004872D01*
X004250Y004681D02*
X004250Y004181D01*
X004000Y003931D01*
X004250Y003681D01*
X004250Y003181D01*
X004000Y002931D01*
X004250Y002681D01*
X004250Y002181D01*
X004000Y001931D01*
X002500Y001931D01*
X002250Y002181D01*
X002250Y002681D01*
X002500Y002931D01*
X002250Y003181D01*
X002250Y003681D01*
X002500Y003931D01*
X002250Y004181D01*
X002250Y004681D01*
X002500Y004931D01*
X002250Y005181D01*
X002250Y005681D01*
X002500Y005931D01*
X002250Y006181D01*
X002250Y006681D01*
X002500Y006931D01*
X004000Y006931D01*
X004250Y006681D01*
X004250Y006181D01*
X004000Y005931D01*
X004250Y005681D01*
X004250Y005181D01*
X004000Y004931D01*
X004250Y004681D01*
D13*
X009432Y004235D02*
X010639Y004235D01*
X010639Y005140D02*
X010639Y003330D01*
X009432Y003330D02*
X009432Y005140D01*
X017897Y005140D02*
X017897Y003330D01*
X017897Y004235D02*
X019103Y004235D01*
X019103Y005140D02*
X019103Y003330D01*
X026164Y003330D02*
X027069Y003330D01*
X027371Y003631D01*
X027371Y004838D01*
X027069Y005140D01*
X026164Y005140D01*
X026164Y003330D01*
X034629Y003330D02*
X035534Y003330D01*
X035836Y003631D01*
X035836Y004838D01*
X035534Y005140D01*
X034629Y005140D01*
X034629Y003330D01*
X034629Y011991D02*
X034629Y013801D01*
X035836Y013801D02*
X035836Y011991D01*
X035836Y012896D02*
X034629Y012896D01*
X027371Y012896D02*
X026164Y012896D01*
X026164Y011991D02*
X026164Y013801D01*
X027371Y013801D02*
X027371Y011991D01*
X019103Y012293D02*
X018802Y011991D01*
X017897Y011991D01*
X017897Y013801D01*
X018802Y013801D01*
X019103Y013499D01*
X019103Y012293D01*
X010639Y012293D02*
X010639Y013499D01*
X010337Y013801D01*
X009432Y013801D01*
X009432Y011991D01*
X010337Y011991D01*
X010639Y012293D01*
D14*
X005867Y011958D02*
X005560Y011651D01*
X005560Y011498D02*
X005867Y011498D01*
X005867Y011267D01*
X005791Y011191D01*
X005560Y011191D01*
X005560Y011037D02*
X005867Y011037D01*
X005637Y011037D02*
X005637Y010730D01*
X005560Y010730D02*
X005407Y010884D01*
X005560Y011037D01*
X005560Y010730D02*
X005867Y010730D01*
X005867Y011651D02*
X005560Y011958D01*
X005484Y012572D02*
X005791Y012572D01*
X005867Y012649D01*
X005867Y012802D01*
X005791Y012879D01*
X005637Y012879D01*
X005637Y012725D01*
X005484Y012572D02*
X005407Y012649D01*
X005407Y012802D01*
X005484Y012879D01*
X005407Y013032D02*
X005407Y013262D01*
X005484Y013339D01*
X005637Y013339D01*
X005714Y013262D01*
X005714Y013032D01*
X005867Y013032D02*
X005407Y013032D01*
X005407Y013493D02*
X005407Y013646D01*
X005407Y013569D02*
X005867Y013569D01*
X005867Y013493D02*
X005867Y013646D01*
X005791Y013800D02*
X005484Y013800D01*
X005407Y013876D01*
X005407Y014030D01*
X005484Y014106D01*
X005791Y014106D01*
X005867Y014030D01*
X005867Y013876D01*
X005791Y013800D01*
X005714Y017620D02*
X005714Y017927D01*
X005867Y018080D02*
X005944Y018157D01*
X005944Y018311D01*
X005867Y018387D01*
X005791Y018387D01*
X005714Y018311D01*
X005714Y018234D01*
X005714Y018311D02*
X005637Y018387D01*
X005561Y018387D01*
X005484Y018311D01*
X005484Y018157D01*
X005561Y018080D01*
X005561Y017773D02*
X005867Y017773D01*
X006311Y017773D02*
X006617Y017773D01*
X006464Y017620D02*
X006464Y017927D01*
X006387Y018080D02*
X006234Y018234D01*
X006694Y018234D01*
X006694Y018387D02*
X006694Y018080D01*
X006694Y018541D02*
X006387Y018848D01*
X006311Y018848D01*
X006234Y018771D01*
X006234Y018618D01*
X006311Y018541D01*
X005944Y018541D02*
X005944Y018618D01*
X005867Y018618D01*
X005867Y018541D01*
X005944Y018541D01*
X005867Y018771D02*
X005944Y018848D01*
X005944Y019001D01*
X005867Y019078D01*
X005791Y019078D01*
X005714Y019001D01*
X005714Y018924D01*
X005714Y019001D02*
X005637Y019078D01*
X005561Y019078D01*
X005484Y019001D01*
X005484Y018848D01*
X005561Y018771D01*
X005484Y019231D02*
X005791Y019231D01*
X005944Y019385D01*
X005791Y019538D01*
X005484Y019538D01*
X006234Y019308D02*
X006541Y019308D01*
X006694Y019155D01*
X006541Y019001D01*
X006234Y019001D01*
X006694Y018848D02*
X006694Y018541D01*
X006694Y019922D02*
X006694Y020152D01*
X006617Y020229D01*
X006464Y020229D01*
X006387Y020152D01*
X006387Y019922D01*
X006848Y019922D01*
X006617Y020382D02*
X006464Y020382D01*
X006387Y020459D01*
X006387Y020613D01*
X006464Y020689D01*
X006617Y020689D01*
X006694Y020613D01*
X006694Y020459D01*
X006617Y020382D01*
X006617Y020843D02*
X006387Y020843D01*
X006617Y020843D02*
X006694Y020919D01*
X006617Y020996D01*
X006694Y021073D01*
X006617Y021150D01*
X006387Y021150D01*
X006464Y021303D02*
X006387Y021380D01*
X006387Y021533D01*
X006464Y021610D01*
X006541Y021610D01*
X006541Y021303D01*
X006617Y021303D02*
X006464Y021303D01*
X006617Y021303D02*
X006694Y021380D01*
X006694Y021533D01*
X006694Y021764D02*
X006387Y021764D01*
X006387Y021917D02*
X006387Y021994D01*
X006387Y021917D02*
X006541Y021764D01*
X005944Y021380D02*
X005484Y021380D01*
X005637Y021380D02*
X005637Y021150D01*
X005714Y021073D01*
X005867Y021073D01*
X005944Y021150D01*
X005944Y021380D01*
X005944Y020919D02*
X005714Y020919D01*
X005637Y020843D01*
X005637Y020613D01*
X005944Y020613D01*
X005944Y020459D02*
X005944Y020229D01*
X005867Y020152D01*
X005791Y020229D01*
X005791Y020459D01*
X005714Y020459D02*
X005944Y020459D01*
X005714Y020459D02*
X005637Y020382D01*
X005637Y020229D01*
X017837Y001143D02*
X018053Y001143D01*
X018125Y001071D01*
X018125Y000927D01*
X018053Y000855D01*
X017837Y000855D01*
X017837Y000711D02*
X017837Y001143D01*
X018272Y001071D02*
X018272Y000783D01*
X018344Y000711D01*
X018488Y000711D01*
X018560Y000783D01*
X018707Y000711D02*
X018851Y000711D01*
X018779Y000711D02*
X018779Y001143D01*
X018707Y001143D02*
X018851Y001143D01*
X018997Y000927D02*
X019285Y000927D01*
X019432Y000927D02*
X019504Y000999D01*
X019648Y000999D01*
X019720Y000927D01*
X019720Y000855D01*
X019432Y000855D01*
X019432Y000783D02*
X019432Y000927D01*
X019432Y000783D02*
X019504Y000711D01*
X019648Y000711D01*
X020302Y000999D02*
X020446Y000999D01*
X020374Y001071D02*
X020374Y000783D01*
X020446Y000711D01*
X020592Y000783D02*
X020592Y000927D01*
X020664Y000999D01*
X020808Y000999D01*
X020880Y000927D01*
X020880Y000783D01*
X020808Y000711D01*
X020664Y000711D01*
X020592Y000783D01*
X021462Y000783D02*
X021534Y000711D01*
X021678Y000711D01*
X021750Y000783D01*
X021750Y000855D01*
X021678Y000927D01*
X021534Y000927D01*
X021462Y000999D01*
X021462Y001071D01*
X021534Y001143D01*
X021678Y001143D01*
X021750Y001071D01*
X021897Y000999D02*
X022041Y001143D01*
X022185Y000999D01*
X022185Y000711D01*
X022185Y000927D02*
X021897Y000927D01*
X021897Y000999D02*
X021897Y000711D01*
X022476Y000711D02*
X022476Y001143D01*
X022332Y001143D02*
X022620Y001143D01*
X022767Y000999D02*
X022911Y001143D01*
X023055Y000999D01*
X023055Y000711D01*
X023055Y000927D02*
X022767Y000927D01*
X022767Y000999D02*
X022767Y000711D01*
X023637Y000783D02*
X023709Y000855D01*
X023925Y000855D01*
X023925Y000927D02*
X023925Y000711D01*
X023709Y000711D01*
X023637Y000783D01*
X023709Y000999D02*
X023853Y000999D01*
X023925Y000927D01*
X024072Y000927D02*
X024072Y000783D01*
X024144Y000711D01*
X024360Y000711D01*
X024360Y001143D01*
X024360Y000999D02*
X024144Y000999D01*
X024072Y000927D01*
X024507Y000783D02*
X024579Y000855D01*
X024795Y000855D01*
X024795Y000927D02*
X024795Y000711D01*
X024579Y000711D01*
X024507Y000783D01*
X024579Y000999D02*
X024723Y000999D01*
X024795Y000927D01*
X024942Y000999D02*
X024942Y000566D01*
X024942Y000711D02*
X025158Y000711D01*
X025230Y000783D01*
X025230Y000927D01*
X025158Y000999D01*
X024942Y000999D01*
X025377Y000999D02*
X025521Y000999D01*
X025449Y001071D02*
X025449Y000783D01*
X025521Y000711D01*
X025667Y000783D02*
X025739Y000711D01*
X025883Y000711D01*
X025955Y000783D01*
X025955Y000927D01*
X025883Y000999D01*
X025739Y000999D01*
X025667Y000927D01*
X025667Y000783D01*
X026102Y000855D02*
X026246Y000999D01*
X026318Y000999D01*
X026102Y000999D02*
X026102Y000711D01*
X026464Y000566D02*
X026609Y000711D01*
X026537Y000711D01*
X026537Y000783D01*
X026609Y000783D01*
X026609Y000711D01*
X027189Y000783D02*
X027189Y001071D01*
X027262Y001143D01*
X027406Y001143D01*
X027478Y001071D01*
X027624Y000927D02*
X027624Y000783D01*
X027697Y000711D01*
X027841Y000711D01*
X027913Y000783D01*
X027913Y000927D01*
X027841Y000999D01*
X027697Y000999D01*
X027624Y000927D01*
X027478Y000783D02*
X027406Y000711D01*
X027262Y000711D01*
X027189Y000783D01*
X028059Y000711D02*
X028276Y000711D01*
X028348Y000783D01*
X028348Y000927D01*
X028276Y000999D01*
X028059Y000999D01*
X028059Y000566D01*
X028494Y000783D02*
X028494Y000999D01*
X028494Y000783D02*
X028567Y000711D01*
X028783Y000711D01*
X028783Y000638D02*
X028711Y000566D01*
X028639Y000566D01*
X028783Y000638D02*
X028783Y000999D01*
X028929Y000999D02*
X028929Y000711D01*
X028929Y000855D02*
X029074Y000999D01*
X029146Y000999D01*
X029292Y000999D02*
X029364Y000999D01*
X029364Y000711D01*
X029292Y000711D02*
X029436Y000711D01*
X029582Y000783D02*
X029654Y000711D01*
X029871Y000711D01*
X029871Y000638D02*
X029871Y000999D01*
X029654Y000999D01*
X029582Y000927D01*
X029582Y000783D01*
X029726Y000566D02*
X029798Y000566D01*
X029871Y000638D01*
X030017Y000711D02*
X030017Y001143D01*
X030089Y000999D02*
X030233Y000999D01*
X030306Y000927D01*
X030306Y000711D01*
X030524Y000783D02*
X030596Y000711D01*
X030524Y000783D02*
X030524Y001071D01*
X030452Y000999D02*
X030596Y000999D01*
X031177Y000999D02*
X031177Y001071D01*
X031249Y001143D01*
X031393Y001143D01*
X031466Y001071D01*
X031393Y000927D02*
X031466Y000855D01*
X031466Y000783D01*
X031393Y000711D01*
X031249Y000711D01*
X031177Y000783D01*
X031249Y000927D02*
X031393Y000927D01*
X031249Y000927D02*
X031177Y000999D01*
X031612Y000999D02*
X031684Y000999D01*
X031684Y000711D01*
X031612Y000711D02*
X031756Y000711D01*
X031902Y000711D02*
X031902Y000999D01*
X031974Y000999D01*
X032046Y000927D01*
X032118Y000999D01*
X032191Y000927D01*
X032191Y000711D01*
X032046Y000711D02*
X032046Y000927D01*
X032337Y000927D02*
X032337Y000783D01*
X032409Y000711D01*
X032554Y000711D01*
X032626Y000783D01*
X032626Y000927D01*
X032554Y000999D01*
X032409Y000999D01*
X032337Y000927D01*
X032772Y000999D02*
X032772Y000711D01*
X032772Y000999D02*
X032989Y000999D01*
X033061Y000927D01*
X033061Y000711D01*
X033642Y000711D02*
X033642Y001143D01*
X033786Y000999D01*
X033931Y001143D01*
X033931Y000711D01*
X034077Y000783D02*
X034149Y000711D01*
X034294Y000711D01*
X034366Y000783D01*
X034366Y000927D01*
X034294Y000999D01*
X034149Y000999D01*
X034077Y000927D01*
X034077Y000783D01*
X034512Y000783D02*
X034512Y000927D01*
X034584Y000999D01*
X034729Y000999D01*
X034801Y000927D01*
X034801Y000783D01*
X034729Y000711D01*
X034584Y000711D01*
X034512Y000783D01*
X034947Y000855D02*
X035091Y000999D01*
X035164Y000999D01*
X035310Y000927D02*
X035382Y000999D01*
X035526Y000999D01*
X035598Y000927D01*
X035598Y000855D01*
X035310Y000855D01*
X035310Y000783D02*
X035310Y000927D01*
X035310Y000783D02*
X035382Y000711D01*
X035526Y000711D01*
X036180Y000711D02*
X036468Y000999D01*
X036468Y001071D01*
X036396Y001143D01*
X036252Y001143D01*
X036180Y001071D01*
X036615Y001071D02*
X036687Y001143D01*
X036831Y001143D01*
X036903Y001071D01*
X036615Y000783D01*
X036687Y000711D01*
X036831Y000711D01*
X036903Y000783D01*
X036903Y001071D01*
X037050Y000999D02*
X037194Y001143D01*
X037194Y000711D01*
X037050Y000711D02*
X037338Y000711D01*
X037485Y000711D02*
X037773Y000711D01*
X037629Y000711D02*
X037629Y001143D01*
X037485Y000999D01*
X037920Y000927D02*
X038208Y000927D01*
X038355Y001071D02*
X038427Y001143D01*
X038571Y001143D01*
X038643Y001071D01*
X038643Y000999D01*
X038571Y000927D01*
X038643Y000855D01*
X038643Y000783D01*
X038571Y000711D01*
X038427Y000711D01*
X038355Y000783D01*
X038499Y000927D02*
X038571Y000927D01*
X036615Y000783D02*
X036615Y001071D01*
X036468Y000711D02*
X036180Y000711D01*
X034947Y000711D02*
X034947Y000999D01*
X031684Y001143D02*
X031684Y001215D01*
X030089Y000999D02*
X030017Y000927D01*
X029364Y001143D02*
X029364Y001215D01*
X018560Y001071D02*
X018488Y001143D01*
X018344Y001143D01*
X018272Y001071D01*
D15*
X009051Y008051D02*
X008990Y007989D01*
X008866Y007989D01*
X008804Y008051D01*
X008683Y007989D02*
X008683Y008359D01*
X008560Y008236D01*
X008436Y008359D01*
X008436Y007989D01*
X008191Y007989D02*
X008191Y008359D01*
X008068Y008359D02*
X008315Y008359D01*
X008436Y008501D02*
X008621Y008501D01*
X008683Y008563D01*
X008683Y008809D01*
X008621Y008871D01*
X008436Y008871D01*
X008436Y008501D01*
X008191Y008501D02*
X008191Y008871D01*
X008191Y008973D02*
X008191Y009344D01*
X008068Y009344D02*
X008315Y009344D01*
X008436Y009282D02*
X008436Y009035D01*
X008498Y008973D01*
X008621Y008973D01*
X008683Y009035D01*
X008804Y009097D02*
X009051Y009344D01*
X008804Y009344D02*
X008804Y008973D01*
X008866Y008871D02*
X008804Y008809D01*
X008804Y008563D01*
X008866Y008501D01*
X008990Y008501D01*
X009051Y008563D01*
X009051Y008809D01*
X008990Y008871D01*
X008866Y008871D01*
X009051Y008973D02*
X008866Y009158D01*
X008683Y009282D02*
X008621Y009344D01*
X008498Y009344D01*
X008436Y009282D01*
X008315Y008871D02*
X008068Y008871D01*
X007713Y008770D02*
X007651Y008832D01*
X007466Y008832D01*
X007466Y008461D01*
X007651Y008461D01*
X007713Y008523D01*
X007713Y008770D01*
X007589Y008973D02*
X007466Y008973D01*
X007528Y008973D02*
X007528Y009344D01*
X007589Y009344D02*
X007466Y009344D01*
X007344Y009282D02*
X007344Y009035D01*
X007283Y008973D01*
X007097Y008973D01*
X007097Y009344D01*
X007283Y009344D01*
X007344Y009282D01*
X006976Y009344D02*
X006729Y009344D01*
X006853Y009344D02*
X006853Y008973D01*
X006914Y008832D02*
X006791Y008832D01*
X006729Y008770D01*
X006729Y008523D01*
X006791Y008461D01*
X006914Y008461D01*
X006976Y008523D01*
X006976Y008647D01*
X006853Y008647D01*
X006976Y008770D02*
X006914Y008832D01*
X007097Y008832D02*
X007344Y008461D01*
X007344Y008832D01*
X007097Y008832D02*
X007097Y008461D01*
X007097Y008359D02*
X007344Y007989D01*
X007344Y008359D01*
X007466Y008359D02*
X007651Y008359D01*
X007713Y008298D01*
X007713Y008051D01*
X007651Y007989D01*
X007466Y007989D01*
X007466Y008359D01*
X007097Y008359D02*
X007097Y007989D01*
X006976Y008051D02*
X006976Y008174D01*
X006853Y008174D01*
X006976Y008051D02*
X006914Y007989D01*
X006791Y007989D01*
X006729Y008051D01*
X006729Y008298D01*
X006791Y008359D01*
X006914Y008359D01*
X006976Y008298D01*
X008804Y008298D02*
X008804Y008236D01*
X008866Y008174D01*
X008990Y008174D01*
X009051Y008112D01*
X009051Y008051D01*
X009051Y008298D02*
X008990Y008359D01*
X008866Y008359D01*
X008804Y008298D01*
X012989Y008504D02*
X013353Y008504D01*
X013353Y008383D02*
X013353Y008625D01*
X013110Y008383D02*
X012989Y008504D01*
X021453Y008504D02*
X021817Y008504D01*
X021817Y008383D02*
X021817Y008625D01*
X021575Y008383D02*
X021453Y008504D01*
X029721Y008504D02*
X030085Y008504D01*
X030085Y008383D02*
X030085Y008625D01*
X029842Y008383D02*
X029721Y008504D01*
X038186Y008504D02*
X038550Y008504D01*
X038550Y008383D02*
X038550Y008625D01*
X038307Y008383D02*
X038186Y008504D01*
X038307Y017044D02*
X038186Y017165D01*
X038550Y017165D01*
X038550Y017044D02*
X038550Y017287D01*
X030085Y017287D02*
X030085Y017044D01*
X030085Y017165D02*
X029721Y017165D01*
X029842Y017044D01*
X021817Y017044D02*
X021817Y017287D01*
X021817Y017165D02*
X021453Y017165D01*
X021575Y017044D01*
X013353Y017044D02*
X013353Y017287D01*
X013353Y017165D02*
X012989Y017165D01*
X013110Y017044D01*
D16*
X016019Y021330D02*
X016104Y021330D01*
X016147Y021373D01*
X016147Y021458D01*
X016061Y021458D01*
X015976Y021544D02*
X015976Y021373D01*
X016019Y021330D01*
X016230Y021330D02*
X016230Y021586D01*
X016400Y021330D01*
X016400Y021586D01*
X016484Y021586D02*
X016612Y021586D01*
X016654Y021544D01*
X016654Y021373D01*
X016612Y021330D01*
X016484Y021330D01*
X016484Y021586D01*
X016147Y021544D02*
X016104Y021586D01*
X016019Y021586D01*
X015976Y021544D01*
X016019Y022571D02*
X015976Y022613D01*
X016019Y022571D02*
X016104Y022571D01*
X016147Y022613D01*
X016147Y022656D01*
X016104Y022699D01*
X016061Y022699D01*
X016104Y022699D02*
X016147Y022741D01*
X016147Y022784D01*
X016104Y022826D01*
X016019Y022826D01*
X015976Y022784D01*
X016230Y022826D02*
X016230Y022656D01*
X016315Y022571D01*
X016400Y022656D01*
X016400Y022826D01*
X016484Y022784D02*
X016526Y022826D01*
X016612Y022826D01*
X016654Y022784D01*
X016654Y022741D01*
X016612Y022699D01*
X016654Y022656D01*
X016654Y022613D01*
X016612Y022571D01*
X016526Y022571D01*
X016484Y022613D01*
X016569Y022699D02*
X016612Y022699D01*
X013918Y022528D02*
X013918Y022357D01*
X013875Y022315D01*
X013747Y022315D01*
X013747Y022571D01*
X013875Y022571D01*
X013918Y022528D01*
X013664Y022571D02*
X013664Y022315D01*
X013494Y022571D01*
X013494Y022315D01*
X013410Y022357D02*
X013410Y022443D01*
X013325Y022443D01*
X013240Y022528D02*
X013240Y022357D01*
X013283Y022315D01*
X013368Y022315D01*
X013410Y022357D01*
X013410Y022528D02*
X013368Y022571D01*
X013283Y022571D01*
X013240Y022528D01*
X012383Y023069D02*
X012383Y023240D01*
X012383Y023069D02*
X012297Y022984D01*
X012212Y023069D01*
X012212Y023240D01*
X012129Y023197D02*
X012086Y023240D01*
X012001Y023240D01*
X011958Y023197D01*
X012129Y023197D02*
X012129Y023155D01*
X011958Y022984D01*
X012129Y022984D01*
X011875Y022984D02*
X011704Y022984D01*
X011790Y022984D02*
X011790Y023240D01*
X011704Y023155D01*
D17*
X011479Y018552D02*
X014038Y018552D01*
X014038Y011898D01*
X011479Y011898D01*
X011479Y018552D01*
X019943Y018552D02*
X022502Y018552D01*
X022502Y011898D01*
X019943Y011898D01*
X019943Y018552D01*
X028211Y018552D02*
X030770Y018552D01*
X030770Y011898D01*
X028211Y011898D01*
X028211Y018552D01*
X036676Y018552D02*
X039235Y018552D01*
X039235Y011898D01*
X036676Y011898D01*
X036676Y018552D01*
X036676Y009891D02*
X039235Y009891D01*
X039235Y003237D01*
X036676Y003237D01*
X036676Y009891D01*
X030770Y009891D02*
X028211Y009891D01*
X028211Y003237D01*
X030770Y003237D01*
X030770Y009891D01*
X022502Y009891D02*
X019943Y009891D01*
X019943Y003237D01*
X022502Y003237D01*
X022502Y009891D01*
X014038Y009891D02*
X011479Y009891D01*
X011479Y003237D01*
X014038Y003237D01*
X014038Y009891D01*
D18*
X009305Y012917D02*
X009230Y012842D01*
X009305Y012917D02*
X009305Y013067D01*
X009230Y013143D01*
X009155Y013143D01*
X009080Y013067D01*
X009080Y012992D01*
X009080Y013067D02*
X009005Y013143D01*
X008930Y013143D01*
X008855Y013067D01*
X008855Y012917D01*
X008930Y012842D01*
X008855Y013303D02*
X009155Y013303D01*
X009305Y013453D01*
X009155Y013603D01*
X008855Y013603D01*
X008930Y013763D02*
X008855Y013838D01*
X008855Y013988D01*
X008930Y014063D01*
X009005Y014063D01*
X009080Y013988D01*
X009155Y014063D01*
X009230Y014063D01*
X009305Y013988D01*
X009305Y013838D01*
X009230Y013763D01*
X009080Y013913D02*
X009080Y013988D01*
X005037Y008832D02*
X000537Y008832D01*
X000537Y026332D01*
X005037Y026332D01*
X005037Y008832D01*
X002075Y006941D02*
X002075Y006791D01*
X002000Y006716D01*
X001699Y007016D01*
X002000Y007016D01*
X002075Y006941D01*
X002000Y006716D02*
X001699Y006716D01*
X001624Y006791D01*
X001624Y006941D01*
X001699Y007016D01*
X002075Y006556D02*
X002075Y006256D01*
X002075Y006406D02*
X001624Y006406D01*
X001774Y006256D01*
X004875Y002556D02*
X004875Y002256D01*
X004875Y002406D02*
X004424Y002406D01*
X004574Y002256D01*
X004335Y001248D02*
X004335Y000798D01*
X004035Y001248D01*
X004035Y000798D01*
X003878Y000798D02*
X003728Y000798D01*
X003803Y000798D02*
X003803Y001248D01*
X003728Y001248D02*
X003878Y001248D01*
X003568Y001023D02*
X003267Y001023D01*
X003107Y001023D02*
X002957Y001023D01*
X003107Y001023D02*
X003107Y000873D01*
X003032Y000798D01*
X002882Y000798D01*
X002807Y000873D01*
X002807Y001173D01*
X002882Y001248D01*
X003032Y001248D01*
X003107Y001173D01*
X002647Y001098D02*
X002647Y000798D01*
X002647Y001023D02*
X002347Y001023D01*
X002347Y001098D02*
X002347Y000798D01*
X002036Y000798D02*
X002036Y001248D01*
X001886Y001248D02*
X002186Y001248D01*
X002347Y001098D02*
X002497Y001248D01*
X002647Y001098D01*
X001726Y001248D02*
X001576Y001248D01*
X001651Y001248D02*
X001651Y000873D01*
X001576Y000798D01*
X001501Y000798D01*
X001426Y000873D01*
X009052Y003824D02*
X009052Y003974D01*
X009052Y003899D02*
X009427Y003899D01*
X009502Y003824D01*
X009502Y003749D01*
X009427Y003674D01*
X009052Y004134D02*
X009052Y004435D01*
X009052Y004284D02*
X009502Y004284D01*
X009502Y004595D02*
X009202Y004595D01*
X009052Y004745D01*
X009202Y004895D01*
X009502Y004895D01*
X009427Y005055D02*
X009502Y005130D01*
X009502Y005280D01*
X009427Y005355D01*
X009277Y005355D01*
X009277Y005205D01*
X009127Y005055D02*
X009427Y005055D01*
X009277Y004895D02*
X009277Y004595D01*
X009127Y005055D02*
X009052Y005130D01*
X009052Y005280D01*
X009127Y005355D01*
X009577Y005515D02*
X009577Y005816D01*
X009502Y006126D02*
X009052Y006126D01*
X009052Y005976D02*
X009052Y006276D01*
X009052Y006436D02*
X009052Y006661D01*
X009127Y006737D01*
X009277Y006737D01*
X009352Y006661D01*
X009352Y006436D01*
X009502Y006436D02*
X009052Y006436D01*
M02*
