G75*
G70*
%OFA0B0*%
%FSLAX24Y24*%
%IPPOS*%
%LPD*%
%AMOC8*
5,1,8,0,0,1.08239X$1,22.5*
%
%ADD10R,0.0276X0.1654*%
D10*
X012896Y025061D03*
X013290Y025061D03*
X013683Y025061D03*
X014077Y025061D03*
X014471Y025061D03*
X014865Y025061D03*
X015258Y025061D03*
X015652Y025061D03*
X016046Y025061D03*
X016439Y025061D03*
X016833Y025061D03*
X018014Y025061D03*
X018408Y025061D03*
X018802Y025061D03*
X019195Y025061D03*
X019589Y025061D03*
X019983Y025061D03*
X020376Y025061D03*
X020770Y025061D03*
X021164Y025061D03*
X021557Y025061D03*
X021951Y025061D03*
X022345Y025061D03*
X022739Y025061D03*
X023132Y025061D03*
X023526Y025061D03*
X023920Y025061D03*
X024313Y025061D03*
X024707Y025061D03*
X025101Y025061D03*
X025494Y025061D03*
X025888Y025061D03*
X026282Y025061D03*
X026676Y025061D03*
X027069Y025061D03*
X027463Y025061D03*
X027857Y025061D03*
X028250Y025061D03*
X028644Y025061D03*
X029038Y025061D03*
X029431Y025061D03*
X029825Y025061D03*
X030219Y025061D03*
X030613Y025061D03*
X031006Y025061D03*
X031400Y025061D03*
X031794Y025061D03*
X032187Y025061D03*
X032581Y025061D03*
M02*
