G75*
G70*
%OFA0B0*%
%FSLAX24Y24*%
%IPPOS*%
%LPD*%
%AMOC8*
5,1,8,0,0,1.08239X$1,22.5*
%
%ADD10C,0.0030*%
%ADD11C,0.0060*%
%ADD12R,0.0276X0.1654*%
%ADD13C,0.0638*%
%ADD14C,0.0433*%
%ADD15OC8,0.0498*%
%ADD16C,0.0413*%
%ADD17C,0.0138*%
%ADD18C,0.0160*%
%ADD19C,0.0217*%
%ADD20C,0.2540*%
%ADD21C,0.0276*%
%ADD22C,0.0120*%
D10*
X009315Y000811D02*
X009436Y000690D01*
X009558Y000811D01*
X009558Y001054D01*
X009738Y000932D02*
X009859Y000932D01*
X009920Y000872D01*
X009920Y000811D01*
X009677Y000811D01*
X009677Y000750D02*
X009677Y000872D01*
X009738Y000932D01*
X009677Y000750D02*
X009738Y000690D01*
X009859Y000690D01*
X010040Y000690D02*
X010040Y000932D01*
X010040Y000811D02*
X010161Y000932D01*
X010222Y000932D01*
X010342Y000872D02*
X010403Y000932D01*
X010585Y000932D01*
X010705Y000932D02*
X010765Y000932D01*
X010765Y000690D01*
X010705Y000690D02*
X010826Y000690D01*
X010946Y000750D02*
X010946Y000872D01*
X011007Y000932D01*
X011128Y000932D01*
X011189Y000872D01*
X011189Y000750D01*
X011128Y000690D01*
X011007Y000690D01*
X010946Y000750D01*
X010765Y001054D02*
X010765Y001114D01*
X010524Y000811D02*
X010403Y000811D01*
X010342Y000872D01*
X010342Y000690D02*
X010524Y000690D01*
X010585Y000750D01*
X010524Y000811D01*
X011309Y000690D02*
X011309Y000932D01*
X011491Y000932D01*
X011551Y000872D01*
X011551Y000690D01*
X012034Y000690D02*
X012276Y000932D01*
X012276Y000993D01*
X012216Y001054D01*
X012094Y001054D01*
X012034Y000993D01*
X012034Y000690D02*
X012276Y000690D01*
X012396Y000750D02*
X012639Y000993D01*
X012639Y000750D01*
X012578Y000690D01*
X012457Y000690D01*
X012396Y000750D01*
X012396Y000993D01*
X012457Y001054D01*
X012578Y001054D01*
X012639Y000993D01*
X012759Y000932D02*
X012880Y001054D01*
X012880Y000690D01*
X012759Y000690D02*
X013001Y000690D01*
X013121Y000750D02*
X013182Y000690D01*
X013303Y000690D01*
X013364Y000750D01*
X013364Y000811D01*
X013303Y000872D01*
X013243Y000872D01*
X013303Y000872D02*
X013364Y000932D01*
X013364Y000993D01*
X013303Y001054D01*
X013182Y001054D01*
X013121Y000993D01*
X013484Y000993D02*
X013544Y001054D01*
X013666Y001054D01*
X013727Y000993D01*
X013484Y000750D01*
X013544Y000690D01*
X013666Y000690D01*
X013727Y000750D01*
X013727Y000993D01*
X013846Y000993D02*
X013846Y000932D01*
X013907Y000872D01*
X014089Y000872D01*
X014089Y000993D02*
X014028Y001054D01*
X013907Y001054D01*
X013846Y000993D01*
X013846Y000750D02*
X013907Y000690D01*
X014028Y000690D01*
X014089Y000750D01*
X014089Y000993D01*
X014209Y000932D02*
X014330Y001054D01*
X014330Y000690D01*
X014209Y000690D02*
X014452Y000690D01*
X014571Y000690D02*
X014571Y000750D01*
X014814Y000993D01*
X014814Y001054D01*
X014571Y001054D01*
X013484Y000993D02*
X013484Y000750D01*
X009315Y000811D02*
X009315Y001054D01*
X023343Y002054D02*
X023586Y002054D01*
X023465Y002054D02*
X023465Y001690D01*
X023706Y001750D02*
X023706Y001993D01*
X023767Y002054D01*
X023888Y002054D01*
X023949Y001993D01*
X023949Y001750D01*
X023888Y001690D01*
X023767Y001690D01*
X023706Y001750D01*
X024068Y001690D02*
X024068Y002054D01*
X024250Y002054D01*
X024311Y001993D01*
X024311Y001872D01*
X024250Y001811D01*
X024068Y001811D01*
D11*
X025642Y001646D02*
X026069Y001646D01*
X025855Y001646D02*
X025855Y002286D01*
X025642Y002073D01*
D12*
X025494Y025061D03*
X025887Y025061D03*
X026281Y025061D03*
X026675Y025061D03*
X027069Y025061D03*
X027462Y025061D03*
X027856Y025061D03*
X028250Y025061D03*
X028643Y025061D03*
X029037Y025061D03*
X029431Y025061D03*
X029824Y025061D03*
X030218Y025061D03*
X030612Y025061D03*
X031006Y025061D03*
X031399Y025061D03*
X031793Y025061D03*
X032187Y025061D03*
X032580Y025061D03*
X025100Y025061D03*
X024706Y025061D03*
X024313Y025061D03*
X023919Y025061D03*
X023525Y025061D03*
X023131Y025061D03*
X022738Y025061D03*
X022344Y025061D03*
X021950Y025061D03*
X021557Y025061D03*
X021163Y025061D03*
X020769Y025061D03*
X020376Y025061D03*
X019982Y025061D03*
X019588Y025061D03*
X019194Y025061D03*
X018801Y025061D03*
X018407Y025061D03*
X018013Y025061D03*
X016832Y025061D03*
X016439Y025061D03*
X016045Y025061D03*
X015651Y025061D03*
X015257Y025061D03*
X014864Y025061D03*
X014470Y025061D03*
X014076Y025061D03*
X013683Y025061D03*
X013289Y025061D03*
X012895Y025061D03*
D13*
X013017Y017809D02*
X012380Y017809D01*
X012380Y012706D02*
X013017Y012706D01*
X013017Y009147D02*
X012380Y009147D01*
X012380Y004045D02*
X013017Y004045D01*
X020844Y004045D02*
X021482Y004045D01*
X029112Y004045D02*
X029750Y004045D01*
X037576Y004045D02*
X038214Y004045D01*
X038214Y009147D02*
X037576Y009147D01*
X037576Y012706D02*
X038214Y012706D01*
X038214Y017809D02*
X037576Y017809D01*
X029750Y017809D02*
X029112Y017809D01*
X021482Y017809D02*
X020844Y017809D01*
X020844Y012706D02*
X021482Y012706D01*
X021482Y009147D02*
X020844Y009147D01*
X029112Y009147D02*
X029750Y009147D01*
X029750Y012706D02*
X029112Y012706D01*
D14*
X029628Y013757D03*
X029234Y014257D03*
X029234Y014757D03*
X029628Y015257D03*
X029234Y015757D03*
X029234Y016257D03*
X029628Y016757D03*
X037698Y016257D03*
X037698Y015757D03*
X038092Y015257D03*
X037698Y014757D03*
X037698Y014257D03*
X038092Y013757D03*
X038092Y016757D03*
X038092Y008096D03*
X037698Y007596D03*
X037698Y007096D03*
X038092Y006596D03*
X037698Y006096D03*
X037698Y005596D03*
X038092Y005096D03*
X029628Y005096D03*
X029234Y005596D03*
X029234Y006096D03*
X029628Y006596D03*
X029234Y007096D03*
X029234Y007596D03*
X029628Y008096D03*
X021360Y008096D03*
X020966Y007596D03*
X020966Y007096D03*
X021360Y006596D03*
X020966Y006096D03*
X020966Y005596D03*
X021360Y005096D03*
X012895Y005096D03*
X012502Y005596D03*
X012502Y006096D03*
X012895Y006596D03*
X012502Y007096D03*
X012502Y007596D03*
X012895Y008096D03*
X012895Y013757D03*
X012502Y014257D03*
X012502Y014757D03*
X012895Y015257D03*
X012502Y015757D03*
X012502Y016257D03*
X012895Y016757D03*
X020966Y016257D03*
X020966Y015757D03*
X021360Y015257D03*
X020966Y014757D03*
X020966Y014257D03*
X021360Y013757D03*
X021360Y016757D03*
D15*
X002750Y002431D03*
X003750Y002431D03*
X003750Y003431D03*
X002750Y003431D03*
X002750Y004431D03*
X003750Y004431D03*
X003750Y005431D03*
X002750Y005431D03*
X002750Y006431D03*
X003750Y006431D03*
X007277Y006372D03*
X008277Y006372D03*
X008277Y005372D03*
X007277Y005372D03*
X007277Y004372D03*
X008277Y004372D03*
X008080Y011698D03*
X007080Y011698D03*
X007080Y012698D03*
X008080Y012698D03*
X008080Y013698D03*
X007080Y013698D03*
D16*
X004244Y013832D02*
X003830Y013832D01*
X003830Y013332D02*
X004244Y013332D01*
X004244Y012832D02*
X003830Y012832D01*
X003830Y012332D02*
X004244Y012332D01*
X004244Y011832D02*
X003830Y011832D01*
X003830Y011332D02*
X004244Y011332D01*
X004244Y014332D02*
X003830Y014332D01*
X003830Y016832D02*
X004244Y016832D01*
X004244Y017332D02*
X003830Y017332D01*
X003830Y017832D02*
X004244Y017832D01*
X004244Y018332D02*
X003830Y018332D01*
X003830Y018832D02*
X004244Y018832D01*
X004244Y019332D02*
X003830Y019332D01*
X003830Y019832D02*
X004244Y019832D01*
X004244Y020332D02*
X003830Y020332D01*
X003830Y020832D02*
X004244Y020832D01*
X004244Y021332D02*
X003830Y021332D01*
X003830Y021832D02*
X004244Y021832D01*
X004244Y022332D02*
X003830Y022332D01*
X003830Y022832D02*
X004244Y022832D01*
X004244Y023332D02*
X003830Y023332D01*
X003830Y023832D02*
X004244Y023832D01*
D17*
X006045Y021596D02*
X006596Y022147D01*
X014037Y022147D01*
X014470Y022580D01*
X014470Y025061D01*
X014450Y025061D01*
X014076Y025061D02*
X014076Y023702D01*
X014037Y023663D01*
X014175Y023679D02*
X013624Y023679D01*
X013624Y023801D02*
X014175Y023801D01*
X014175Y022698D01*
X013624Y022698D01*
X013624Y023801D01*
X013624Y023543D02*
X014175Y023543D01*
X014175Y023407D02*
X013624Y023407D01*
X013624Y023270D02*
X014175Y023270D01*
X014175Y023134D02*
X013624Y023134D01*
X013624Y022998D02*
X014175Y022998D01*
X014175Y022861D02*
X013624Y022861D01*
X013624Y022725D02*
X014175Y022725D01*
X014864Y022561D02*
X014175Y021872D01*
X006734Y021872D01*
X006320Y021458D01*
X006320Y014982D01*
X006045Y012639D02*
X006045Y021596D01*
X008387Y021045D02*
X016517Y021045D01*
X016517Y021065D01*
X017049Y021596D01*
X017049Y023958D01*
X016832Y024175D01*
X016832Y025061D01*
X016793Y025061D01*
X015651Y025061D02*
X015651Y023663D01*
X016104Y023663D01*
X015966Y023679D02*
X016793Y023679D01*
X015966Y023679D01*
X015966Y023801D02*
X016793Y023801D01*
X016793Y022974D01*
X015966Y022974D01*
X015966Y023801D01*
X016793Y023801D01*
X016793Y022974D01*
X015966Y022974D01*
X015966Y023801D01*
X015966Y023543D02*
X016793Y023543D01*
X015966Y023543D01*
X015966Y023407D02*
X016793Y023407D01*
X015966Y023407D01*
X015966Y023270D02*
X016793Y023270D01*
X015966Y023270D01*
X015966Y023134D02*
X016793Y023134D01*
X015966Y023134D01*
X015966Y022998D02*
X016793Y022998D01*
X015966Y022998D01*
X015257Y022994D02*
X016104Y022147D01*
X016104Y021872D01*
X016380Y021872D01*
X016380Y022147D01*
X016104Y022147D01*
X015966Y022180D02*
X016517Y022180D01*
X016517Y022285D02*
X015966Y022285D01*
X015966Y021734D01*
X016517Y021734D01*
X016517Y022285D01*
X016517Y022044D02*
X015966Y022044D01*
X015966Y021907D02*
X016517Y021907D01*
X016517Y021771D02*
X015966Y021771D01*
X014864Y022561D02*
X014864Y025061D01*
X015257Y025061D02*
X015257Y022994D01*
X013348Y022998D02*
X012521Y022998D01*
X012521Y022974D02*
X013348Y022974D01*
X013348Y023801D01*
X012521Y023801D01*
X012521Y022974D01*
X012521Y023134D02*
X013348Y023134D01*
X013348Y023270D02*
X012521Y023270D01*
X012521Y023407D02*
X013348Y023407D01*
X013348Y023543D02*
X012521Y023543D01*
X012521Y023679D02*
X013348Y023679D01*
X013289Y023663D02*
X013210Y023663D01*
X013289Y023663D02*
X013289Y025021D01*
X012935Y025061D02*
X012935Y023663D01*
X012935Y025061D02*
X012895Y025061D01*
X017876Y022285D02*
X017876Y020612D01*
X018151Y020612D02*
X018151Y022285D01*
X018152Y022285D02*
X018154Y022323D01*
X018159Y022361D01*
X018168Y022398D01*
X018180Y022434D01*
X018195Y022469D01*
X018214Y022502D01*
X018235Y022534D01*
X018260Y022563D01*
X018287Y022590D01*
X018316Y022615D01*
X018348Y022636D01*
X018381Y022655D01*
X018416Y022670D01*
X018452Y022682D01*
X018489Y022691D01*
X018527Y022696D01*
X018565Y022698D01*
X018565Y022974D02*
X018514Y022972D01*
X018462Y022966D01*
X018412Y022957D01*
X018362Y022943D01*
X018313Y022926D01*
X018266Y022906D01*
X018221Y022882D01*
X018177Y022854D01*
X018135Y022824D01*
X018096Y022790D01*
X018060Y022754D01*
X018026Y022715D01*
X017996Y022673D01*
X017968Y022630D01*
X017944Y022584D01*
X017924Y022537D01*
X017907Y022488D01*
X017893Y022438D01*
X017884Y022388D01*
X017878Y022336D01*
X017876Y022285D01*
X018565Y022698D02*
X018610Y022700D01*
X018654Y022705D01*
X018698Y022714D01*
X018741Y022726D01*
X018784Y022741D01*
X018824Y022760D01*
X018863Y022782D01*
X018901Y022807D01*
X018936Y022835D01*
X018969Y022865D01*
X018999Y022898D01*
X019027Y022933D01*
X019052Y022971D01*
X019074Y023010D01*
X019093Y023050D01*
X019108Y023093D01*
X019120Y023136D01*
X019129Y023180D01*
X019134Y023224D01*
X019136Y023269D01*
X019135Y023269D02*
X019135Y024076D01*
X019194Y024135D01*
X019194Y025061D01*
X018801Y025061D02*
X018801Y024135D01*
X018860Y024076D01*
X018860Y023269D01*
X018858Y023236D01*
X018853Y023203D01*
X018843Y023172D01*
X018831Y023141D01*
X018815Y023112D01*
X018796Y023085D01*
X018774Y023060D01*
X018749Y023038D01*
X018722Y023019D01*
X018693Y023003D01*
X018662Y022991D01*
X018631Y022981D01*
X018598Y022976D01*
X018565Y022974D01*
X018604Y023722D02*
X018407Y023919D01*
X018407Y025061D01*
X019588Y025061D02*
X019588Y023919D01*
X019391Y023722D01*
X020376Y023722D02*
X020376Y025061D01*
X020769Y025061D02*
X020769Y019805D01*
X021045Y019805D02*
X021045Y023939D01*
X021183Y024765D01*
X021163Y025061D01*
X021557Y025061D02*
X021557Y023919D01*
X021320Y023722D01*
X021950Y023919D02*
X022128Y023722D01*
X021950Y023919D02*
X021950Y025061D01*
X022344Y025061D02*
X022344Y024037D01*
X022374Y023939D01*
X022374Y016586D01*
X022649Y016586D02*
X022649Y023939D01*
X022738Y024096D01*
X022738Y025061D01*
X023131Y025061D02*
X023131Y023919D01*
X022935Y023722D01*
X023525Y023919D02*
X023722Y023722D01*
X023525Y023919D02*
X023525Y025061D01*
X023919Y025061D02*
X023919Y024116D01*
X023958Y024076D01*
X023958Y011419D01*
X024234Y011419D02*
X024234Y024076D01*
X024313Y024155D01*
X024313Y025061D01*
X024706Y025061D02*
X024706Y023919D01*
X024509Y023722D01*
X025887Y023919D02*
X026084Y023722D01*
X025887Y023919D02*
X025887Y025061D01*
X026281Y025061D02*
X026281Y024007D01*
X026350Y023939D01*
X026350Y011468D01*
X026626Y011468D02*
X026626Y023939D01*
X026675Y023988D01*
X026675Y025061D01*
X027069Y025061D02*
X027069Y023919D01*
X026872Y023722D01*
X027462Y023919D02*
X027659Y023722D01*
X027462Y023919D02*
X027462Y025061D01*
X027856Y025061D02*
X027856Y024017D01*
X027935Y023939D01*
X027935Y014982D01*
X028210Y014982D02*
X028210Y023939D01*
X028250Y023978D01*
X028250Y025061D01*
X028643Y025061D02*
X028643Y023919D01*
X028446Y023722D01*
X029037Y023919D02*
X029234Y023722D01*
X029037Y023919D02*
X029037Y025061D01*
X029431Y025061D02*
X029431Y024027D01*
X029519Y023939D01*
X029519Y021252D01*
X029795Y021252D02*
X029795Y023939D01*
X029824Y023968D01*
X029824Y025061D01*
X030218Y025061D02*
X030218Y023919D01*
X030041Y023722D01*
X030612Y023919D02*
X030809Y023722D01*
X030612Y023919D02*
X030612Y025061D01*
X031006Y025061D02*
X031006Y024037D01*
X031104Y023939D01*
X031104Y022836D01*
X031380Y022836D02*
X031380Y023939D01*
X031399Y023958D01*
X031399Y025061D01*
X031793Y025061D02*
X031793Y023919D01*
X031616Y023722D01*
X032383Y023722D02*
X032580Y023919D01*
X032580Y025061D01*
X031104Y022836D02*
X031106Y022785D01*
X031112Y022733D01*
X031121Y022683D01*
X031135Y022633D01*
X031152Y022584D01*
X031172Y022537D01*
X031196Y022492D01*
X031224Y022448D01*
X031254Y022406D01*
X031288Y022367D01*
X031324Y022331D01*
X031363Y022297D01*
X031405Y022267D01*
X031449Y022239D01*
X031494Y022215D01*
X031541Y022195D01*
X031590Y022178D01*
X031640Y022164D01*
X031690Y022155D01*
X031742Y022149D01*
X031793Y022147D01*
X035789Y022147D01*
X035789Y022423D02*
X031793Y022423D01*
X031755Y022425D01*
X031717Y022430D01*
X031680Y022439D01*
X031644Y022451D01*
X031609Y022466D01*
X031576Y022485D01*
X031544Y022506D01*
X031515Y022531D01*
X031488Y022558D01*
X031463Y022587D01*
X031442Y022619D01*
X031423Y022652D01*
X031408Y022687D01*
X031396Y022723D01*
X031387Y022760D01*
X031382Y022798D01*
X031380Y022836D01*
X029795Y021252D02*
X029797Y021210D01*
X029802Y021168D01*
X029811Y021127D01*
X029824Y021087D01*
X029840Y021048D01*
X029860Y021011D01*
X029882Y020976D01*
X029908Y020942D01*
X029936Y020911D01*
X029967Y020883D01*
X030001Y020857D01*
X030036Y020835D01*
X030073Y020815D01*
X030112Y020799D01*
X030152Y020786D01*
X030193Y020777D01*
X030235Y020772D01*
X030277Y020770D01*
X030277Y020769D02*
X033584Y020769D01*
X033584Y020494D02*
X030277Y020494D01*
X030223Y020496D01*
X030169Y020502D01*
X030116Y020511D01*
X030063Y020525D01*
X030012Y020542D01*
X029962Y020562D01*
X029914Y020587D01*
X029867Y020614D01*
X029823Y020645D01*
X029781Y020679D01*
X029741Y020716D01*
X029704Y020756D01*
X029670Y020798D01*
X029639Y020842D01*
X029612Y020889D01*
X029587Y020937D01*
X029567Y020987D01*
X029550Y021038D01*
X029536Y021091D01*
X029527Y021144D01*
X029521Y021198D01*
X029519Y021252D01*
X033584Y020769D02*
X033635Y020767D01*
X033687Y020761D01*
X033737Y020752D01*
X033787Y020738D01*
X033836Y020721D01*
X033883Y020701D01*
X033929Y020677D01*
X033972Y020649D01*
X034014Y020619D01*
X034053Y020585D01*
X034089Y020549D01*
X034123Y020510D01*
X034153Y020468D01*
X034181Y020425D01*
X034205Y020379D01*
X034225Y020332D01*
X034242Y020283D01*
X034256Y020233D01*
X034265Y020183D01*
X034271Y020131D01*
X034273Y020080D01*
X034273Y011399D01*
X033998Y011399D02*
X033998Y020080D01*
X033997Y020080D02*
X033995Y020118D01*
X033990Y020156D01*
X033981Y020193D01*
X033969Y020229D01*
X033954Y020264D01*
X033935Y020297D01*
X033914Y020329D01*
X033889Y020358D01*
X033862Y020385D01*
X033833Y020410D01*
X033801Y020431D01*
X033768Y020450D01*
X033733Y020465D01*
X033697Y020477D01*
X033660Y020486D01*
X033622Y020491D01*
X033584Y020493D01*
X035789Y022147D02*
X035827Y022145D01*
X035865Y022140D01*
X035902Y022131D01*
X035938Y022119D01*
X035973Y022104D01*
X036006Y022085D01*
X036038Y022064D01*
X036067Y022039D01*
X036094Y022012D01*
X036119Y021983D01*
X036140Y021951D01*
X036159Y021918D01*
X036174Y021883D01*
X036186Y021847D01*
X036195Y021810D01*
X036200Y021772D01*
X036202Y021734D01*
X036202Y014982D01*
X036478Y014982D02*
X036478Y021734D01*
X036476Y021785D01*
X036470Y021837D01*
X036461Y021887D01*
X036447Y021937D01*
X036430Y021986D01*
X036410Y022033D01*
X036386Y022079D01*
X036358Y022122D01*
X036328Y022164D01*
X036294Y022203D01*
X036258Y022239D01*
X036219Y022273D01*
X036177Y022303D01*
X036134Y022331D01*
X036088Y022355D01*
X036041Y022375D01*
X035992Y022392D01*
X035942Y022406D01*
X035892Y022415D01*
X035840Y022421D01*
X035789Y022423D01*
X037698Y014757D02*
X037622Y014722D01*
X037545Y014690D01*
X037466Y014661D01*
X037386Y014637D01*
X037305Y014616D01*
X037224Y014599D01*
X037141Y014585D01*
X037058Y014576D01*
X036975Y014570D01*
X036891Y014568D01*
X036891Y014293D02*
X037663Y014293D01*
X037663Y014292D02*
X037674Y014290D01*
X037684Y014285D01*
X037691Y014278D01*
X037696Y014268D01*
X037698Y014257D01*
X036891Y014293D02*
X036840Y014295D01*
X036788Y014301D01*
X036738Y014310D01*
X036688Y014324D01*
X036639Y014341D01*
X036592Y014361D01*
X036547Y014385D01*
X036503Y014413D01*
X036461Y014443D01*
X036422Y014477D01*
X036386Y014513D01*
X036352Y014552D01*
X036322Y014594D01*
X036294Y014638D01*
X036270Y014683D01*
X036250Y014730D01*
X036233Y014779D01*
X036219Y014829D01*
X036210Y014879D01*
X036204Y014931D01*
X036202Y014982D01*
X036478Y014982D02*
X036480Y014944D01*
X036485Y014906D01*
X036494Y014869D01*
X036506Y014833D01*
X036521Y014798D01*
X036540Y014765D01*
X036561Y014733D01*
X036586Y014704D01*
X036613Y014677D01*
X036642Y014652D01*
X036674Y014631D01*
X036707Y014612D01*
X036742Y014597D01*
X036778Y014585D01*
X036815Y014576D01*
X036853Y014571D01*
X036891Y014569D01*
X034274Y011399D02*
X034276Y011361D01*
X034281Y011323D01*
X034290Y011286D01*
X034302Y011250D01*
X034317Y011215D01*
X034336Y011182D01*
X034357Y011150D01*
X034382Y011121D01*
X034409Y011094D01*
X034438Y011069D01*
X034470Y011048D01*
X034503Y011029D01*
X034538Y011014D01*
X034574Y011002D01*
X034611Y010993D01*
X034649Y010988D01*
X034687Y010986D01*
X038683Y010986D01*
X038683Y010710D02*
X034687Y010710D01*
X034636Y010712D01*
X034584Y010718D01*
X034534Y010727D01*
X034484Y010741D01*
X034435Y010758D01*
X034388Y010778D01*
X034343Y010802D01*
X034299Y010830D01*
X034257Y010860D01*
X034218Y010894D01*
X034182Y010930D01*
X034148Y010969D01*
X034118Y011011D01*
X034090Y011055D01*
X034066Y011100D01*
X034046Y011147D01*
X034029Y011196D01*
X034015Y011246D01*
X034006Y011296D01*
X034000Y011348D01*
X033998Y011399D01*
X030966Y010159D02*
X030966Y007817D01*
X030691Y007817D02*
X030691Y010159D01*
X030966Y010159D02*
X030964Y010215D01*
X030958Y010272D01*
X030949Y010327D01*
X030935Y010382D01*
X030918Y010436D01*
X030898Y010488D01*
X030873Y010539D01*
X030846Y010589D01*
X030815Y010636D01*
X030781Y010681D01*
X030743Y010723D01*
X030703Y010763D01*
X030661Y010801D01*
X030616Y010835D01*
X030569Y010866D01*
X030519Y010893D01*
X030468Y010918D01*
X030416Y010938D01*
X030362Y010955D01*
X030307Y010969D01*
X030252Y010978D01*
X030195Y010984D01*
X030139Y010986D01*
X027108Y010986D01*
X027108Y010710D02*
X030139Y010710D01*
X030185Y010708D01*
X030230Y010702D01*
X030274Y010693D01*
X030318Y010680D01*
X030360Y010664D01*
X030401Y010644D01*
X030440Y010620D01*
X030477Y010594D01*
X030512Y010564D01*
X030544Y010532D01*
X030574Y010497D01*
X030600Y010460D01*
X030624Y010421D01*
X030644Y010380D01*
X030660Y010338D01*
X030673Y010294D01*
X030682Y010250D01*
X030688Y010205D01*
X030690Y010159D01*
X029726Y007403D02*
X029677Y007405D01*
X029628Y007410D01*
X029579Y007418D01*
X029532Y007430D01*
X029485Y007444D01*
X029439Y007462D01*
X029395Y007483D01*
X029352Y007507D01*
X029310Y007534D01*
X029271Y007564D01*
X029234Y007596D01*
X029265Y007128D02*
X030277Y007128D01*
X030277Y007403D02*
X029726Y007403D01*
X029265Y007127D02*
X029255Y007125D01*
X029247Y007121D01*
X029240Y007114D01*
X029236Y007106D01*
X029234Y007096D01*
X030277Y007128D02*
X030328Y007130D01*
X030380Y007136D01*
X030430Y007145D01*
X030480Y007159D01*
X030529Y007176D01*
X030576Y007196D01*
X030622Y007220D01*
X030665Y007248D01*
X030707Y007278D01*
X030746Y007312D01*
X030782Y007348D01*
X030816Y007387D01*
X030846Y007429D01*
X030874Y007473D01*
X030898Y007518D01*
X030918Y007565D01*
X030935Y007614D01*
X030949Y007664D01*
X030958Y007714D01*
X030964Y007766D01*
X030966Y007817D01*
X030690Y007817D02*
X030688Y007779D01*
X030683Y007741D01*
X030674Y007704D01*
X030662Y007668D01*
X030647Y007633D01*
X030628Y007600D01*
X030607Y007568D01*
X030582Y007539D01*
X030555Y007512D01*
X030526Y007487D01*
X030494Y007466D01*
X030461Y007447D01*
X030426Y007432D01*
X030390Y007420D01*
X030353Y007411D01*
X030315Y007406D01*
X030277Y007404D01*
X027108Y010986D02*
X027066Y010988D01*
X027024Y010993D01*
X026983Y011002D01*
X026943Y011015D01*
X026904Y011031D01*
X026867Y011051D01*
X026832Y011073D01*
X026798Y011099D01*
X026767Y011127D01*
X026739Y011158D01*
X026713Y011192D01*
X026691Y011227D01*
X026671Y011264D01*
X026655Y011303D01*
X026642Y011343D01*
X026633Y011384D01*
X026628Y011426D01*
X026626Y011468D01*
X026350Y011468D02*
X026352Y011414D01*
X026358Y011360D01*
X026367Y011307D01*
X026381Y011254D01*
X026398Y011203D01*
X026418Y011153D01*
X026443Y011105D01*
X026470Y011058D01*
X026501Y011014D01*
X026535Y010972D01*
X026572Y010932D01*
X026612Y010895D01*
X026654Y010861D01*
X026698Y010830D01*
X026745Y010803D01*
X026793Y010778D01*
X026843Y010758D01*
X026894Y010741D01*
X026947Y010727D01*
X027000Y010718D01*
X027054Y010712D01*
X027108Y010710D01*
X023525Y010710D02*
X020494Y010710D01*
X020494Y010986D02*
X023525Y010986D01*
X023565Y010988D01*
X023605Y010993D01*
X023643Y011003D01*
X023681Y011015D01*
X023718Y011031D01*
X023753Y011051D01*
X023786Y011073D01*
X023817Y011099D01*
X023845Y011127D01*
X023871Y011158D01*
X023893Y011191D01*
X023913Y011226D01*
X023929Y011263D01*
X023941Y011301D01*
X023951Y011339D01*
X023956Y011379D01*
X023958Y011419D01*
X024234Y011419D02*
X024232Y011368D01*
X024227Y011318D01*
X024218Y011268D01*
X024205Y011219D01*
X024189Y011171D01*
X024170Y011124D01*
X024147Y011079D01*
X024121Y011036D01*
X024093Y010994D01*
X024061Y010955D01*
X024026Y010918D01*
X023989Y010883D01*
X023950Y010851D01*
X023908Y010823D01*
X023865Y010797D01*
X023820Y010774D01*
X023773Y010755D01*
X023725Y010739D01*
X023676Y010726D01*
X023626Y010717D01*
X023576Y010712D01*
X023525Y010710D01*
X020494Y010986D02*
X020443Y010984D01*
X020391Y010978D01*
X020341Y010969D01*
X020291Y010955D01*
X020242Y010938D01*
X020195Y010918D01*
X020150Y010894D01*
X020106Y010866D01*
X020064Y010836D01*
X020025Y010802D01*
X019989Y010766D01*
X019955Y010727D01*
X019925Y010685D01*
X019897Y010642D01*
X019873Y010596D01*
X019853Y010549D01*
X019836Y010500D01*
X019822Y010450D01*
X019813Y010400D01*
X019807Y010348D01*
X019805Y010297D01*
X019805Y006301D01*
X020080Y006301D02*
X020080Y010297D01*
X020081Y010297D02*
X020083Y010335D01*
X020088Y010373D01*
X020097Y010410D01*
X020109Y010446D01*
X020124Y010481D01*
X020143Y010514D01*
X020164Y010546D01*
X020189Y010575D01*
X020216Y010602D01*
X020245Y010627D01*
X020277Y010648D01*
X020310Y010667D01*
X020345Y010682D01*
X020381Y010694D01*
X020418Y010703D01*
X020456Y010708D01*
X020494Y010710D01*
X018840Y011399D02*
X018840Y018702D01*
X018565Y018702D02*
X018565Y011399D01*
X018564Y011399D02*
X018562Y011361D01*
X018557Y011323D01*
X018548Y011286D01*
X018536Y011250D01*
X018521Y011215D01*
X018502Y011182D01*
X018481Y011150D01*
X018456Y011121D01*
X018429Y011094D01*
X018400Y011069D01*
X018368Y011048D01*
X018335Y011029D01*
X018300Y011014D01*
X018264Y011002D01*
X018227Y010993D01*
X018189Y010988D01*
X018151Y010986D01*
X011950Y010986D01*
X011950Y010710D02*
X018151Y010710D01*
X018202Y010712D01*
X018254Y010718D01*
X018304Y010727D01*
X018354Y010741D01*
X018403Y010758D01*
X018450Y010778D01*
X018496Y010802D01*
X018539Y010830D01*
X018581Y010860D01*
X018620Y010894D01*
X018656Y010930D01*
X018690Y010969D01*
X018720Y011011D01*
X018748Y011055D01*
X018772Y011100D01*
X018792Y011147D01*
X018809Y011196D01*
X018823Y011246D01*
X018832Y011296D01*
X018838Y011348D01*
X018840Y011399D01*
X020966Y015757D02*
X020968Y015770D01*
X020973Y015783D01*
X020981Y015793D01*
X020992Y015801D01*
X021004Y015806D01*
X021017Y015808D01*
X021017Y015809D02*
X021872Y015809D01*
X021872Y016084D02*
X021458Y016084D01*
X021872Y015808D02*
X021925Y015810D01*
X021978Y015815D01*
X022030Y015824D01*
X022082Y015837D01*
X022133Y015853D01*
X022182Y015872D01*
X022230Y015895D01*
X022276Y015921D01*
X022321Y015950D01*
X022363Y015982D01*
X022403Y016017D01*
X022441Y016055D01*
X022476Y016095D01*
X022508Y016137D01*
X022537Y016182D01*
X022563Y016228D01*
X022586Y016276D01*
X022605Y016325D01*
X022621Y016376D01*
X022634Y016428D01*
X022643Y016480D01*
X022648Y016533D01*
X022650Y016586D01*
X022374Y016586D02*
X022372Y016542D01*
X022366Y016499D01*
X022357Y016456D01*
X022344Y016414D01*
X022327Y016374D01*
X022307Y016335D01*
X022283Y016298D01*
X022257Y016263D01*
X022227Y016231D01*
X022195Y016201D01*
X022160Y016175D01*
X022123Y016151D01*
X022084Y016131D01*
X022044Y016114D01*
X022002Y016101D01*
X021959Y016092D01*
X021916Y016086D01*
X021872Y016084D01*
X021458Y016084D02*
X021405Y016086D01*
X021352Y016091D01*
X021299Y016100D01*
X021248Y016113D01*
X021197Y016129D01*
X021147Y016148D01*
X021099Y016171D01*
X021053Y016196D01*
X021008Y016225D01*
X020966Y016257D01*
X018565Y018702D02*
X018567Y018753D01*
X018573Y018805D01*
X018582Y018855D01*
X018596Y018905D01*
X018613Y018954D01*
X018633Y019001D01*
X018657Y019047D01*
X018685Y019090D01*
X018715Y019132D01*
X018749Y019171D01*
X018785Y019207D01*
X018824Y019241D01*
X018866Y019271D01*
X018910Y019299D01*
X018955Y019323D01*
X019002Y019343D01*
X019051Y019360D01*
X019101Y019374D01*
X019151Y019383D01*
X019203Y019389D01*
X019254Y019391D01*
X020356Y019391D01*
X020356Y019116D02*
X019254Y019116D01*
X019254Y019115D02*
X019216Y019113D01*
X019178Y019108D01*
X019141Y019099D01*
X019105Y019087D01*
X019070Y019072D01*
X019037Y019053D01*
X019005Y019032D01*
X018976Y019007D01*
X018949Y018980D01*
X018924Y018951D01*
X018903Y018919D01*
X018884Y018886D01*
X018869Y018851D01*
X018857Y018815D01*
X018848Y018778D01*
X018843Y018740D01*
X018841Y018702D01*
X020356Y019392D02*
X020394Y019394D01*
X020432Y019399D01*
X020469Y019408D01*
X020505Y019420D01*
X020540Y019435D01*
X020573Y019454D01*
X020605Y019475D01*
X020634Y019500D01*
X020661Y019527D01*
X020686Y019556D01*
X020707Y019588D01*
X020726Y019621D01*
X020741Y019656D01*
X020753Y019692D01*
X020762Y019729D01*
X020767Y019767D01*
X020769Y019805D01*
X021045Y019805D02*
X021043Y019754D01*
X021037Y019702D01*
X021028Y019652D01*
X021014Y019602D01*
X020997Y019553D01*
X020977Y019506D01*
X020953Y019461D01*
X020925Y019417D01*
X020895Y019375D01*
X020861Y019336D01*
X020825Y019300D01*
X020786Y019266D01*
X020744Y019236D01*
X020701Y019208D01*
X020655Y019184D01*
X020608Y019164D01*
X020559Y019147D01*
X020509Y019133D01*
X020459Y019124D01*
X020407Y019118D01*
X020356Y019116D01*
X017482Y019943D02*
X015277Y019943D01*
X015002Y020218D02*
X017482Y020218D01*
X017482Y019943D02*
X017532Y019945D01*
X017582Y019950D01*
X017631Y019960D01*
X017679Y019973D01*
X017726Y019989D01*
X017772Y020009D01*
X017817Y020033D01*
X017859Y020059D01*
X017899Y020089D01*
X017937Y020122D01*
X017972Y020157D01*
X018005Y020195D01*
X018035Y020235D01*
X018061Y020278D01*
X018085Y020322D01*
X018105Y020368D01*
X018121Y020415D01*
X018134Y020463D01*
X018144Y020512D01*
X018149Y020562D01*
X018151Y020612D01*
X017876Y020612D02*
X017874Y020573D01*
X017868Y020535D01*
X017859Y020498D01*
X017846Y020461D01*
X017829Y020426D01*
X017810Y020393D01*
X017787Y020362D01*
X017761Y020333D01*
X017732Y020307D01*
X017701Y020284D01*
X017668Y020265D01*
X017633Y020248D01*
X017596Y020235D01*
X017559Y020226D01*
X017521Y020220D01*
X017482Y020218D01*
X015277Y019942D02*
X015235Y019946D01*
X015192Y019947D01*
X015150Y019944D01*
X015108Y019937D01*
X015067Y019926D01*
X015027Y019912D01*
X014988Y019894D01*
X014951Y019874D01*
X014916Y019850D01*
X014883Y019823D01*
X014853Y019793D01*
X014825Y019761D01*
X014800Y019726D01*
X014779Y019690D01*
X014760Y019651D01*
X014745Y019612D01*
X014734Y019571D01*
X014726Y019529D01*
X014726Y016635D01*
X014450Y016635D02*
X014450Y019529D01*
X014446Y019578D01*
X014447Y019627D01*
X014451Y019676D01*
X014459Y019724D01*
X014471Y019772D01*
X014486Y019818D01*
X014505Y019863D01*
X014528Y019907D01*
X014554Y019948D01*
X014583Y019988D01*
X014615Y020025D01*
X014650Y020059D01*
X014687Y020091D01*
X014727Y020119D01*
X014769Y020145D01*
X014813Y020167D01*
X014858Y020185D01*
X014905Y020200D01*
X014953Y020211D01*
X015001Y020218D01*
X014726Y016635D02*
X014724Y016579D01*
X014718Y016522D01*
X014709Y016467D01*
X014695Y016412D01*
X014678Y016358D01*
X014658Y016306D01*
X014633Y016255D01*
X014606Y016205D01*
X014575Y016158D01*
X014541Y016113D01*
X014503Y016071D01*
X014463Y016031D01*
X014421Y015993D01*
X014376Y015959D01*
X014329Y015928D01*
X014279Y015901D01*
X014228Y015876D01*
X014176Y015856D01*
X014122Y015839D01*
X014067Y015825D01*
X014012Y015816D01*
X013955Y015810D01*
X013899Y015808D01*
X013899Y015809D02*
X012553Y015809D01*
X012502Y015757D01*
X012675Y016084D02*
X012502Y016257D01*
X012675Y016084D02*
X013899Y016084D01*
X013945Y016086D01*
X013990Y016092D01*
X014034Y016101D01*
X014078Y016114D01*
X014120Y016130D01*
X014161Y016150D01*
X014200Y016174D01*
X014237Y016200D01*
X014272Y016230D01*
X014304Y016262D01*
X014334Y016297D01*
X014360Y016334D01*
X014384Y016373D01*
X014404Y016414D01*
X014420Y016456D01*
X014433Y016500D01*
X014442Y016544D01*
X014448Y016589D01*
X014450Y016635D01*
X008080Y012698D02*
X007080Y012698D01*
X006045Y012639D02*
X005238Y011832D01*
X004037Y011832D01*
X011261Y010297D02*
X011261Y006301D01*
X011537Y006301D02*
X011537Y010297D01*
X011261Y010297D02*
X011263Y010348D01*
X011269Y010400D01*
X011278Y010450D01*
X011292Y010500D01*
X011309Y010549D01*
X011329Y010596D01*
X011353Y010642D01*
X011381Y010685D01*
X011411Y010727D01*
X011445Y010766D01*
X011481Y010802D01*
X011520Y010836D01*
X011562Y010866D01*
X011606Y010894D01*
X011651Y010918D01*
X011698Y010938D01*
X011747Y010955D01*
X011797Y010969D01*
X011847Y010978D01*
X011899Y010984D01*
X011950Y010986D01*
X011950Y010710D02*
X011912Y010708D01*
X011874Y010703D01*
X011837Y010694D01*
X011801Y010682D01*
X011766Y010667D01*
X011733Y010648D01*
X011701Y010627D01*
X011672Y010602D01*
X011645Y010575D01*
X011620Y010546D01*
X011599Y010514D01*
X011580Y010481D01*
X011565Y010446D01*
X011553Y010410D01*
X011544Y010373D01*
X011539Y010335D01*
X011537Y010297D01*
X012501Y006097D02*
X012459Y006062D01*
X012414Y006030D01*
X012368Y006001D01*
X012320Y005975D01*
X012270Y005952D01*
X012219Y005933D01*
X012166Y005917D01*
X012113Y005904D01*
X012059Y005895D01*
X012005Y005890D01*
X011950Y005888D01*
X011950Y005612D02*
X012486Y005612D01*
X012492Y005611D01*
X012497Y005607D01*
X012501Y005602D01*
X012502Y005596D01*
X011950Y005612D02*
X011899Y005614D01*
X011847Y005620D01*
X011797Y005629D01*
X011747Y005643D01*
X011698Y005660D01*
X011651Y005680D01*
X011606Y005704D01*
X011562Y005732D01*
X011520Y005762D01*
X011481Y005796D01*
X011445Y005832D01*
X011411Y005871D01*
X011381Y005913D01*
X011353Y005957D01*
X011329Y006002D01*
X011309Y006049D01*
X011292Y006098D01*
X011278Y006148D01*
X011269Y006198D01*
X011263Y006250D01*
X011261Y006301D01*
X011537Y006301D02*
X011539Y006263D01*
X011544Y006225D01*
X011553Y006188D01*
X011565Y006152D01*
X011580Y006117D01*
X011599Y006084D01*
X011620Y006052D01*
X011645Y006023D01*
X011672Y005996D01*
X011701Y005971D01*
X011733Y005950D01*
X011766Y005931D01*
X011801Y005916D01*
X011837Y005904D01*
X011874Y005895D01*
X011912Y005890D01*
X011950Y005888D01*
X009057Y006025D02*
X009057Y004234D01*
X007265Y002443D01*
X006990Y002443D01*
X003750Y002431D01*
X008206Y005372D02*
X008277Y005372D01*
X009057Y006025D02*
X008710Y006372D01*
X008277Y006372D01*
X019805Y006301D02*
X019807Y006250D01*
X019813Y006198D01*
X019822Y006148D01*
X019836Y006098D01*
X019853Y006049D01*
X019873Y006002D01*
X019897Y005957D01*
X019925Y005913D01*
X019955Y005871D01*
X019989Y005832D01*
X020025Y005796D01*
X020064Y005762D01*
X020106Y005732D01*
X020150Y005704D01*
X020195Y005680D01*
X020242Y005660D01*
X020291Y005643D01*
X020341Y005629D01*
X020391Y005620D01*
X020443Y005614D01*
X020494Y005612D01*
X020813Y005612D01*
X020813Y005611D02*
X020864Y005609D01*
X020916Y005604D01*
X020966Y005595D01*
X020494Y005888D02*
X020456Y005890D01*
X020418Y005895D01*
X020381Y005904D01*
X020345Y005916D01*
X020310Y005931D01*
X020277Y005950D01*
X020245Y005971D01*
X020216Y005996D01*
X020189Y006023D01*
X020164Y006052D01*
X020143Y006084D01*
X020124Y006117D01*
X020109Y006152D01*
X020097Y006188D01*
X020088Y006225D01*
X020083Y006263D01*
X020081Y006301D01*
X020494Y005888D02*
X020542Y005890D01*
X020590Y005895D01*
X020638Y005904D01*
X020684Y005917D01*
X020730Y005933D01*
X020774Y005953D01*
X020817Y005975D01*
X020857Y006001D01*
X020896Y006030D01*
X020932Y006062D01*
X020966Y006097D01*
X028624Y014293D02*
X029198Y014293D01*
X029198Y014292D02*
X029209Y014290D01*
X029219Y014285D01*
X029226Y014278D01*
X029231Y014268D01*
X029233Y014257D01*
X028624Y014293D02*
X028573Y014295D01*
X028521Y014301D01*
X028471Y014310D01*
X028421Y014324D01*
X028372Y014341D01*
X028325Y014361D01*
X028280Y014385D01*
X028236Y014413D01*
X028194Y014443D01*
X028155Y014477D01*
X028119Y014513D01*
X028085Y014552D01*
X028055Y014594D01*
X028027Y014638D01*
X028003Y014683D01*
X027983Y014730D01*
X027966Y014779D01*
X027952Y014829D01*
X027943Y014879D01*
X027937Y014931D01*
X027935Y014982D01*
X028211Y014982D02*
X028213Y014944D01*
X028218Y014906D01*
X028227Y014869D01*
X028239Y014833D01*
X028254Y014798D01*
X028273Y014765D01*
X028294Y014733D01*
X028319Y014704D01*
X028346Y014677D01*
X028375Y014652D01*
X028407Y014631D01*
X028440Y014612D01*
X028475Y014597D01*
X028511Y014585D01*
X028548Y014576D01*
X028586Y014571D01*
X028624Y014569D01*
X028624Y014568D02*
X028689Y014570D01*
X028753Y014576D01*
X028818Y014585D01*
X028881Y014599D01*
X028943Y014616D01*
X029005Y014637D01*
X029065Y014662D01*
X029123Y014690D01*
X029180Y014722D01*
X029234Y014757D01*
X038683Y010986D02*
X038734Y010984D01*
X038786Y010978D01*
X038836Y010969D01*
X038886Y010955D01*
X038935Y010938D01*
X038982Y010918D01*
X039028Y010894D01*
X039071Y010866D01*
X039113Y010836D01*
X039152Y010802D01*
X039188Y010766D01*
X039222Y010727D01*
X039252Y010685D01*
X039280Y010642D01*
X039304Y010596D01*
X039324Y010549D01*
X039341Y010500D01*
X039355Y010450D01*
X039364Y010400D01*
X039370Y010348D01*
X039372Y010297D01*
X039372Y007817D01*
X039096Y007817D02*
X039096Y010297D01*
X039094Y010335D01*
X039089Y010373D01*
X039080Y010410D01*
X039068Y010446D01*
X039053Y010481D01*
X039034Y010514D01*
X039013Y010546D01*
X038988Y010575D01*
X038961Y010602D01*
X038932Y010627D01*
X038900Y010648D01*
X038867Y010667D01*
X038832Y010682D01*
X038796Y010694D01*
X038759Y010703D01*
X038721Y010708D01*
X038683Y010710D01*
X037698Y007596D02*
X037743Y007563D01*
X037791Y007534D01*
X037839Y007507D01*
X037890Y007483D01*
X037941Y007462D01*
X037994Y007444D01*
X038048Y007429D01*
X038103Y007418D01*
X038158Y007410D01*
X038213Y007405D01*
X038269Y007403D01*
X038683Y007403D01*
X038683Y007128D02*
X037730Y007128D01*
X037730Y007127D02*
X037720Y007125D01*
X037712Y007121D01*
X037705Y007114D01*
X037701Y007106D01*
X037699Y007096D01*
X038683Y007128D02*
X038734Y007130D01*
X038786Y007136D01*
X038836Y007145D01*
X038886Y007159D01*
X038935Y007176D01*
X038982Y007196D01*
X039028Y007220D01*
X039071Y007248D01*
X039113Y007278D01*
X039152Y007312D01*
X039188Y007348D01*
X039222Y007387D01*
X039252Y007429D01*
X039280Y007473D01*
X039304Y007518D01*
X039324Y007565D01*
X039341Y007614D01*
X039355Y007664D01*
X039364Y007714D01*
X039370Y007766D01*
X039372Y007817D01*
X039096Y007817D02*
X039094Y007779D01*
X039089Y007741D01*
X039080Y007704D01*
X039068Y007668D01*
X039053Y007633D01*
X039034Y007600D01*
X039013Y007568D01*
X038988Y007539D01*
X038961Y007512D01*
X038932Y007487D01*
X038900Y007466D01*
X038867Y007447D01*
X038832Y007432D01*
X038796Y007420D01*
X038759Y007411D01*
X038721Y007406D01*
X038683Y007404D01*
D18*
X008206Y005372D02*
X007817Y005761D01*
X007817Y006714D01*
X007541Y006990D01*
X004309Y006990D01*
X003750Y006431D01*
X002443Y007403D02*
X001891Y006852D01*
X001891Y004289D01*
X002750Y003431D01*
X003750Y003431D02*
X006691Y006372D01*
X007277Y006372D01*
X006025Y007403D02*
X002443Y007403D01*
X006025Y007403D02*
X006439Y007817D01*
X006439Y012226D01*
X006911Y012698D01*
X007080Y012698D01*
D19*
X006576Y014431D03*
X006320Y014982D03*
X008387Y021045D03*
X012659Y023112D03*
X012659Y023387D03*
X012935Y023387D03*
X012935Y023112D03*
X013210Y023112D03*
X013210Y023387D03*
X013210Y023663D03*
X012935Y023663D03*
X012659Y023663D03*
X013761Y023663D03*
X013761Y023387D03*
X013761Y023112D03*
X013761Y022836D03*
X014037Y022836D03*
X014037Y023112D03*
X014037Y023387D03*
X014037Y023663D03*
X016104Y023663D03*
X016380Y023663D03*
X016655Y023663D03*
X016655Y023387D03*
X016655Y023112D03*
X016380Y023112D03*
X016380Y023387D03*
X016104Y023387D03*
X016104Y023112D03*
X016104Y022147D03*
X016104Y021872D03*
X016380Y021872D03*
X016380Y022147D03*
X015671Y021320D03*
X018013Y023722D03*
X018604Y023722D03*
X019391Y023722D03*
X020376Y023722D03*
X021320Y023722D03*
X022128Y023722D03*
X022935Y023722D03*
X023722Y023722D03*
X024509Y023722D03*
X025297Y023722D03*
X026084Y023722D03*
X026872Y023722D03*
X027659Y023722D03*
X028446Y023722D03*
X029234Y023722D03*
X030041Y023722D03*
X030809Y023722D03*
X031616Y023722D03*
X032383Y023722D03*
D20*
X041242Y024706D03*
X009155Y024509D03*
X009155Y002069D03*
X016242Y002069D03*
X041242Y002069D03*
D21*
X013289Y025021D02*
X013289Y025061D01*
D22*
X015671Y021320D02*
X008230Y021320D01*
X006576Y019667D01*
X006576Y014431D01*
M02*
