G75*
G70*
%OFA0B0*%
%FSLAX24Y24*%
%IPPOS*%
%LPD*%
%AMOC8*
5,1,8,0,0,1.08239X$1,22.5*
%
%ADD10R,0.0374X0.1752*%
%ADD11C,0.0736*%
%ADD12C,0.0531*%
%ADD13OC8,0.0597*%
%ADD14C,0.0512*%
%ADD15C,0.0965*%
%ADD16C,0.0315*%
%ADD17C,0.2638*%
D10*
X012896Y025061D03*
X013290Y025061D03*
X013683Y025061D03*
X014077Y025061D03*
X014471Y025061D03*
X014865Y025061D03*
X015258Y025061D03*
X015652Y025061D03*
X016046Y025061D03*
X016439Y025061D03*
X016833Y025061D03*
X018014Y025061D03*
X018408Y025061D03*
X018802Y025061D03*
X019195Y025061D03*
X019589Y025061D03*
X019983Y025061D03*
X020376Y025061D03*
X020770Y025061D03*
X021164Y025061D03*
X021557Y025061D03*
X021951Y025061D03*
X022345Y025061D03*
X022739Y025061D03*
X023132Y025061D03*
X023526Y025061D03*
X023920Y025061D03*
X024313Y025061D03*
X024707Y025061D03*
X025101Y025061D03*
X025494Y025061D03*
X025888Y025061D03*
X026282Y025061D03*
X026676Y025061D03*
X027069Y025061D03*
X027463Y025061D03*
X027857Y025061D03*
X028250Y025061D03*
X028644Y025061D03*
X029038Y025061D03*
X029431Y025061D03*
X029825Y025061D03*
X030219Y025061D03*
X030613Y025061D03*
X031006Y025061D03*
X031400Y025061D03*
X031794Y025061D03*
X032187Y025061D03*
X032581Y025061D03*
D11*
X029750Y017809D02*
X029113Y017809D01*
X021483Y017809D02*
X020845Y017809D01*
X013018Y017809D02*
X012380Y017809D01*
X012380Y012707D02*
X013018Y012707D01*
X013018Y009148D02*
X012380Y009148D01*
X012380Y004046D02*
X013018Y004046D01*
X020845Y004046D02*
X021483Y004046D01*
X029113Y004046D02*
X029750Y004046D01*
X037577Y004046D02*
X038215Y004046D01*
X038215Y009148D02*
X037577Y009148D01*
X037577Y012707D02*
X038215Y012707D01*
X038215Y017809D02*
X037577Y017809D01*
X029750Y012707D02*
X029113Y012707D01*
X029113Y009148D02*
X029750Y009148D01*
X021483Y009148D02*
X020845Y009148D01*
X020845Y012707D02*
X021483Y012707D01*
D12*
X021361Y013758D03*
X020967Y014258D03*
X020967Y014758D03*
X021361Y015258D03*
X020967Y015758D03*
X020967Y016258D03*
X021361Y016758D03*
X029235Y016258D03*
X029235Y015758D03*
X029628Y015258D03*
X029235Y014758D03*
X029235Y014258D03*
X029628Y013758D03*
X029628Y016758D03*
X037699Y016258D03*
X037699Y015758D03*
X038093Y015258D03*
X037699Y014758D03*
X037699Y014258D03*
X038093Y013758D03*
X038093Y016758D03*
X038093Y008097D03*
X037699Y007597D03*
X037699Y007097D03*
X038093Y006597D03*
X037699Y006097D03*
X037699Y005597D03*
X038093Y005097D03*
X029628Y005097D03*
X029235Y005597D03*
X029235Y006097D03*
X029628Y006597D03*
X029235Y007097D03*
X029235Y007597D03*
X029628Y008097D03*
X021361Y008097D03*
X020967Y007597D03*
X020967Y007097D03*
X021361Y006597D03*
X020967Y006097D03*
X020967Y005597D03*
X021361Y005097D03*
X012896Y005097D03*
X012502Y005597D03*
X012502Y006097D03*
X012896Y006597D03*
X012502Y007097D03*
X012502Y007597D03*
X012896Y008097D03*
X012896Y013758D03*
X012502Y014258D03*
X012502Y014758D03*
X012896Y015258D03*
X012502Y015758D03*
X012502Y016258D03*
X012896Y016758D03*
D13*
X002750Y002431D03*
X003750Y002431D03*
X003750Y003431D03*
X002750Y003431D03*
X002750Y004431D03*
X003750Y004431D03*
X003750Y005431D03*
X002750Y005431D03*
X002750Y006431D03*
X003750Y006431D03*
X007278Y006372D03*
X008278Y006372D03*
X008278Y005372D03*
X007278Y005372D03*
X007278Y004372D03*
X008278Y004372D03*
X008081Y011699D03*
X007081Y011699D03*
X007081Y012699D03*
X008081Y012699D03*
X008081Y013699D03*
X007081Y013699D03*
D14*
X004244Y013833D02*
X003831Y013833D01*
X003831Y013333D02*
X004244Y013333D01*
X004244Y012833D02*
X003831Y012833D01*
X003831Y012333D02*
X004244Y012333D01*
X004244Y011833D02*
X003831Y011833D01*
X003831Y011333D02*
X004244Y011333D01*
X004244Y014333D02*
X003831Y014333D01*
X003831Y016833D02*
X004244Y016833D01*
X004244Y017333D02*
X003831Y017333D01*
X003831Y017833D02*
X004244Y017833D01*
X004244Y018333D02*
X003831Y018333D01*
X003831Y018833D02*
X004244Y018833D01*
X004244Y019333D02*
X003831Y019333D01*
X003831Y019833D02*
X004244Y019833D01*
X004244Y020333D02*
X003831Y020333D01*
X003831Y020833D02*
X004244Y020833D01*
X004244Y021333D02*
X003831Y021333D01*
X003831Y021833D02*
X004244Y021833D01*
X004244Y022333D02*
X003831Y022333D01*
X003831Y022833D02*
X004244Y022833D01*
X004244Y023333D02*
X003831Y023333D01*
X003831Y023833D02*
X004244Y023833D01*
D15*
X004038Y025500D03*
X004038Y009667D03*
D16*
X006321Y014983D03*
X008388Y021046D03*
X012660Y023113D03*
X012660Y023388D03*
X012935Y023388D03*
X012935Y023113D03*
X013211Y023113D03*
X013211Y023388D03*
X013211Y023664D03*
X012935Y023664D03*
X012660Y023664D03*
X012345Y024057D03*
X013762Y023664D03*
X014038Y023664D03*
X014038Y023388D03*
X014038Y023113D03*
X013762Y023113D03*
X013762Y023388D03*
X013762Y022837D03*
X014038Y022837D03*
X016105Y023113D03*
X016105Y023388D03*
X016380Y023388D03*
X016380Y023113D03*
X016656Y023113D03*
X016656Y023388D03*
X016656Y023664D03*
X016380Y023664D03*
X016105Y023664D03*
X018014Y023723D03*
X018605Y023723D03*
X019392Y023723D03*
X020376Y023723D03*
X021321Y023723D03*
X022128Y023723D03*
X022935Y023723D03*
X023723Y023723D03*
X024510Y023723D03*
X025298Y023723D03*
X026085Y023723D03*
X026872Y023723D03*
X027660Y023723D03*
X028447Y023723D03*
X029235Y023723D03*
X030042Y023723D03*
X030809Y023723D03*
X031617Y023723D03*
X032384Y023723D03*
X016380Y022148D03*
X016105Y022148D03*
X016105Y021872D03*
X016380Y021872D03*
D17*
X009156Y024510D03*
X041243Y024707D03*
X041243Y002069D03*
X016243Y002069D03*
X009156Y002069D03*
M02*
